<?xml version="1.0" standalone="no"?>
<!DOCTYPE svg PUBLIC "-//W3C//DTD SVG 1.1//EN" "http://www.w3.org/Graphics/SVG/1.1/DTD/svg11.dtd" >
<svg xmlns="http://www.w3.org/2000/svg" xmlns:xlink="http://www.w3.org/1999/xlink" version="1.1">
<metadata>
Created by FontForge 20170910 at Sat Oct 31 22:35:08 2015
 By Jimmy Wärting
Copyright (c) 2013 by Jonas Hecksher, Playtype, e-Types AS. All rights reserved.
</metadata>
<defs>
<font id="BerlingskeSerif-Italic" horiz-adv-x="1181" >
  <font-face 
    font-family="BerlingskeSerif-Italic"
    font-weight="400"
    font-style="italic"
    font-stretch="normal"
    units-per-em="2048"
    panose-1="2 0 5 3 8 0 0 9 0 4"
    ascent="1638"
    descent="-410"
    x-height="1044"
    cap-height="1413"
    bbox="-737 -600 3721 2072.01"
    underline-thickness="102"
    underline-position="-204"
    slope="-12"
    unicode-range="U+0020-FB06"
  />
<missing-glyph horiz-adv-x="1318" 
d="M1255 0h-1116v1413h1116v-1413zM1038 637q-63 0 -63 70v327h102v37h-102v105h-10q-29 -61 -115 -113l-33 -19v-10h62v-325q0 -59 30 -91q31 -30 85 -30t104 51l-2 10q-27 -12 -58 -12zM539 911h-60v299h70q123 0 123 -150t-133 -149zM315 596h240v8q-47 10 -61 32t-15 83
v164h74q94 0 158 45q63 45 63 145q0 166 -219 166h-240v-8q39 -12 51 -35t13 -84v-393q0 -59 -12 -82t-52 -33v-8z" />
    <glyph glyph-name="f_f" unicode="ff" horiz-adv-x="1277" 
d="M1322 1544q116 0 172 -46t56 -104t-30 -84q-30 -28 -73 -28q-44 0 -76 27t-32 75q0 80 93 113q-23 8 -56 8q-88 -2 -150 -81t-96 -271l-18 -109h231l-10 -69h-231l-170 -981q-62 -353 -414 -486l-2 11q80 47 143 155t89 240l186 1061h-197l31 69h176l14 80
q40 228 144 324t220 96zM684 1544q116 0 172 -46t55 -104q1 -58 -29 -84q-30 -28 -74 -28t-76 27t-32 75q0 80 93 113q-23 8 -56 8q-88 -2 -150 -81t-95 -271l-19 -109h232l-11 -69h-231l-170 -981q-62 -353 -414 -486l-2 11q80 47 143 155t89 240l186 1061h-197l31 69h176
l14 80q41 228 145 324t220 96z" />
    <glyph glyph-name="f_f_i" unicode="ffi" horiz-adv-x="1808" 
d="M684 1544q116 0 172 -46t55 -104q1 -58 -29 -84q-30 -28 -74 -28t-76 27t-32 75q0 80 93 113q-23 8 -56 8q-88 -2 -150 -81t-95 -271l-19 -109h232l-11 -69h-231l-170 -981q-62 -353 -414 -486l-2 11q80 47 143 155t89 240l186 1061h-197l31 69h176l14 80q41 228 145 324
t220 96zM1538 1069q115 -1 115 -141q0 -72 -21 -164l-104 -514q-10 -43 -10 -88q0 -72 55 -72q59 1 174 62v-9q-55 -61 -133 -115t-140 -54t-91 33q-28 34 -27 108q0 74 18 164l111 538q4 20 10 86q0 72 -65 72h-353l-170 -981q-59 -350 -413 -486l-2 11q80 47 143 155
t88 240l186 1061h-196l30 69h177l20 111q72 389 506 389q129 0 201 -44q71 -44 71 -101t-30 -86t-73 -29q-42 0 -73 27t-31 67q0 82 97 107q-59 25 -146 24q-293 0 -350 -325l-25 -140h164q111 0 193 12t94 13z" />
    <glyph glyph-name="f_f_l" unicode="ffl" horiz-adv-x="1814" 
d="M684 1544q116 0 172 -46t55 -104q1 -58 -29 -84q-30 -28 -74 -28t-76 27t-32 75q0 80 93 113q-23 8 -56 8q-88 -2 -150 -81t-95 -271l-19 -109h232l-11 -69h-231l-170 -981q-62 -353 -414 -486l-2 11q80 47 143 155t89 240l186 1061h-197l31 69h176l14 80q41 228 145 324
t220 96zM1466 -27q-115 0 -114 150q0 55 18 156l180 1005h-8q-34 0 -66 26t-32 70q0 80 96 105q-53 23 -115 22q-123 -1 -203 -71t-110 -252l-25 -140h232l-12 -69h-230l-170 -981q-59 -350 -413 -486l-2 11q76 47 142 155t89 240l186 1061h-196l30 69h177l20 111
q27 143 103 234q77 89 167 121t220 32t186 -61q61 20 139 63h10l-235 -1294q-10 -61 -10 -90q0 -70 53 -70q63 1 174 62l2 -9q-160 -170 -283 -170z" />
    <glyph glyph-name="f_b" unicode="fb" horiz-adv-x="1746" 
d="M1042 29q199 0 330 178t131 416q0 168 -67 262q-68 94 -172 94t-234 -94q-47 -270 -145 -807q74 -49 157 -49zM928 1284q-35 0 -67 26t-32 70q0 80 97 105q-53 23 -115 22q-123 -1 -203 -71t-110 -252l-25 -140h232l-13 -69h-229l-170 -981q-59 -350 -414 -486l-2 11
q79 47 143 155t89 240l186 1061h-197l31 69h176l21 111q39 211 170 300q132 89 290 89t215 -63q61 20 138 63h8l-113 -626q54 61 140 106t176 45q141 0 238 -114t98 -285q0 -260 -205 -477t-457 -218q-68 0 -166 19t-149 39l227 1251h-8z" />
    <glyph glyph-name="f_h" unicode="fh" horiz-adv-x="1789" 
d="M705 1044q0 -3 -11 -69h-231l-170 -981q-61 -352 -414 -486l-2 11q80 47 143 155t89 240l186 1061h-197l31 69h176l14 80q27 156 96 253t147 131t173 34q152 0 203 -82q113 23 225 84h8l-133 -729q78 100 191 177t204 77t142 -59t51 -170q0 -49 -14 -125l-90 -465
q-10 -57 -11 -90q0 -70 56 -70q59 1 174 62v-9q-55 -65 -140 -115t-149 -51q-104 0 -104 136q0 72 28 209l80 399q10 57 10 96q0 147 -110 148q-70 1 -160 -61t-168 -152l-137 -752h-164l215 1198q6 31 6 77t-47 75q0 -56 -68 -58q-32 0 -60 24t-28 66q0 84 97 109
q-33 14 -70 14q-108 0 -178 -78t-102 -274l-19 -109h232z" />
    <glyph glyph-name="f_i" unicode="fi" horiz-adv-x="1193" 
d="M741 115q0 74 19 164l110 538q4 20 11 86q0 72 -66 72h-352l-170 -981q-59 -350 -414 -486l-2 11q80 47 143 155t89 240l186 1061h-197l31 69h176l21 111q72 389 505 389q129 0 201 -44t72 -101t-31 -86t-73 -29t-72 27t-31 67q0 82 96 107q-59 25 -145 24
q-293 0 -350 -325l-25 -140h164q112 0 193 12q82 12 94 13q59 0 87 -34q52 -63 7 -271l-105 -514q-10 -43 -10 -88q0 -72 55 -72q60 1 175 62v-9q-55 -61 -133 -115t-141 -54q-62 0 -90 33q-28 34 -28 108z" />
    <glyph glyph-name="f_j" unicode="fj" horiz-adv-x="1128" 
d="M815 975h-352l-170 -981q-59 -350 -414 -486l-2 11q80 47 143 155t89 240l186 1061h-197l31 69h176l21 111q72 389 505 389q129 0 201 -44t72 -101t-31 -86t-73 -29t-72 27t-31 67q0 82 96 107q-59 25 -145 24q-293 0 -350 -325l-25 -140h164q112 0 193 12q82 12 94 13
q59 0 87 -34q52 -63 7 -271l-139 -770q-64 -357 -394 -486l-2 11q76 45 133 150t84 245l170 903q4 20 11 86q0 72 -66 72z" />
    <glyph glyph-name="f_k" unicode="fk" horiz-adv-x="1654" 
d="M1424 -27q-70 -1 -112 49t-108 201l-149 344q242 111 432 281q-39 8 -66 42t-27 74t34 72t81 33q47 0 82 -34t35 -85q0 -88 -168 -202q-61 -41 -248 -152l172 -338q47 -92 81 -131t79 -39t137 49l2 -8q-43 -61 -115 -109t-142 -47zM928 1284q-35 0 -67 26t-32 70
q0 80 97 105q-53 23 -115 22q-123 -1 -203 -71t-110 -252l-25 -140h232l-13 -69h-229l-170 -981q-59 -350 -414 -486l-2 11q75 47 141 155t91 240l186 1061h-197l31 69h176l21 111q27 143 103 234q77 89 167 121t220 32t185 -61q61 20 140 63h10l-283 -1544h-159l227 1284
h-8z" />
    <glyph glyph-name="f_l" unicode="fl" horiz-adv-x="1200" 
d="M852 -27q-115 0 -115 150q0 55 19 156l180 1005h-8q-35 0 -67 26t-32 70q0 80 97 105q-53 23 -115 22q-123 -1 -203 -71t-110 -252l-25 -140h232l-13 -69h-229l-170 -981q-59 -350 -414 -486l-2 11q75 47 141 155t91 240l186 1061h-197l31 69h176l21 111q27 143 103 234
q77 89 167 121t220 32t185 -61q61 20 140 63h10l-236 -1294q-10 -61 -10 -90q0 -70 53 -70q64 1 175 62l2 -9q-160 -170 -283 -170z" />
    <glyph glyph-name="f_t" unicode="ft" horiz-adv-x="1275" 
d="M707 1544q94 0 149 -46t55 -103q-1 -57 -29 -85t-72 -28t-77 27t-33 73q0 82 93 115q-23 8 -56 8q-88 -2 -150 -81t-95 -271l-19 -109h406q39 31 64 79q26 48 67 167h98l-47 -246h252l-8 -73h-254l-129 -721q-8 -53 -9 -70q0 -82 66 -82q74 0 197 66v-8
q-54 -62 -146 -122t-160 -61q-119 0 -118 154q0 59 16 152l125 696h-430l-170 -981q-61 -352 -414 -486l-2 11q80 47 143 155t89 240l186 1061h-197l31 69h176l14 80q76 420 388 420z" />
    <glyph glyph-name="f_f_b" unicode="ffb" horiz-adv-x="2359" 
d="M684 1544q116 0 172 -46t55 -104q1 -58 -29 -84q-30 -28 -74 -28t-76 27t-32 75q0 80 93 113q-23 8 -56 8q-88 -2 -150 -81t-95 -271l-19 -109h232l-11 -69h-231l-170 -981q-62 -353 -414 -486l-2 11q80 47 143 155t89 240l186 1061h-197l31 69h176l14 80q41 228 145 324
t220 96zM1657 29q199 0 330 178t131 416q0 168 -68 262t-171 94t-234 -94q-47 -270 -146 -807q74 -49 158 -49zM1542 1284q-34 0 -66 26t-32 70q0 80 96 105q-53 23 -115 22q-123 -1 -203 -71t-110 -252l-25 -140h232l-12 -69h-230l-170 -981q-59 -350 -413 -486l-2 11
q78 47 142 155t89 240l186 1061h-196l30 69h177l20 111q39 211 170 300q132 89 290 89t216 -63q61 20 137 63h8l-112 -626q55 61 140 106t175 45q140 0 238 -114t98 -285q0 -260 -205 -477t-457 -218q-68 0 -166 19t-149 39l227 1251h-8z" />
    <glyph glyph-name="f_f_f" unicode="fff" horiz-adv-x="1916" 
d="M1322 1544q116 0 172 -46t56 -104t-30 -84q-30 -28 -73 -28q-44 0 -76 27t-32 75q0 80 93 113q-23 8 -56 8q-88 -2 -150 -81t-96 -271l-18 -109h231l-10 -69h-231l-170 -981q-62 -353 -414 -486l-2 11q80 47 143 155t89 240l186 1061h-197l31 69h176l14 80
q40 228 144 324t220 96zM1962 1544q116 0 172 -46t55 -104q1 -58 -29 -84q-30 -28 -74 -28t-76 27t-32 75q0 80 93 113q-23 8 -56 8q-88 -2 -150 -81t-96 -271l-18 -109h231l-10 -69h-231l-170 -981q-62 -353 -414 -486l-2 11q80 47 143 155t88 240l187 1061h-197l31 69h176
l14 80q41 228 145 324t220 96zM684 1544q116 0 172 -46t55 -104q1 -58 -29 -84q-30 -28 -74 -28t-76 27t-32 75q0 80 93 113q-23 8 -56 8q-88 -2 -150 -81t-95 -271l-19 -109h232l-11 -69h-231l-170 -981q-62 -353 -414 -486l-2 11q80 47 143 155t89 240l186 1061h-197
l31 69h176l14 80q41 228 145 324t220 96z" />
    <glyph glyph-name="f_f_h" unicode="ffh" horiz-adv-x="2404" 
d="M684 1544q116 0 172 -46t55 -104q1 -58 -29 -84q-30 -28 -74 -28t-76 27t-32 75q0 80 93 113q-23 8 -56 8q-88 -2 -150 -81t-95 -271l-19 -109h232l-11 -69h-231l-170 -981q-62 -353 -414 -486l-2 11q80 47 143 155t89 240l186 1061h-197l31 69h176l14 80q41 228 145 324
t220 96zM1962 113q0 72 29 209l80 399q10 57 10 96q0 147 -111 148q-70 1 -160 -61t-168 -152l-137 -752h-164l215 1198q6 31 6 77t-46 75q0 -56 -69 -58q-31 0 -59 24t-28 66q0 84 96 109q-33 14 -70 14q-108 0 -178 -78t-102 -274l-19 -109h232l-10 -69h-232l-170 -981
q-61 -352 -413 -486l-2 11q80 47 143 155t88 240l186 1061h-196l30 69h177l14 80q27 156 95 253q69 97 147 131t174 34q152 0 202 -82q113 23 226 84h8l-133 -729q79 100 191 177t203 77t142 -59t52 -170q0 -49 -15 -125l-90 -465q-10 -57 -10 -90q0 -70 55 -70q59 1 174 62
v-9q-55 -65 -140 -115t-149 -51q-104 0 -104 136z" />
    <glyph glyph-name="f_f_j" unicode="ffj" horiz-adv-x="1742" 
d="M684 1544q116 0 172 -46t55 -104q1 -58 -29 -84q-30 -28 -74 -28t-76 27t-32 75q0 80 93 113q-23 8 -56 8q-88 -2 -150 -81t-95 -271l-19 -109h232l-11 -69h-231l-170 -981q-62 -353 -414 -486l-2 11q80 47 143 155t89 240l186 1061h-197l31 69h176l14 80q41 228 145 324
t220 96zM1538 1069q115 -1 115 -141q0 -72 -21 -164l-139 -770q-63 -357 -393 -486l-2 11q76 45 133 150t84 245l170 903q4 20 10 86q0 72 -65 72h-353l-170 -981q-59 -350 -413 -486l-2 11q80 47 143 155t88 240l186 1061h-196l30 69h177l20 111q72 389 506 389
q129 0 201 -44q71 -44 71 -101t-30 -86t-73 -29q-42 0 -73 27t-31 67q0 82 97 107q-59 25 -146 24q-293 0 -350 -325l-25 -140h164q111 0 193 12t94 13z" />
    <glyph glyph-name="f_f_k" unicode="ffk" horiz-adv-x="2269" 
d="M684 1544q116 0 172 -46t55 -104q1 -58 -29 -84q-30 -28 -74 -28t-76 27t-32 75q0 80 93 113q-23 8 -56 8q-88 -2 -150 -81t-95 -271l-19 -109h232l-11 -69h-231l-170 -981q-62 -353 -414 -486l-2 11q80 47 143 155t89 240l186 1061h-197l31 69h176l14 80q41 228 145 324
t220 96zM2038 -27q-68 -1 -111 49t-108 201l-150 344q242 111 432 281q-39 8 -65 42t-27 74q0 40 34 72t81 33q47 0 82 -34t35 -85q0 -88 -168 -202q-61 -41 -248 -152l172 -338q47 -92 81 -131t79 -39t137 49l2 -8q-43 -61 -116 -109q-74 -48 -142 -47zM1542 1284
q-34 0 -66 26t-32 70q0 80 96 105q-53 23 -115 22q-123 -1 -203 -71t-110 -252l-25 -140h232l-12 -69h-230l-170 -981q-59 -350 -413 -486l-2 11q76 47 142 155t89 240l186 1061h-196l30 69h177l20 111q27 143 103 234q77 89 167 121t220 32t186 -61q61 20 139 63h10
l-282 -1544h-160l227 1284h-8z" />
    <glyph glyph-name=".notdef" horiz-adv-x="1318" 
d="M1255 0h-1116v1413h1116v-1413zM1038 637q-63 0 -63 70v327h102v37h-102v105h-10q-29 -61 -115 -113l-33 -19v-10h62v-325q0 -59 30 -91q31 -30 85 -30t104 51l-2 10q-27 -12 -58 -12zM539 911h-60v299h70q123 0 123 -150t-133 -149zM315 596h240v8q-47 10 -61 32t-15 83
v164h74q94 0 158 45q63 45 63 145q0 166 -219 166h-240v-8q39 -12 51 -35t13 -84v-393q0 -59 -12 -82t-52 -33v-8z" />
    <glyph glyph-name=".null" horiz-adv-x="0" 
 />
    <glyph glyph-name="nonmarkingreturn" horiz-adv-x="682" 
 />
    <glyph glyph-name="space" unicode=" " horiz-adv-x="430" 
 />
    <glyph glyph-name="exclam" unicode="!" horiz-adv-x="495" 
d="M167 -29q-50 0 -87 36t-37 86t37 87t87 37t86 -37t36 -87t-36 -86t-86 -36zM412 1442q102 0 88 -123q-12 -102 -133 -484t-144 -462h-16q14 133 33 448q18 315 45 506q6 57 43 86t84 29z" />
    <glyph glyph-name="quotedbl" unicode="&#x22;" horiz-adv-x="804" 
d="M618 1074l-20 276q0 34 24 63t64 29t66 -26t26 -58t-61 -163q-61 -130 -84 -212l-21 4q6 41 6 87zM272 1074l-20 276q0 34 23 63q24 29 64 29t67 -26q26 -26 26 -58t-61 -163q-61 -130 -84 -212l-21 4q6 41 6 87z" />
    <glyph glyph-name="numbersign" unicode="#" horiz-adv-x="1167" 
d="M670 557l102 299h-258l-102 -299h258zM557 0h-78l164 479h-258l-164 -479h-78l164 479h-213l15 78h225l102 299h-278l14 78h293l164 479h78l-164 -479h258l164 479h77l-163 -479h215l-15 -78h-229l-102 -299h282l-14 -78h-295z" />
    <glyph glyph-name="dollar" unicode="$" horiz-adv-x="1099" 
d="M627 573l-105 -555q111 18 189 96t77 197q1 137 -161 262zM678 1374q-117 0 -202 -72t-85 -192q1 -84 55 -148t160 -143l105 553q-10 2 -33 2zM238 1030q0 184 145 286t338 103l22 125h66l-25 -129q131 -14 283 -80l-51 -276h-8q-27 115 -89 191t-147 108l-106 -580
q213 -149 262 -266q23 -55 22 -119q0 -178 -126 -288t-310 -130l-27 -147h-65l24 143q-100 0 -216 24t-177 56l62 340h8q29 -186 126 -280t208 -95l112 602q-12 10 -57 42t-60 44q-16 12 -54 42t-53 48t-41 50q-66 79 -66 186z" />
    <glyph glyph-name="percent" unicode="%" horiz-adv-x="1748" 
d="M1122 33q90 0 178 90t138 209q49 119 49 202t-33 132t-96 49q-92 1 -178 -97t-132 -220t-47 -214q0 -151 121 -151zM1336 770q220 0 220 -230q0 -114 -66 -247t-174 -225t-222 -93q-114 0 -178 68q-64 67 -64 179t69 240t186 218q119 90 229 90zM473 702q94 0 182 94
t137 213q48 119 48 197t-33 128t-96 50q-93 0 -179 -97t-132 -219t-46 -214q0 -152 119 -152zM1035 1225q-60 0 -130 32q2 -14 2 -57q0 -102 -57 -228t-169 -226t-230 -101q-119 0 -183 69t-63 177q0 178 155 364q156 186 340 187q106 0 172 -76q24 -28 73 -52
q48 -24 112 -24q182 0 403 209h82l-1263 -1595h-91l1119 1411l-9 4q-40 -26 -58 -35q-19 -8 -42 -20t-37 -16t-40 -14q-26 -9 -86 -9z" />
    <glyph glyph-name="ampersand" unicode="&#x26;" horiz-adv-x="1445" 
d="M948 1220q0 70 -41 118t-123 48t-143 -84t-61 -208t45 -263q112 57 185 125q74 68 106 131t32 133zM221 362q0 -116 85 -205q84 -89 232 -89t287 61q-106 115 -198 281q-93 166 -142 305q-125 -78 -195 -157q-70 -80 -69 -196zM1112 -25q-121 0 -244 113
q-216 -119 -412 -119q-196 1 -298 97t-103 231q0 182 135 292q70 56 126 89t157 82q-49 166 -49 270q0 178 108 295q109 117 277 117q123 0 202 -62t79 -172q0 -150 -155 -260q-123 -87 -296 -162q123 -352 338 -561q86 72 139 173t53 202q0 150 -149 215q0 23 108 23
q186 -6 187 -211q0 -111 -81 -228t-212 -215q184 -156 391 -176v-8q-104 -25 -301 -25z" />
    <glyph glyph-name="quotesingle" unicode="'" horiz-adv-x="450" 
d="M272 1074l-20 276q0 34 23 63q24 29 64 29t67 -26q26 -26 26 -58t-61 -163q-61 -130 -84 -212l-21 4q6 41 6 87z" />
    <glyph glyph-name="parenleft" unicode="(" horiz-adv-x="700" 
d="M186 446q0 154 51 311t117 271t161 228q95 116 155 174t131 118h35q-492 -598 -492 -1231q0 -289 156 -604h-37q-101 121 -189 313t-88 420z" />
    <glyph glyph-name="parenright" unicode=")" horiz-adv-x="700" 
d="M-96 -287h-37q492 594 491 1170q0 336 -157 665h37q283 -340 282 -731q0 -151 -49 -305t-118 -270t-190 -266q-122 -149 -259 -263z" />
    <glyph glyph-name="asterisk" unicode="*" horiz-adv-x="796" 
d="M674 834l-127 -70l-109 291l-159 -256l-113 100l250 176l-314 92l64 129l262 -186l-27 317l148 -18l-88 -305l289 115l32 -142l-315 -10z" />
    <glyph glyph-name="plus" unicode="+" horiz-adv-x="1167" 
d="M995 514h-360l-70 -373h-131l70 373h-361l25 127h360l70 373h131l-70 -373h361z" />
    <glyph glyph-name="comma" unicode="," horiz-adv-x="423" 
d="M96 -40q0 30 -18 70t-18 80t29 70q30 31 78 31t80 -37t32 -84q-1 -88 -97 -190t-209 -150l-6 6q59 50 94 112t35 92z" />
    <glyph glyph-name="hyphen" unicode="-" horiz-adv-x="595" 
d="M535 526h-486l14 138h486z" />
    <glyph glyph-name="period" unicode="." horiz-adv-x="423" 
d="M194 -29q-50 0 -86 36t-36 86t36 86t86 36t86 -36t36 -86t-36 -86t-86 -36z" />
    <glyph glyph-name="slash" unicode="/" horiz-adv-x="798" 
d="M45 -31h-88l809 1473h88z" />
    <glyph glyph-name="zero" unicode="0" horiz-adv-x="1167" 
d="M453 8q216 0 362 484q76 250 76 518q0 391 -182 391q-211 0 -363 -498q-84 -277 -84 -528q1 -367 191 -367zM449 -31q-173 1 -263 149t-90 359q0 123 25 259t105 300t211 285q132 121 278 121q89 0 159 -49q123 -86 167 -313q62 -316 -80 -659q-113 -271 -295 -387
q-102 -65 -217 -65z" />
    <glyph glyph-name="one" unicode="1" horiz-adv-x="1167" 
d="M756 0h-543l2 8q139 27 187 78t75 193l168 913q-88 -49 -280 -113l-3 31q137 47 248 127t230 201h8l-213 -1159q-25 -141 -1 -191t124 -80z" />
    <glyph glyph-name="two" unicode="2" horiz-adv-x="1167" 
d="M610 1358q-168 0 -295 -135q162 -8 162 -123q0 -57 -38 -89t-89 -32t-87 38t-36 91q0 110 133 222q132 112 314 112t290 -88t107 -234q0 -93 -59 -208q-42 -83 -271 -284q-81 -71 -201 -184t-327 -297h676l-27 -147h-846l4 33l504 481q362 346 363 594q0 118 -78 184
t-199 66z" />
    <glyph glyph-name="three" unicode="3" horiz-adv-x="1167" 
d="M1040 1413v-4l-2 -4l-450 -516q156 -20 270 -130t115 -267q0 -223 -183 -373t-413 -150q-147 0 -246 69q-98 69 -98 152q0 56 38 96t93 40t90 -35t35 -85t-40 -86t-97 -50q72 -54 221 -54t278 120t129 289t-110 248q-111 78 -271 66v15l439 503h-586l27 156h761z" />
    <glyph glyph-name="four" unicode="4" horiz-adv-x="1167" 
d="M781 114q0 -58 57 -114h-353q78 70 113 140t57 204l11 66h-643l2 8l897 1016h92l-170 -920h174l-19 -104h-174l-30 -168q-14 -70 -14 -128zM686 514l133 721l-635 -721h502z" />
    <glyph glyph-name="five" unicode="5" horiz-adv-x="1167" 
d="M626 887q154 -1 248 -101t95 -256q0 -255 -210 -417q-185 -143 -401 -144q-137 0 -230 68t-93 156q0 63 38 99t92 36t90 -34t36 -81q0 -98 -127 -143q74 -57 194 -58q176 0 306 150q129 150 129 350q0 131 -77 200q-77 68 -203 68t-280 -112l-6 2l232 743h602l-29 -156
h-569l-160 -505q169 135 323 135z" />
    <glyph glyph-name="six" unicode="6" horiz-adv-x="1167" 
d="M258 344q0 -332 229 -332q150 0 250 148q101 148 101 315q0 166 -66 251t-200 85t-244 -86q-70 -193 -70 -381zM670 891q145 0 243 -96t99 -254q0 -271 -198 -441q-153 -131 -331 -131q-179 0 -291 131t-112 320q0 276 198 536q152 199 362 326t431 160l-6 -33
q-195 -47 -403 -225t-314 -416q137 123 322 123z" />
    <glyph glyph-name="seven" unicode="7" horiz-adv-x="1167" 
d="M365 0h-189q123 250 353 588t495 669h-809l27 156h936l-2 -8q-232 -301 -452 -689t-359 -716z" />
    <glyph glyph-name="eight" unicode="8" horiz-adv-x="1167" 
d="M936 1151q0 111 -69 177t-181 65q-112 0 -201 -84q-88 -84 -88 -209q0 -84 47 -136q20 -22 30 -34t56 -44q45 -32 91 -58q45 -27 61 -37q254 145 254 360zM221 300q0 -136 75 -210t209 -74t235 96t102 238q0 73 -42 133t-162 134q-34 22 -114 71q-115 -51 -209 -152
q-94 -100 -94 -236zM504 -31q-194 0 -325 90q-132 90 -132 234q0 78 36 140t75 99t108 78t140 71t79 34q-115 77 -185 159t-69 191q-1 170 135 273q136 104 332 104t302 -90q108 -90 108 -213q0 -63 -31 -119t-67 -92q-77 -75 -295 -158q152 -100 200 -154q94 -98 95 -221
q0 -195 -156 -311t-350 -115z" />
    <glyph glyph-name="nine" unicode="9" horiz-adv-x="1167" 
d="M901 1030q0 362 -229 363q-142 1 -242 -143t-100 -328q0 -135 72 -216q72 -82 206 -82q133 0 244 74q49 158 49 332zM152 897q0 160 84 288q84 129 204 193t244 64q180 0 288 -144t108 -364q0 -221 -140 -436q-139 -214 -360 -354t-465 -175l6 31q215 49 422 222t301 435
h-8q-144 -109 -310 -109t-270 95q-104 94 -104 254z" />
    <glyph glyph-name="colon" unicode=":" horiz-adv-x="423" 
d="M286 825q-50 0 -86 36t-36 86t36 86t86 36t86 -36t36 -86t-36 -86t-86 -36zM153 -29q-50 0 -86 36t-36 86t36 86t86 36t86 -36q35 -36 35 -86t-36 -86t-85 -36z" />
    <glyph glyph-name="semicolon" unicode=";" horiz-adv-x="423" 
d="M286 825q-50 0 -86 36t-36 86t36 86t86 36t86 -36t36 -86t-36 -86t-86 -36zM96 -40q0 30 -18 70t-18 80t29 70q30 31 78 31t80 -37t32 -84q-1 -88 -97 -190t-209 -150l-6 6q59 50 94 112t35 92z" />
    <glyph glyph-name="less" unicode="&#x3c;" horiz-adv-x="1257" 
d="M926 145l-772 420l6 25l927 420l-4 -17l-671 -422l516 -409z" />
    <glyph glyph-name="equal" unicode="=" horiz-adv-x="1167" 
d="M1010 670h-852l24 127h852zM983 358h-852l25 127h852z" />
    <glyph glyph-name="greater" unicode="&#x3e;" horiz-adv-x="1257" 
d="M1004 565l-928 -420l2 17l674 422l-519 409l5 17l772 -420z" />
    <glyph glyph-name="question" unicode="?" horiz-adv-x="950" 
d="M467 93q0 -50 -36 -86t-86 -36t-86 36t-36 86t36 86t86 36t86 -36t36 -86zM758 1146q0 106 -67 165t-163 59q-137 0 -247 -117q61 1 103 -33t42 -90t-35 -90q-35 -32 -86 -32t-87 36t-36 89q0 106 125 207q125 102 283 102t246 -80q90 -80 90 -217q0 -178 -151 -336
q-67 -69 -137 -135q-185 -172 -241 -314h-14q18 113 82 224q63 111 127 184q166 195 166 378z" />
    <glyph glyph-name="at" unicode="@" horiz-adv-x="1527" 
d="M622 -229q-244 1 -416 159q-171 158 -171 400t120 447q120 206 320 331q201 125 439 125t407 -152q168 -152 168 -389q0 -126 -44 -236q-78 -194 -251 -305q-173 -110 -324 -110q-72 0 -71 37q0 39 18 88l86 244h-16q-145 -219 -227 -294t-148 -75q-68 0 -108 56t-39 161
q0 168 92 331t236 263t290 100q63 0 141 -22l72 22h21l-162 -489l-92 -305q-10 -25 -11 -49q0 -13 31 -13t97 40q176 108 256 289q50 114 50 241q0 209 -134 348t-334 139t-369 -113q-168 -113 -266 -298q-99 -184 -99 -408t138 -364t350 -140q211 0 391 92l6 -10
q-203 -141 -447 -141zM995 891q-125 0 -237 -99q-112 -98 -175 -242q-62 -144 -63 -282q0 -59 18 -93t53 -34q60 0 246 257q85 120 105 145l111 340q-25 8 -58 8z" />
    <glyph glyph-name="A" unicode="A" horiz-adv-x="1400" 
d="M915 569l-118 699l-373 -699h491zM969 177q0 81 -43 333h-533q-176 -332 -176 -414q0 -37 26 -56t83 -32l-2 -8h-420l2 8q68 25 114 68q95 90 306 475l485 876h123l149 -874q55 -324 91 -418t122 -127l-2 -8h-475l2 8q82 18 115 53t33 116z" />
    <glyph glyph-name="B" unicode="B" horiz-adv-x="1271" 
d="M379 1260q0 57 -31 91t-104 54l2 8h495q211 0 331 -80t120 -227q0 -281 -356 -361l-2 -8q131 -20 226 -107t95 -212q0 -240 -198 -335q-172 -83 -416 -83h-553l2 8q110 27 152 81t67 190l158 856q12 68 12 125zM612 754q180 0 296 98t116 262q0 112 -79 178t-234 66h-136
l-108 -604h145zM545 55q184 0 306 91t122 268q1 133 -99 209t-253 75h-166l-117 -643h207z" />
    <glyph glyph-name="C" unicode="C" horiz-adv-x="1409" 
d="M768 -31q-276 0 -467 170q-190 170 -190 436q0 161 54 301q98 256 344 411q245 155 505 155q104 0 223 -26t176 -54l-49 -275h-8q-72 309 -373 310q-184 0 -341 -118q-157 -117 -246 -311t-89 -422t131 -380t340 -152q272 0 486 330h8l-78 -289q-70 -35 -192 -61
t-234 -25z" />
    <glyph glyph-name="D" unicode="D" horiz-adv-x="1544" 
d="M586 55q322 -1 526 225t205 562q0 231 -133 373t-357 143h-262l-237 -1303h258zM569 0h-589l2 8q110 29 150 79t67 192l157 856q12 75 12 133t-29 88q-30 30 -106 49l3 8h593q297 0 491 -161t193 -435q1 -193 -75 -349q-143 -297 -505 -414q-171 -54 -364 -54z" />
    <glyph glyph-name="E" unicode="E" horiz-adv-x="1157" 
d="M852 1358h-287l-110 -604h276q70 0 113 26t104 105h8l-57 -316h-8q-33 76 -67 103t-105 26h-277l-116 -643h344q94 0 149 43t217 224h8l-100 -322h-962l2 8q106 29 148 80t69 191l157 856q28 165 -19 217q-30 33 -103 53l2 8h907l-53 -289h-9q-51 154 -88 194t-143 40z
" />
    <glyph glyph-name="F" unicode="F" horiz-adv-x="1124" 
d="M897 1358h-338l-113 -615h326q74 0 114 27t105 107h8l-57 -322h-8q-35 80 -67 107t-105 26h-326l-76 -409q-12 -67 -12 -125t37 -91t133 -55l-2 -8h-541l2 8q109 29 150 79t68 192l157 856q12 70 12 126t-30 90q-31 34 -105 54l2 8h949l-54 -289h-8q-57 158 -89 196
t-132 38z" />
    <glyph glyph-name="G" unicode="G" horiz-adv-x="1505" 
d="M734 -31q-263 0 -442 175t-179 446q0 184 78 347q150 309 493 442q160 63 296 63t270 -25q132 -25 192 -51l-51 -276h-9q-100 305 -384 305t-486 -250q-203 -250 -203 -582q0 -240 130 -386q129 -146 323 -146t321 57l64 340q12 66 12 122t-31 90q-31 36 -104 58l2 9h467
l-2 -9q-82 -29 -119 -80t-61 -190l-68 -373q-246 -86 -509 -86z" />
    <glyph glyph-name="H" unicode="H" horiz-adv-x="1630" 
d="M373 1268q0 50 -31 82t-106 55l2 8h510l-3 -8q-111 -29 -153 -78t-66 -182l-71 -385h792l76 414q8 44 8 94t-31 82t-106 55l2 8h510l-2 -8q-111 -29 -154 -78t-67 -182l-160 -877q-12 -68 -12 -122q-1 -54 29 -86t108 -52l-2 -8h-508l2 8q109 29 151 78t66 182l78 426
h-793l-77 -426q-13 -68 -13 -122t30 -86t107 -52l-2 -8h-505l2 8q106 29 148 78t67 182l166 906q8 44 8 94z" />
    <glyph glyph-name="I" unicode="I" horiz-adv-x="673" 
d="M487 0h-505l2 8q106 29 148 78t67 182l161 877q12 67 12 121t-30 86q-31 32 -106 53l2 8h510l-3 -8q-111 -29 -153 -78t-66 -182l-161 -877q-13 -68 -13 -122t31 -86t106 -52z" />
    <glyph glyph-name="J" unicode="J" horiz-adv-x="665" 
d="M393 1272q0 51 -31 82t-106 51l2 8h510l-2 -8q-111 -29 -153 -79t-68 -191l-199 -1088q-40 -219 -173 -329q-67 -54 -117 -82t-132 -64l-2 6q197 127 246 399l211 1158q14 86 14 137z" />
    <glyph glyph-name="K" unicode="K" horiz-adv-x="1441" 
d="M1382 0h-516l2 8q49 10 72 18q57 19 57 81q0 63 -94 249l-209 410l-286 -248l-46 -250q-10 -52 -10 -114t28 -94t107 -52l-2 -8h-510l2 8q109 29 150 78t66 182l161 877q26 157 -17 206q-28 32 -108 54l2 8h512l-2 -8q-111 -29 -153 -78t-66 -182l-100 -543l514 457
q203 180 203 258q0 55 -103 88l2 8h514l-2 -8q-119 -33 -209 -93t-299 -243l-219 -190l269 -523q104 -205 152 -262t138 -86v-8z" />
    <glyph glyph-name="L" unicode="L" horiz-adv-x="1107" 
d="M664 55q70 1 140 55t206 212h8l-98 -322h-947l2 8q109 27 152 80t66 180l161 877q12 63 12 117t-30 88q-31 33 -107 55l2 8h510l-2 -8q-109 -27 -153 -80t-66 -180l-201 -1090h345z" />
    <glyph glyph-name="M" unicode="M" horiz-adv-x="1888" 
d="M219 144q0 -60 28 -89t95 -47l-2 -8h-403l2 8q109 31 151 105t107 323l165 651q31 127 31 181t-26 84q-27 31 -88 53l2 8h333l260 -1190l730 1190h323l-2 -8q-111 -41 -149 -102t-58 -242l-71 -627q-23 -190 -23 -263t25 -105t92 -60l-2 -6h-475l2 8q118 35 150 98
t61 300l100 829l-766 -1245h-57l-271 1247h-8l-199 -801q-57 -232 -57 -292z" />
    <glyph glyph-name="N" unicode="N" horiz-adv-x="1595" 
d="M258 178q0 -78 26 -114t89 -56l-2 -8h-394l3 8q104 33 147 107t86 311l135 733q18 106 -19 162q-38 55 -136 84l2 8h342l731 -1171l137 745q31 168 31 248t-26 114t-89 56l2 8h395l-2 -8q-106 -33 -149 -107t-86 -311l-187 -1007h-75l-781 1255l-149 -809
q-31 -170 -31 -248z" />
    <glyph glyph-name="O" unicode="O" horiz-adv-x="1597" 
d="M297 531q-1 -225 109 -371t298 -146t342 124q153 124 238 322q86 198 86 420t-113 370q-113 146 -300 146t-337 -120q-150 -121 -237 -320q-86 -199 -86 -425zM1563 815q0 -176 -77 -337q-146 -306 -475 -444q-153 -65 -304 -65q-248 0 -427 170t-180 441q0 180 80 344
q152 312 480 452q153 66 298 66q240 0 422 -176t183 -451z" />
    <glyph glyph-name="P" unicode="P" horiz-adv-x="1212" 
d="M-25 0v4q2 2 2 4q109 29 150 79t68 192l157 856q14 72 14 128t-30 88q-31 32 -107 54l2 8h580q201 0 313 -90t113 -248q0 -123 -48 -211t-132 -136q-163 -93 -387 -91h-240l-68 -363q-10 -54 -10 -118t37 -96t131 -52v-4l-2 -4h-543zM647 690q193 0 301 110t109 287
q0 123 -74 197t-217 74h-205l-123 -668h209z" />
    <glyph glyph-name="Q" unicode="Q" horiz-adv-x="1622" 
d="M297 531q-1 -225 109 -371t298 -146t342 124q153 124 238 322q86 198 86 420t-113 370q-113 146 -300 146t-337 -120q-150 -121 -237 -320q-86 -199 -86 -425zM1845 -489q-151 1 -373 77t-477 250l-198 137q-41 -6 -88 -6q-252 0 -430 169t-179 440q0 180 80 345
q151 311 482 453q152 66 296 66q240 0 422 -176t182 -460t-190 -508q-192 -224 -459 -300q347 -182 609 -264t520 -82q162 0 309 43l-2 -8q-72 -59 -213 -117t-291 -59z" />
    <glyph glyph-name="R" unicode="R" horiz-adv-x="1320" 
d="M1167 0q-163 0 -205 26t-106 160l-217 455h-199l-65 -362q-15 -81 -15 -135t29 -85t109 -51l-2 -8h-510l2 8q110 29 150 79t67 192l157 856q38 156 -15 215q-30 33 -107 55l2 8h563q203 0 319 -91t115 -243q0 -152 -92 -251q-74 -76 -216 -120q-54 -17 -126 -34l231 -436
q70 -133 113 -172t135 -58l-2 -8h-115zM645 694q164 0 289 104t125 287q0 125 -75 199t-214 74h-199l-120 -664h194z" />
    <glyph glyph-name="S" unicode="S" horiz-adv-x="1024" 
d="M443 14q120 0 214 81t95 212q0 86 -56 163q-55 77 -133 137q-77 61 -155 123t-134 146t-55 177q0 182 141 285q272 199 668 18l-51 -277h-8q-35 150 -122 233t-201 83t-194 -73t-79 -187q0 -69 40 -133t100 -111t130 -103t130 -109q60 -52 100 -127t40 -159
q1 -197 -149 -311t-354 -113q-96 1 -204 25t-169 57l61 340h8q31 -197 124 -287t213 -90z" />
    <glyph glyph-name="T" unicode="T" horiz-adv-x="1314" 
d="M809 0h-510l2 8q111 29 153 80t68 191l197 1079h-223q-47 0 -90 -35q-42 -35 -106 -101t-72 -72q-8 -8 -18 -20q-11 -12 -22 -22h-8l96 305h1074l-15 -305h-8q-77 161 -115 205q-37 45 -84 45h-243l-197 -1079q-25 -141 -2 -191t123 -80v-8z" />
    <glyph glyph-name="U" unicode="U" horiz-adv-x="1562" 
d="M1364 1237q0 72 -26 108t-89 60l2 8h391l-2 -8q-104 -33 -147 -109t-86 -309l-113 -606q-37 -197 -184 -305q-146 -108 -386 -107q-240 0 -374 88q-133 88 -133 254q0 63 19 162l124 672q12 70 12 120t-30 84q-31 34 -106 56l2 8h512l-2 -8q-109 -27 -152 -79t-66 -181
l-129 -699q-14 -72 -14 -149q0 -252 352 -252q190 0 322 89q131 89 162 253l110 600q31 178 31 250z" />
    <glyph glyph-name="V" unicode="V" horiz-adv-x="1400" 
d="M487 1241q0 -76 50 -377l120 -719l390 725q190 352 190 445q0 37 -25 56t-82 34l3 8h421l-2 -8q-98 -37 -171 -130t-251 -413l-485 -876h-123l-151 874q-57 326 -92 419t-121 126l2 8h473l-2 -8q-82 -18 -113 -53t-31 -111z" />
    <glyph glyph-name="W" unicode="W" horiz-adv-x="2004" 
d="M639 1413v-8q-90 -25 -119 -70q-28 -45 -28 -174t12 -293l57 -716l348 718q154 319 154 414q0 47 -29 74t-92 47l2 8h457l-2 -8q-88 -25 -118 -69t-30 -152t21 -318l69 -700l347 704q160 322 161 424q0 45 -25 69q-26 24 -85 42l2 8h424l-2 -8q-68 -25 -112 -68
t-104 -144t-178 -331l-444 -876h-115l-106 1118l-555 -1118h-125l-80 874q-30 318 -55 399q-26 80 -52 104t-73 42l2 8h473z" />
    <glyph glyph-name="X" unicode="X" horiz-adv-x="1376" 
d="M893 125q0 41 -37 119l-190 387l-201 -230q-217 -246 -217 -313q0 -27 24 -43t80 -35l-2 -10h-436l2 8q96 35 168 97t283 292l268 295l-229 471q-48 101 -98 153t-136 89l2 8h524l-2 -10q-82 -20 -118 -47t-35 -70q0 -43 35 -117l178 -364l186 223q109 130 153 194t44 97
t-23 50t-74 34l2 10h431l-2 -8q-103 -39 -177 -101t-258 -272l-252 -287l244 -495q53 -111 98 -159t134 -83l-2 -8h-521l2 10q82 26 117 50t35 65z" />
    <glyph glyph-name="Y" unicode="Y" horiz-adv-x="1280" 
d="M514 1280q0 -60 82 -281l117 -317l229 330q174 252 174 313q0 31 -23 48q-24 17 -75 32l2 8h403l-2 -8q-75 -12 -159 -95t-242 -304l-275 -383l-63 -344q-14 -77 -14 -129t30 -87t105 -55l-2 -8h-510l2 8q106 27 151 84t68 187l63 339l-135 375q-88 240 -142 318t-126 94
l2 8h459l-2 -8q-61 -12 -89 -38q-28 -27 -28 -87z" />
    <glyph glyph-name="Z" unicode="Z" horiz-adv-x="1148" 
d="M520 1358q-68 0 -124 -42t-201 -192h-9l95 289h952l-2 -8l-1030 -1350h508q67 1 133 53t200 214h9l-99 -322h-999l2 8l1038 1350h-473z" />
    <glyph glyph-name="bracketleft" unicode="[" horiz-adv-x="776" 
d="M516 -287h-405l346 1835h405l-12 -57h-254l-322 -1720h254z" />
    <glyph glyph-name="backslash" unicode="\" horiz-adv-x="811" 
d="M668 -31h-84l-422 1473h84z" />
    <glyph glyph-name="bracketright" unicode="]" horiz-adv-x="776" 
d="M334 -287h-404l11 58h254l321 1720h-254l12 57h406z" />
    <glyph glyph-name="asciicircum" unicode="^" horiz-adv-x="860" 
d="M717 928h-39l-170 372l-315 -372h-43l303 485h135z" />
    <glyph glyph-name="underscore" unicode="_" horiz-adv-x="942" 
d="M776 -305h-788l26 137h791z" />
    <glyph glyph-name="grave" unicode="`" horiz-adv-x="481" 
d="M424 1163h-10q-244 88 -330 250h182q19 -137 158 -250z" />
    <glyph glyph-name="a" unicode="a" horiz-adv-x="1173" 
d="M655 1018q-145 0 -265 -205t-120 -460t150 -255q135 0 311 207l111 643q-86 70 -187 70zM721 1069q69 0 201 -33q33 0 90 33h12l-147 -819q-10 -53 -11 -76q0 -80 54 -80q72 1 178 62v-9q-58 -69 -140 -119t-143 -50t-84 37q-36 60 -12 221q-80 -104 -180 -182t-198 -79
q-99 1 -171 93t-72 263t87 342t233 283t303 113z" />
    <glyph glyph-name="b" unicode="b" horiz-adv-x="1146" 
d="M442 29q199 0 331 179t132 417q0 166 -67 260q-68 94 -172 94t-234 -94l-145 -807q74 -49 155 -49zM752 1069q141 0 237 -113q96 -112 96 -284t-94 -333t-249 -262t-318 -102q-68 0 -165 19t-148 39l204 1132q15 86 15 134t-34 81t-122 64v8q164 8 367 92h8l-113 -626
q54 61 140 106t176 45z" />
    <glyph glyph-name="c" unicode="c" horiz-adv-x="860" 
d="M422 -25q-135 0 -227 111t-93 297q0 279 178 483t386 203q82 0 134 -34t52 -92t-33 -93t-78 -35t-75 25t-29 70q0 60 35 91q8 8 12 15l6 4q0 4 -8 4q-164 0 -285 -162t-121 -424q0 -176 65 -260t169 -84q148 0 295 164l12 -14q-55 -100 -157 -184t-238 -85z" />
    <glyph glyph-name="d" unicode="d" horiz-adv-x="1185" 
d="M264 356q0 -126 42 -192t114 -66q160 0 334 221l110 642q-27 20 -84 38t-106 19q-156 0 -283 -205t-127 -457zM838 -27q-109 0 -109 146q0 45 14 135q-85 -111 -193 -195t-207 -84q-99 1 -176 93t-77 261t89 342t239 285t305 113q59 0 158 -20l26 149q11 58 11 116
t-34 84t-126 46v8q207 16 366 92h9l-234 -1294q-10 -57 -10 -86q0 -70 53 -70q65 1 178 62v-9q-158 -174 -282 -174z" />
    <glyph glyph-name="e" unicode="e" horiz-adv-x="937" 
d="M733 874q0 72 -37 110t-96 38q-118 0 -218 -154t-110 -364q231 4 346 114t115 256zM430 -25q-142 0 -236 119t-94 307q0 258 173 463t376 205q100 0 170 -54t70 -155q0 -178 -183 -289q-152 -88 -436 -104q0 -185 71 -279t183 -94q166 0 307 166l13 -14
q-53 -100 -162 -186q-110 -86 -252 -85z" />
    <glyph glyph-name="f" unicode="f" horiz-adv-x="638" 
d="M684 1544q116 0 172 -46t55 -104q1 -58 -29 -84q-30 -28 -74 -28t-76 27t-32 75q0 80 93 113q-23 8 -56 8q-88 -2 -150 -81t-95 -271l-19 -109h232l-11 -69h-231l-170 -981q-62 -353 -414 -486l-2 11q80 47 143 155t89 240l186 1061h-197l31 69h176l14 80q41 228 145 324
t220 96z" />
    <glyph glyph-name="g" unicode="g" horiz-adv-x="919" 
d="M430 375q114 0 180 138t66 312q0 89 -40 145t-101 56q-109 0 -178 -141t-68 -293q-1 -100 35 -158t106 -59zM340 -444q127 0 238 55t110 160q0 63 -40 97t-136 66l-272 86q-221 -92 -222 -247q0 -97 98 -157t224 -60zM274 -492q-144 0 -281 74q-138 74 -138 178
q0 174 348 277q-88 45 -88 113q0 111 196 204q-186 66 -186 252t118 324t289 139q50 0 130 -35t116 -35q84 0 129 24t90 79q39 -47 39 -89t-26 -70t-68 -28q-41 0 -170 41q70 -80 70 -200q0 -164 -123 -291t-295 -127q-41 0 -76 8q-94 -66 -94 -121t68 -75l215 -64
q149 -45 215 -101q66 -55 66 -153t-84 -176t-200 -113t-260 -35z" />
    <glyph glyph-name="h" unicode="h" horiz-adv-x="1187" 
d="M831 1069q89 0 141 -61t52 -172q0 -45 -14 -121l-90 -465q-10 -57 -11 -88q0 -72 54 -72q61 1 176 62v-9q-59 -65 -137 -117t-146 -53q-111 0 -111 144q0 59 21 162l88 442q12 74 12 100q0 143 -114 144q-141 0 -318 -170l-145 -795h-164l207 1151q22 117 22 167t-32 78
q-33 28 -121 48l2 8q203 16 358 92h8l-125 -686q84 86 190 148t197 63z" />
    <glyph glyph-name="i" unicode="i" horiz-adv-x="618" 
d="M557 1339q0 -45 -32 -77q-33 -32 -77 -31q-44 0 -76 32q-32 31 -32 77t32 78t77 32t77 -33t31 -78zM274 -27q-88 1 -105 93t15 213l107 536q27 133 -47 133q-66 0 -176 -59v8q59 66 136 119t135 53q106 0 117 -99q9 -85 -16 -206l-108 -539q-27 -135 49 -135q59 1 174 62
v-9q-154 -170 -281 -170z" />
    <glyph glyph-name="j" unicode="j" horiz-adv-x="591" 
d="M365 1065q104 0 104 -141q0 -53 -18 -160l-136 -770q-63 -356 -393 -486l-2 11q76 45 134 151t83 244l160 877q10 39 8 99t-53 58q-63 0 -174 -59v8q55 66 139 117t148 51zM567 1339q-1 -45 -33 -77t-77 -31q-45 0 -77 32q-32 33 -32 77t32 77t78 33t78 -33t31 -78z" />
    <glyph glyph-name="k" unicode="k" horiz-adv-x="1036" 
d="M338 1314q0 54 -32 82t-118 48l2 8q203 16 359 92h8l-281 -1544h-161l213 1198q10 62 10 116zM806 -27q-68 -1 -112 49q-43 50 -108 201l-150 344q242 111 432 281q-40 8 -66 42t-26 74t34 72t81 33q47 0 82 -34t35 -85q0 -88 -168 -202q-61 -41 -248 -152l172 -338
q47 -92 81 -131t79 -39t137 49l2 -8q-43 -61 -116 -109t-141 -47z" />
    <glyph glyph-name="l" unicode="l" horiz-adv-x="604" 
d="M141 117q0 51 19 162l164 919q12 62 12 116t-32 82t-120 48v8q199 16 361 92h8l-236 -1294q-12 -57 -12 -78q0 -82 57 -82q66 1 175 62v-9q-55 -61 -135 -115t-144 -55q-117 0 -117 144z" />
    <glyph glyph-name="m" unicode="m" horiz-adv-x="1769" 
d="M299 877q0 72 -53 71q-66 0 -176 -59v8q162 172 278 172q111 0 111 -143q0 -45 -10 -111q79 102 189 178t204 76q184 0 184 -264q76 106 188 185t207 79q93 0 143 -60t50 -173q0 -57 -12 -121l-78 -424q-53 -201 35 -201q63 1 174 62l2 -9q-59 -65 -137 -117t-146 -53
q-111 0 -111 146q0 70 19 160l86 442q10 57 10 94q0 150 -108 150q-143 0 -324 -220l-133 -745h-156l131 721q8 47 8 92q0 152 -108 152q-74 1 -161 -59t-163 -152l-137 -754h-160l138 750q2 20 9 64t7 63z" />
    <glyph glyph-name="n" unicode="n" horiz-adv-x="1187" 
d="M295 877q0 72 -55 71q-63 0 -174 -59v8q158 172 280 172q113 0 113 -143q0 -43 -8 -84q227 227 397 227q96 0 142 -62t46 -146t-12 -146l-90 -465q-10 -57 -10 -88q0 -72 53 -72q63 1 174 62l2 -9q-158 -170 -285 -170q-109 0 -108 142q0 74 12 133l98 473q10 43 11 96
q0 147 -119 148q-141 0 -318 -172l-143 -793h-160l144 791q10 57 10 86z" />
    <glyph glyph-name="o" unicode="o" horiz-adv-x="1089" 
d="M455 -25q-158 0 -267 129t-108 324q0 242 174 442t379 199q157 0 265 -128t108 -320q0 -248 -170 -447t-381 -199zM260 352q0 -154 56 -244t148 -90q91 0 162 68q120 115 178 406t-37 444q-57 90 -157 90t-183 -106t-125 -260t-42 -308z" />
    <glyph glyph-name="p" unicode="p" horiz-adv-x="1169" 
d="M479 27q125 0 232 93q106 93 162 231q57 138 57 288t-69 243t-172 93t-232 -90q-7 -55 -27 -166l-121 -643q94 -49 170 -49zM-88 -471v8q84 29 119 75t59 171l197 1040q4 33 4 56q0 70 -55 69q-63 0 -175 -59v8q156 172 285 172q111 0 111 -147q156 147 307 147
q150 0 248 -115q98 -116 98 -286t-92 -331t-244 -261t-313 -101q-59 0 -166 17l-31 -168q-40 -190 10 -240q26 -27 99 -47v-4l-2 -4h-459z" />
    <glyph glyph-name="q" unicode="q" horiz-adv-x="1130" 
d="M264 350q0 -120 43 -186t115 -66q149 0 321 207l121 653q-25 18 -87 38t-105 22q-156 0 -282 -205t-126 -463zM907 -471h-456l2 6q96 29 135 80t65 192l78 426q-80 -100 -185 -179t-204 -79q-100 1 -176 93t-76 261t89 342t239 285t305 113q104 0 215 -33l104 33
l-223 -1262q-12 -67 -12 -125t21 -92q22 -33 79 -53v-8z" />
    <glyph glyph-name="r" unicode="r" horiz-adv-x="817" 
d="M293 883q0 66 -51 65q-61 0 -181 -80v9q57 72 135 132t144 60q111 0 111 -143q0 -51 -19 -154q154 297 299 297q51 0 88 -33t37 -80q0 -46 -30 -76t-74 -30t-78 32q-33 32 -35 79q-113 -68 -225 -320l-115 -641h-164l146 791q12 74 12 92z" />
    <glyph glyph-name="s" unicode="s" horiz-adv-x="792" 
d="M162 776q0 143 102 218t216 75t198 -52t84 -126q0 -47 -31 -78t-76 -31t-75 29t-29 72q0 43 29 75t67 35q-49 33 -141 33t-150 -50t-59 -124q0 -74 40 -126q40 -54 98 -98q57 -44 115 -90q138 -110 138 -249t-109 -227q-110 -87 -242 -87q-132 -1 -222 63t-90 144
q0 47 31 82q32 35 80 35t80 -30q32 -31 32 -77t-30 -79t-68 -37q18 -20 66 -38t120 -20q72 0 140 52q69 52 69 154q0 101 -135 209q-55 44 -112 91q-56 47 -96 113t-40 139z" />
    <glyph glyph-name="t" unicode="t" horiz-adv-x="636" 
d="M381 98q74 0 197 66v-8q-52 -62 -146 -122t-162 -61q-119 0 -118 152q0 47 18 154l123 688h-184l-3 18q20 7 70 25t62 24q14 6 46 28t47 48q55 97 81 180h98l-47 -246h252l-8 -73h-254l-129 -721q-8 -53 -9 -70q0 -82 66 -82z" />
    <glyph glyph-name="u" unicode="u" 
d="M373 -27q-190 0 -191 238q0 51 13 117l88 463q10 61 10 94q-2 66 -57 65q-61 0 -173 -59v8q55 61 135 115t142 55q115 0 115 -151q0 -47 -19 -154l-86 -445q-8 -45 -8 -106q0 -131 102 -131q70 0 160 61t168 152l135 749h162l-145 -794q-12 -57 -13 -78q0 -78 54 -78
q74 1 178 60v-9q-55 -61 -135 -116t-142 -56q-115 0 -114 140q0 51 12 123q-78 -100 -191 -182t-200 -81z" />
    <glyph glyph-name="v" unicode="v" horiz-adv-x="1069" 
d="M334 1069q111 0 110 -143q0 -59 -18 -162l-86 -483q-8 -53 -8 -74q0 -125 119 -125t227 124t165 288q58 164 58 299q0 61 -16 98q-37 -37 -91 -37t-86 28t-32 74t32 79q32 34 94 34t112 -68t50 -215t-73 -336q-74 -188 -215 -332t-303 -145q-83 1 -141 51t-58 160
q0 52 8 95l90 512q10 57 11 88q0 70 -54 69q-61 0 -178 -61v8q164 174 283 174z" />
    <glyph glyph-name="w" unicode="w" horiz-adv-x="1613" 
d="M172 170q0 43 10 109l90 512q8 45 9 86q0 72 -52 71q-61 0 -178 -61v8q164 174 283 174q109 0 108 -149q0 -68 -16 -156l-86 -485q-8 -41 -8 -82q0 -109 100 -109q164 0 256 240q75 191 121 444l41 219h154l-125 -712q-35 -197 116 -197q119 0 227 128t164 293
q57 165 58 296q0 57 -14 92q-36 -37 -90 -37t-87 30t-33 74t31 78q31 33 91 33t113 -68q54 -69 54 -193t-45 -267q-103 -327 -310 -483q-114 -85 -236 -85q-84 1 -142 51t-57 158q0 48 10 105h-8q-150 -313 -375 -314q-74 0 -124 46t-50 151z" />
    <glyph glyph-name="x" unicode="x" horiz-adv-x="1024" 
d="M301 80q0 -43 -34 -73t-84 -30t-87 28t-37 83t63 131q62 76 124 131q167 147 211 176l-125 289q-59 137 -127 137q-49 0 -154 -57v8q49 68 114 117t127 49t100 -50t100 -202l81 -201q178 154 242 234q-43 12 -74 42t-31 73t32 73t83 31q51 0 87 -30t36 -75t-22 -89
t-142 -145q-119 -100 -188 -161l131 -309q39 -92 70 -132t77 -40t160 59l2 -8q-53 -69 -123 -115t-119 -46q-82 -1 -129 84q-76 138 -188 417q-203 -156 -295 -282q45 -4 82 -39t37 -78z" />
    <glyph glyph-name="y" unicode="y" horiz-adv-x="974" 
d="M831 864v17q-25 -29 -69 -29t-76 32q-33 32 -33 77t30 77t75 31q143 0 143 -176q0 -113 -101 -353t-210 -436q-334 -596 -570 -596q-70 0 -108 37t-39 82q0 45 30 76q31 31 75 31t76 -36t34 -104q152 51 338 340q-25 275 -73 529q-91 481 -201 481q-51 0 -156 -55v8
q145 172 274 172q72 0 113 -98q41 -99 90 -359t72 -487q286 553 286 739z" />
    <glyph glyph-name="z" unicode="z" horiz-adv-x="851" 
d="M596 -20q-38 0 -255 10q-216 10 -366 10v8l707 903h-317q-101 0 -139 -9t-85 -56h-16l57 198h678v-8l-710 -909q258 0 368 9t163 34q52 25 99 86l15 -2q-9 -18 -27 -68t-31 -76q-38 -89 -71 -110q-32 -20 -70 -20z" />
    <glyph glyph-name="braceleft" unicode="{" horiz-adv-x="638" 
d="M346 -66q0 -190 139 -221l-2 -8q-141 15 -213 73t-71 187q0 59 12 131l31 168q18 111 18 172q0 162 -145 180l2 17q102 12 150 80q19 27 42 61t45 128q21 93 25 115t14 78t15 74q37 201 136 280t277 95l-2 -8q-199 -41 -258 -371l-29 -159q-51 -291 -329 -381
q90 -33 143 -107t55 -180q0 -45 -10 -102l-31 -160q-14 -74 -14 -142z" />
    <glyph glyph-name="bar" unicode="|" horiz-adv-x="411" 
d="M102 -236h-77l325 1780h80z" />
    <glyph glyph-name="braceright" unicode="}" horiz-adv-x="638" 
d="M307 911q0 53 8 103l31 160q14 74 14 141q0 193 -139 221l2 8q141 -14 213 -74t72 -188q0 -57 -12 -129l-31 -168q-19 -102 -19 -175t32 -120t114 -57l-2 -17q-119 -14 -172 -106t-86 -262l-33 -168q-39 -201 -137 -280t-275 -95l2 8q205 45 258 371l27 160
q25 147 115 243t217 138q-199 68 -199 286z" />
    <glyph glyph-name="asciitilde" unicode="~" horiz-adv-x="1167" 
d="M768 481q-68 1 -204 59t-193 58t-113 -33t-82 -67l-39 32q131 184 297 185q76 1 214 -57t188 -58t110 35q61 35 84 70l33 -31q-137 -193 -295 -193z" />
    <glyph glyph-name="exclamdown" unicode="&#xa1;" horiz-adv-x="512" 
d="M335 1069q50 0 87 -36t37 -86t-37 -87t-87 -37t-86 37t-36 87t36 86t86 36zM279 668h16q-15 -132 -33 -448t-45 -507q-6 -57 -43 -86t-84 -28q-102 0 -88 122q11 91 132 479q122 388 145 468z" />
    <glyph glyph-name="cent" unicode="&#xa2;" horiz-adv-x="1167" 
d="M545 281l170 899q-143 -35 -249 -190t-108 -384q1 -262 187 -325zM678 264q54 0 133 36q78 36 127 83l14 -12q-172 -207 -366 -226q-8 -41 -22 -121t-23 -120h-66q8 41 23 121q14 80 22 118q-143 8 -245 126q-101 118 -101 304q0 257 170 441t379 215l37 194h65l-34 -188
q95 0 163 -42q68 -43 68 -101t-34 -92t-78 -34t-74 26q-30 24 -29 80q0 56 51 99q0 14 -49 15l-27 2q-59 -307 -174 -922q16 -2 70 -2z" />
    <glyph glyph-name="sterling" unicode="&#xa3;" horiz-adv-x="1110" 
d="M700 0h-700v4q2 2 2 4q168 113 262 245t94 308q0 29 -10 146h-201l13 59h180q-10 60 -10 166t45 212q79 186 270 263q82 33 164 33q135 0 213 -62t78 -130q0 -66 -32 -97t-74 -31t-70 27t-29 72q0 109 113 108q-61 68 -179 68q-153 1 -229 -105t-88 -289q0 -55 16 -235
h379l-12 -59h-365v-31q0 -309 -311 -526h494q106 0 143 20t64 84h8q0 -138 -72 -196t-156 -58z" />
    <glyph glyph-name="currency" unicode="&#xa4;" horiz-adv-x="1167" 
d="M608 307q164 -1 270 115t107 281q0 165 -121 292t-285 127q-165 0 -273 -116t-108 -283q0 -168 123 -292t287 -124zM614 207q-188 0 -307 104l-108 -116l-109 104l109 117q-115 131 -115 315t90 287l-121 110l101 107l116 -113q119 100 298 100t313 -100l106 113
l107 -107l-105 -110q113 -124 113 -310t-88 -292l116 -117l-98 -104l-114 116q-116 -104 -304 -104z" />
    <glyph glyph-name="yen" unicode="&#xa5;" horiz-adv-x="1167" 
d="M467 1290q0 -55 72 -291l96 -313h4l213 326q90 138 126 204t36 102t-25 54t-80 33l2 8h408l-2 -8q-74 -12 -154 -93t-233 -306l-219 -322h252l-13 -66h-282l-33 -180h280l-12 -65h-280l-19 -94q-12 -67 -12 -123t31 -92t106 -56l-2 -8h-516l2 8q109 27 156 85t69 186
l17 94h-299l12 65h299l35 180h-299l12 66h266l-94 309q-93 311 -171 374q-32 26 -81 38l2 8h449l-2 -8q-63 -12 -90 -36t-27 -79z" />
    <glyph glyph-name="brokenbar" unicode="&#xa6;" horiz-adv-x="417" 
d="M279 788h-78l141 756h78zM86 -236h-76l142 756h77z" />
    <glyph glyph-name="section" unicode="&#xa7;" horiz-adv-x="1052" 
d="M258 817q0 -84 88 -158l354 -307q62 20 96 74t34 110t-93 134l-362 307q-43 -19 -80 -63t-37 -97zM264 1198q0 106 82 174t209 68q51 0 104 -13q129 -31 212 -107t83 -159q0 -53 -34 -84t-84 -31q-49 0 -88 36q-39 34 -39 81t28 78q29 31 74 31q12 0 37 -4
q-47 46 -116 74q-70 28 -138 28t-122 -34t-54 -95q0 -86 149 -211l283 -231q137 -113 137 -227t-82 -170t-180 -78q94 -102 94 -215t-99 -187t-248 -74q-148 0 -272 106t-124 214q0 53 34 88t89 35t96 -38t41 -97t-41 -89t-96 -30h-13q45 -53 125 -88t158 -35t140 42
q63 42 63 108t-56 121q-18 20 -61 59l-334 305q-57 51 -84 97t-26 110q0 184 241 241q-88 96 -88 201z" />
    <glyph glyph-name="dieresis" unicode="&#xa8;" horiz-adv-x="684" 
d="M618 1227q-44 1 -74 31t-30 72t31 73t73 31t73 -31q30 -31 30 -73t-30 -72t-73 -31zM323 1434q43 0 73 -31t30 -73t-30 -72t-73 -31q-42 1 -73 31t-31 72t31 73t73 31z" />
    <glyph glyph-name="copyright" unicode="&#xa9;" horiz-adv-x="1630" 
d="M831 1110q-129 0 -201 -106t-71 -280q0 -174 95 -296q95 -121 250 -121t249 148q6 0 6 -115q-119 -94 -303 -94t-322 130t-138 338t135 328q136 120 311 119q125 0 252 -51q4 -123 8 -184h-8q-56 102 -116 143t-147 41zM800 1358q-255 0 -421 -186t-166 -452
q-1 -265 185 -468t442 -203q256 1 422 187t166 450t-187 468q-186 204 -441 204zM796 1436q298 0 516 -224t218 -526q0 -303 -194 -508t-492 -205q-299 -1 -516 223t-217 527t193 508q194 205 492 205z" />
    <glyph glyph-name="ordfeminine" unicode="&#xaa;" horiz-adv-x="751" 
d="M700 530h-618l10 72h621zM266 958q0 -162 78 -161q76 -1 170 108l74 441q-49 31 -92 30q-88 0 -159 -128t-71 -290zM504 797q0 29 4 61q-133 -143 -203 -143t-124 59t-54 166q0 170 124 322t275 151q51 0 121 -20l84 26l-90 -530q-6 -27 -6 -61t24 -33q41 -1 107 32
l12 -6q-98 -109 -186 -109t-88 85z" />
    <glyph glyph-name="guillemotleft" unicode="&#xab;" horiz-adv-x="946" 
d="M473 205h-18l-396 338l521 340h18l-336 -348zM811 272h-8l-322 271l418 272h10l-252 -280z" />
    <glyph glyph-name="logicalnot" unicode="&#xac;" horiz-adv-x="1167" 
d="M944 141h-131l70 373h-721l24 127h852z" />
    <glyph glyph-name="registered" unicode="&#xae;" horiz-adv-x="1630" 
d="M819 705q90 0 140 53q51 53 51 137t-54 146t-149 63h-123l16 -399h119zM1212 254h-155l-240 397h-112l10 -231q4 -94 31 -119q11 -10 49 -39v-8h-275v8q47 31 59 56q11 26 9 102l-27 571q-4 66 -19 98t-61 62v8h328q147 0 240 -68q92 -69 92 -190q-1 -90 -59 -149
t-140 -84l270 -406v-8zM840 49q256 1 422 187t165 450q0 264 -186 468t-441 204t-421 -186t-166 -452q0 -265 185 -468q186 -203 442 -203zM844 -29q-298 1 -516 225q-217 224 -217 527t193 508q194 205 492 205t516 -224t218 -526q0 -303 -194 -509t-492 -206z" />
    <glyph glyph-name="macron" unicode="&#xaf;" horiz-adv-x="571" 
d="M649 1243h-504l17 92h504z" />
    <glyph glyph-name="degree" unicode="&#xb0;" horiz-adv-x="835" 
d="M440 862q98 0 161 71q62 71 63 173q0 102 -62 173t-162 71q-98 0 -159 -71t-61 -173t60 -173q62 -71 160 -71zM776 1106q0 -138 -98 -234t-236 -96t-235 96q-98 96 -98 234t98 233q98 97 235 97q138 0 236 -96t98 -234z" />
    <glyph glyph-name="plusminus" unicode="&#xb1;" horiz-adv-x="1167" 
d="M1001 545h-360l-70 -373h-131l70 373h-360l24 127h361l69 372h131l-69 -372h360zM901 0h-852l25 127h852z" />
    <glyph glyph-name="twosuperior" unicode="&#xb2;" horiz-adv-x="806" 
d="M641 1212q0 66 -45 110q-44 44 -110 44t-138 -31q35 -12 62 -43q26 -30 26 -72t-30 -70t-75 -28q-46 0 -77 33t-31 78q-1 78 97 135t223 57t197 -55t71 -141q0 -57 -35 -113t-74 -89q-38 -34 -118 -95t-119 -94l-215 -185h450l-20 -121h-586l8 50l299 276
q240 221 240 354z" />
    <glyph glyph-name="threesuperior" unicode="&#xb3;" horiz-adv-x="806" 
d="M752 864q0 -156 -134 -251t-288 -95q-98 0 -157 38q-58 38 -58 89t31 81q32 30 76 30t73 -27t29 -73t-68 -97q12 -4 57 -4q106 0 192 70q85 70 85 200q0 84 -55 130t-129 46q-10 0 -44 -4l-10 9l264 274h-380l24 133h547l-2 -8l-277 -287q94 -14 159 -84t65 -170z" />
    <glyph glyph-name="acute" unicode="&#xb4;" horiz-adv-x="489" 
d="M195 1163h-11q137 115 154 250h188q-87 -162 -331 -250z" />
    <glyph glyph-name="mu" unicode="&#xb5;" 
d="M361 -27q-99 0 -142 82q0 -14 -4 -35v-8q0 -70 18 -194t19 -162q0 -147 -109 -148q-44 0 -64 28q-21 28 -21 48t10 76l200 1067q25 92 25 159t-55 66q-59 0 -175 -61v8q55 61 135 115t142 55q115 0 115 -141q0 -57 -19 -164l-86 -445q-10 -51 -10 -88q0 -154 106 -153
q70 0 159 61t167 156l135 747h162l-139 -755q-16 -86 -17 -123q0 -70 54 -70q72 1 176 60v-9q-55 -61 -135 -116t-142 -56q-115 0 -114 140q0 55 12 123q-78 -100 -191 -182t-212 -81z" />
    <glyph glyph-name="paragraph" unicode="&#xb6;" horiz-adv-x="1077" 
d="M139 1038q-1 145 97 260t266 115h639l-2 -8q-98 -41 -115 -135l-326 -1741h-94l338 1796h-340l-338 -1796h-92l240 1276q-137 1 -205 65t-68 168z" />
    <glyph glyph-name="periodcentered" unicode="&#xb7;" horiz-adv-x="456" 
d="M237 610q-50 0 -86 36t-36 86t36 86t86 36t86 -36q35 -36 35 -86t-36 -86t-85 -36z" />
    <glyph glyph-name="cedilla" unicode="&#xb8;" horiz-adv-x="489" 
d="M104 -381q60 0 104 28t44 77q0 48 -57 74t-119 28l166 174h57l-88 -104q61 -6 113 -48t53 -106q0 -90 -80 -130t-177 -40t-163 53l29 23q58 -29 118 -29z" />
    <glyph glyph-name="onesuperior" unicode="&#xb9;" horiz-adv-x="806" 
d="M500 670q0 -54 22 -82t84 -47l-2 -9h-436l2 9q96 29 135 79t66 191l82 436q-104 -20 -197 -26l-4 10q186 55 373 201h8l-117 -621q-16 -87 -16 -141z" />
    <glyph glyph-name="ordmasculine" unicode="&#xba;" horiz-adv-x="817" 
d="M707 539h-633l12 63h633zM424 748q74 0 128 80q95 142 95 343q0 91 -31 149t-92 58q-100 0 -162 -135t-63 -289q0 -206 125 -206zM418 715q-117 0 -191 80t-73 202q0 162 115 289q116 127 263 127q111 0 187 -78t76 -198q1 -166 -113 -294t-264 -128z" />
    <glyph glyph-name="guillemotright" unicode="&#xbb;" horiz-adv-x="946" 
d="M874 543l-487 -338h-18l305 346l-246 332h18zM453 543l-394 -271h-8l228 279l-181 264h8z" />
    <glyph glyph-name="onequarter" unicode="&#xbc;" horiz-adv-x="1986" 
d="M1765 0h-274q53 45 73 89q19 44 40 153h-443l2 4v4l649 651h56l-107 -575h133l-14 -84h-135q-17 -92 -17 -140t37 -102zM1686 686l-363 -360h297q10 59 33 180t33 180zM440 -96h-96l1288 1595h94zM168 532v5l2 4q96 29 135 79t66 191q53 291 82 436q-104 -20 -197 -26
l-4 10q186 55 373 201h8l-117 -621q-2 -19 -9 -65t-7 -88t22 -70t84 -47v-4l-2 -5h-436z" />
    <glyph glyph-name="onehalf" unicode="&#xbd;" horiz-adv-x="1986" 
d="M168 532v5l2 4q96 29 135 79t66 191q53 291 82 436q-104 -20 -197 -26l-4 10q186 55 373 201h8l-117 -621q-2 -19 -9 -65t-7 -88t22 -70t84 -47v-4l-2 -5h-436zM440 -96h-96l1288 1595h94zM1614 834q-65 0 -139 -31q37 -12 63 -43t27 -73q0 -42 -31 -70q-31 -27 -77 -27
t-77 33t-30 77q0 78 98 136t222 57q124 0 196 -55t71 -142q-1 -57 -35 -112t-72 -89q-38 -33 -119 -95t-118 -95l-215 -184h451l-23 -121h-585l10 49l297 277q242 225 241 354q0 66 -45 110t-110 44z" />
    <glyph glyph-name="threequarters" unicode="&#xbe;" horiz-adv-x="1986" 
d="M1686 686l-363 -360h297q10 59 33 180t33 180zM440 -96h-96l1288 1595h94zM752 864q0 -156 -134 -251t-288 -95q-98 0 -157 38q-58 38 -58 89t31 81q32 30 70 30t73 -29t35 -61q0 -55 -68 -107q12 -4 57 -4q106 0 192 70q85 70 85 200q0 84 -55 130t-129 46q-10 0 -44 -4
l-10 9l264 274h-380l24 133h547v-4l-2 -4l-277 -287q94 -14 159 -84t65 -170zM1765 0h-274q53 45 73 89q19 44 40 153h-443l2 4v4l649 651h56l-107 -575h133l-14 -84h-135q-17 -92 -17 -140t37 -102z" />
    <glyph glyph-name="questiondown" unicode="&#xbf;" horiz-adv-x="950" 
d="M603 825q-50 0 -86 36t-36 86t36 86t86 36t86 -36t36 -86t-36 -86t-86 -36zM522 -89q0 56 34 89t86 33t88 -37t36 -90q0 -104 -125 -204t-283 -101q-158 1 -246 79q-89 78 -89 216q0 185 175 355q68 67 138 131q175 162 215 298h14q-17 -114 -81 -224t-128 -184
t-114 -173q-52 -99 -52 -205t67 -165q67 -58 163 -59q135 0 248 119q-61 0 -104 33q-42 33 -42 89z" />
    <glyph glyph-name="Agrave" unicode="&#xc0;" horiz-adv-x="1400" 
d="M1034 1532h-10q-244 88 -330 250h183q18 -137 157 -250zM915 569l-118 699l-373 -699h491zM819 0v4l2 4q82 18 115 53t33 116t-43 333h-533q-176 -332 -176 -414q0 -37 26 -56t83 -32q0 -2 -2 -8h-420q0 2 2 8q68 25 114 68q95 90 306 475l485 876h123l149 -874
q55 -324 91 -418t122 -127q0 -2 -2 -8h-475z" />
    <glyph glyph-name="Aacute" unicode="&#xc1;" horiz-adv-x="1400" 
d="M766 1532h-10q137 115 153 250h189q-88 -162 -332 -250zM915 569l-118 699l-373 -699h491zM819 0v4l2 4q82 18 115 53t33 116t-43 333h-533q-176 -332 -176 -414q0 -37 26 -56t83 -32q0 -2 -2 -8h-420q0 2 2 8q68 25 114 68q95 90 306 475l485 876h123l149 -874
q55 -324 91 -418t122 -127q0 -2 -2 -8h-475z" />
    <glyph glyph-name="Acircumflex" unicode="&#xc2;" horiz-adv-x="1400" 
d="M1090 1532h-17q-168 117 -186 131q-172 -90 -254 -131h-17l226 250h108q120 -213 140 -250zM915 569l-118 699l-373 -699h491zM819 0v4l2 4q82 18 115 53t33 116t-43 333h-533q-176 -332 -176 -414q0 -37 26 -56t83 -32q0 -2 -2 -8h-420q0 2 2 8q68 25 114 68
q95 90 306 475l485 876h123l149 -874q55 -324 91 -418t122 -127q0 -2 -2 -8h-475z" />
    <glyph glyph-name="Atilde" unicode="&#xc3;" horiz-adv-x="1400" 
d="M980 1614q-54 0 -137 35t-112 34q-88 0 -131 -71l-16 4q23 49 81 106q59 58 123 58t147 -32t116 -32q90 0 131 74l16 -4q-35 -77 -99 -124q-65 -48 -119 -48zM915 569l-118 699l-373 -699h491zM819 0v4l2 4q82 18 115 53t33 116t-43 333h-533q-176 -332 -176 -414
q0 -37 26 -56t83 -32q0 -2 -2 -8h-420q0 2 2 8q68 25 114 68q95 90 306 475l485 876h123l149 -874q55 -324 91 -418t122 -127q0 -2 -2 -8h-475z" />
    <glyph glyph-name="Adieresis" unicode="&#xc4;" horiz-adv-x="1400" 
d="M831 1699q-1 -42 -31 -73t-73 -31t-73 31t-30 73t30 73q30 30 73 30t74 -30q30 -31 30 -73zM1126 1699q0 -42 -30 -73t-73 -31q-42 0 -73 31q-30 31 -30 73t30 73q31 30 73 30t73 -30q30 -31 30 -73zM915 569l-118 699l-373 -699h491zM819 0v4l2 4q82 18 115 53t33 116
t-43 333h-533q-176 -332 -176 -414q0 -37 26 -56t83 -32q0 -2 -2 -8h-420q0 2 2 8q68 25 114 68q95 90 306 475l485 876h123l149 -874q55 -324 91 -418t122 -127q0 -2 -2 -8h-475z" />
    <glyph glyph-name="Aring" unicode="&#xc5;" horiz-adv-x="1400" 
d="M870 1360q59 0 101 43q41 43 41 102t-41 103t-101 43q-60 0 -100 -43q-41 -42 -41 -102t41 -103t100 -43zM915 569l-118 699l-373 -699h491zM969 177q0 81 -43 333h-533q-176 -332 -176 -414q0 -37 26 -56t83 -32l-2 -8h-420l2 8q68 25 114 68q95 90 306 475l430 780
q-98 61 -98 161t62 160q64 62 150 62t150 -61t63 -136t-37 -127t-94 -75l131 -762q57 -326 93 -419t120 -126l-2 -8h-475l2 8q82 18 115 53t33 116z" />
    <glyph glyph-name="AE" unicode="&#xc6;" horiz-adv-x="1878" 
d="M954 569l144 789h-13q-315 -434 -579 -789h448zM211 90q0 -57 84 -82l-2 -8h-414l2 8q95 36 199 142t326 401l436 584q76 102 76 146t-28 66q-28 23 -56 31t-95 27l2 8h1104l-53 -289h-8q-45 142 -86 188t-125 46h-305l-109 -604h273q68 0 112 28t105 103h8l-58 -316h-8
q-33 74 -69 102q-37 28 -103 27h-272l-119 -643h356q78 0 137 46q58 46 216 221h8l-100 -322h-967l2 8q111 29 153 80t68 191l41 221h-485q-133 -176 -189 -268t-57 -142z" />
    <glyph glyph-name="Ccedilla" unicode="&#xc7;" horiz-adv-x="1409" 
d="M649 -379q62 0 106 28t44 76q1 47 -57 73t-119 28l137 143q-264 0 -457 175t-192 454q0 156 57 295q102 249 348 399t496 150q106 0 225 -26t176 -54l-49 -275h-8q-72 309 -373 310q-270 0 -473 -244t-203 -580q0 -241 129 -399t342 -158q275 0 486 328h8
q-12 -47 -39 -143t-39 -146q-141 -72 -373 -84l-61 -75q59 -6 111 -48q53 -42 53 -105q0 -62 -47 -104q-75 -67 -191 -67q-117 0 -182 53l28 23q55 -27 117 -27z" />
    <glyph glyph-name="Egrave" unicode="&#xc8;" horiz-adv-x="1157" 
d="M915 1532h-10q-244 88 -330 250h185q14 -133 155 -250zM-18 0q0 2 2 8q106 29 148 80t69 191q96 518 157 856q28 165 -19 217q-30 33 -103 53l2 4v4h907q-16 -96 -53 -289h-9q-51 154 -88 194t-143 40h-287l-110 -604h276q70 0 113 26t104 105h8q-41 -229 -57 -316h-8
q-33 76 -67 103t-105 26h-277l-116 -643h344q94 0 149 43t217 224h8l-100 -322h-962z" />
    <glyph glyph-name="Eacute" unicode="&#xc9;" horiz-adv-x="1157" 
d="M655 1532h-10q135 113 154 250h186q-84 -160 -330 -250zM-18 0q0 2 2 8q106 29 148 80t69 191q96 518 157 856q28 165 -19 217q-30 33 -103 53l2 4v4h907q-16 -96 -53 -289h-9q-51 154 -88 194t-143 40h-287l-110 -604h276q70 0 113 26t104 105h8q-41 -229 -57 -316h-8
q-33 76 -67 103t-105 26h-277l-116 -643h344q94 0 149 43t217 224h8l-100 -322h-962z" />
    <glyph glyph-name="Ecircumflex" unicode="&#xca;" horiz-adv-x="1157" 
d="M985 1532h-16q-168 117 -187 131q-172 -90 -254 -131h-16l225 250h109q119 -213 139 -250zM-18 0q0 2 2 8q106 29 148 80t69 191q96 518 157 856q28 165 -19 217q-30 33 -103 53l2 4v4h907q-16 -96 -53 -289h-9q-51 154 -88 194t-143 40h-287l-110 -604h276q70 0 113 26
t104 105h8q-41 -229 -57 -316h-8q-33 76 -67 103t-105 26h-277l-116 -643h344q94 0 149 43t217 224h8l-100 -322h-962z" />
    <glyph glyph-name="Edieresis" unicode="&#xcb;" horiz-adv-x="1157" 
d="M719 1699q0 -42 -31 -73t-74 -31q-42 0 -72 31t-30 73t30 73q30 30 72 30t74 -30q31 -30 31 -73zM1014 1699q0 -42 -31 -73t-73 -31t-72 31t-31 73q0 42 31 73q30 30 72 30t73 -30t31 -73zM-18 0q0 2 2 8q106 29 148 80t69 191q96 518 157 856q28 165 -19 217
q-30 33 -103 53l2 4v4h907q-16 -96 -53 -289h-9q-51 154 -88 194t-143 40h-287l-110 -604h276q70 0 113 26t104 105h8q-41 -229 -57 -316h-8q-33 76 -67 103t-105 26h-277l-116 -643h344q94 0 149 43t217 224h8l-100 -322h-962z" />
    <glyph glyph-name="Igrave" unicode="&#xcc;" horiz-adv-x="673" 
d="M664 1532h-11q-244 88 -329 250h182q19 -137 158 -250zM-18 0q0 2 2 8q106 29 148 78t67 182l161 877q12 67 12 121t-30 86q-31 32 -106 53l2 4v4h510l-3 -4v-4q-111 -29 -153 -78t-66 -182l-161 -877q-13 -68 -13 -122t31 -86t106 -52q0 -2 -2 -8h-505z" />
    <glyph glyph-name="Iacute" unicode="&#xcd;" horiz-adv-x="673" 
d="M418 1532h-10q135 113 153 250h187q-84 -160 -330 -250zM-18 0q0 2 2 8q106 29 148 78t67 182l161 877q12 67 12 121t-30 86q-31 32 -106 53l2 4v4h510l-3 -4v-4q-111 -29 -153 -78t-66 -182l-161 -877q-13 -68 -13 -122t31 -86t106 -52q0 -2 -2 -8h-505z" />
    <glyph glyph-name="Icircumflex" unicode="&#xce;" horiz-adv-x="673" 
d="M745 1532h-16l-188 131q-84 -45 -252 -131h-17l226 250h108q20 -37 139 -250zM-18 0q0 2 2 8q106 29 148 78t67 182l161 877q12 67 12 121t-30 86q-31 32 -106 53l2 4v4h510l-3 -4v-4q-111 -29 -153 -78t-66 -182l-161 -877q-13 -68 -13 -122t31 -86t106 -52q0 -2 -2 -8
h-505z" />
    <glyph glyph-name="Idieresis" unicode="&#xcf;" horiz-adv-x="673" 
d="M392 1595q-42 0 -73 31t-31 73t31 73q31 30 73 30t73 -30t31 -73q0 -42 -31 -73t-73 -31zM688 1595q-43 0 -74 31q-30 31 -30 73t30 73q31 30 74 30t73 -30t30 -73q0 -42 -30 -73t-73 -31zM-18 0q0 2 2 8q106 29 148 78t67 182l161 877q12 67 12 121t-30 86
q-31 32 -106 53l2 4v4h510l-3 -4v-4q-111 -29 -153 -78t-66 -182l-161 -877q-13 -68 -13 -122t31 -86t106 -52q0 -2 -2 -8h-505z" />
    <glyph glyph-name="Eth" unicode="&#xd0;" horiz-adv-x="1521" 
d="M586 55q322 -1 526 225t205 562q0 231 -133 373t-357 143h-262l-108 -602h280l-12 -60h-281l-116 -641h258zM569 0h-589l2 8q110 29 150 79t67 192l75 417h-174l13 60h174l69 379q14 72 14 128t-30 88q-31 32 -107 54l3 8h593q299 0 494 -162t195 -426t-132 -452
q-132 -189 -346 -281q-213 -92 -471 -92z" />
    <glyph glyph-name="Ntilde" unicode="&#xd1;" horiz-adv-x="1595" 
d="M1116 1614q-66 0 -149 35q-82 35 -113 34q-90 0 -129 -71l-16 4q33 73 97 119q64 45 118 45t136 -32q83 -32 114 -32q90 0 131 74l16 -4q-23 -52 -81 -112t-124 -60zM1294 -20h-75l-781 1255l-149 -809q-41 -238 -26 -312t110 -106l-2 -8h-394l3 8q104 33 147 107t86 311
l143 780q12 61 -29 119q-42 57 -134 80l2 8h342l731 -1171l137 745q29 162 31 242t-24 117t-91 59l2 8h395l-2 -8q-106 -33 -149 -107t-86 -311z" />
    <glyph glyph-name="Ograve" unicode="&#xd2;" horiz-adv-x="1597" 
d="M1120 1532h-10q-244 88 -330 250h183q18 -137 157 -250zM934 1397q-232 0 -417 -223t-214 -535q-31 -266 80 -445t332 -180q250 0 434 226t215 534q29 266 -84 444q-114 178 -346 179zM104 653q16 166 101 317q158 283 472 412q144 59 281 60q258 0 444 -199t157 -502
q-21 -217 -153 -397t-318 -277t-381 -98q-266 1 -449 193t-154 491z" />
    <glyph glyph-name="Oacute" unicode="&#xd3;" horiz-adv-x="1597" 
d="M868 1532h-10q137 115 154 250h188q-88 -162 -332 -250zM934 1397q-232 0 -417 -223t-214 -535q-31 -266 80 -445t332 -180q250 0 434 226t215 534q29 266 -84 444q-114 178 -346 179zM104 653q16 166 101 317q158 283 472 412q144 59 281 60q258 0 444 -199t157 -502
q-21 -217 -153 -397t-318 -277t-381 -98q-266 1 -449 193t-154 491z" />
    <glyph glyph-name="Ocircumflex" unicode="&#xd4;" horiz-adv-x="1597" 
d="M1212 1532h-16l-186 131l-254 -131h-17l226 250h108zM934 1397q-232 0 -417 -223t-214 -535q-31 -266 80 -445t332 -180q250 0 434 226t215 534q29 266 -84 444q-114 178 -346 179zM104 653q16 166 101 317q158 283 472 412q144 59 281 60q258 0 444 -199t157 -502
q-21 -217 -153 -397t-318 -277t-381 -98q-266 1 -449 193t-154 491z" />
    <glyph glyph-name="Otilde" unicode="&#xd5;" horiz-adv-x="1597" 
d="M1086 1614q-54 0 -137 35t-111 34q-88 0 -131 -71l-17 4q23 49 81 106q59 58 123 58t148 -32t115 -32q90 0 131 74l17 -4q-35 -77 -99 -124q-66 -48 -120 -48zM934 1397q-232 0 -417 -223t-214 -535q-31 -266 80 -445t332 -180q250 0 434 226t215 534q29 266 -84 444
q-114 178 -346 179zM104 653q16 166 101 317q158 283 472 412q144 59 281 60q258 0 444 -199t157 -502q-21 -217 -153 -397t-318 -277t-381 -98q-266 1 -449 193t-154 491z" />
    <glyph glyph-name="Odieresis" unicode="&#xd6;" horiz-adv-x="1597" 
d="M1135 1595q-43 0 -74 31t-31 73t31 73q31 30 74 30t73 -30t29 -73q1 -42 -29 -73t-73 -31zM942 1699q0 -42 -30 -73t-73 -31q-42 0 -73 31t-31 73t31 73q31 30 73 30q43 0 73 -30t30 -73zM934 1397q-232 0 -417 -223t-214 -535q-31 -266 80 -445t332 -180q250 0 434 226
t215 534q29 266 -84 444q-114 178 -346 179zM104 653q16 166 101 317q158 283 472 412q144 59 281 60q258 0 444 -199t157 -502q-21 -217 -153 -397t-318 -277t-381 -98q-266 1 -449 193t-154 491z" />
    <glyph glyph-name="multiply" unicode="&#xd7;" horiz-adv-x="1167" 
d="M895 201l-287 286l-284 -286l-91 90l285 287l-285 284l91 90l284 -284l287 284l90 -90l-287 -284l287 -287z" />
    <glyph glyph-name="Oslash" unicode="&#xd8;" horiz-adv-x="1597" 
d="M1370 864q0 208 -88 346l-866 -1056q111 -140 295 -140t336 123t237 321q86 198 86 406zM946 1397q-244 0 -429 -223q-220 -265 -220 -639q0 -191 80 -328l866 1059q-115 131 -297 131zM100 580q0 180 80 344q151 309 480 452q151 66 294 66q186 0 342 -111l123 148
l54 -35l-125 -150q215 -184 215 -481q0 -176 -78 -336q-149 -306 -474 -443q-153 -65 -300 -65q-197 0 -357 111l-127 -152l-49 39l127 150q-205 174 -205 463z" />
    <glyph glyph-name="Ugrave" unicode="&#xd9;" horiz-adv-x="1562" 
d="M1133 1532h-11q-244 88 -329 250h184q15 -133 156 -250zM1364 1237q0 72 -26 108t-89 60v4l2 4h391v-4l-2 -4q-104 -33 -147 -109t-86 -309l-113 -606q-37 -197 -184 -305q-146 -108 -386 -107q-240 0 -374 88q-133 88 -133 254q0 29 2 43v27l17 92q25 123 65 352
q41 229 56 309t15 131q0 50 -30 84q-31 34 -106 56l2 4v4h512v-4l-2 -4q-109 -27 -152 -79t-66 -181q-149 -801 -149 -848q0 -121 90 -187t274 -65q184 0 316 89q131 89 162 253l110 600q31 178 31 250z" />
    <glyph glyph-name="Uacute" unicode="&#xda;" horiz-adv-x="1562" 
d="M848 1532h-10q137 115 153 250h189q-88 -162 -332 -250zM1364 1237q0 72 -26 108t-89 60v4l2 4h391v-4l-2 -4q-104 -33 -147 -109t-86 -309l-113 -606q-37 -197 -184 -305q-146 -108 -386 -107q-240 0 -374 88q-133 88 -133 254q0 29 2 43v27l17 92q25 123 65 352
q41 229 56 309t15 131q0 50 -30 84q-31 34 -106 56l2 4v4h512v-4l-2 -4q-109 -27 -152 -79t-66 -181q-149 -801 -149 -848q0 -121 90 -187t274 -65q184 0 316 89q131 89 162 253l110 600q31 178 31 250z" />
    <glyph glyph-name="Ucircumflex" unicode="&#xdb;" horiz-adv-x="1562" 
d="M1200 1532h-16q-168 117 -187 131q-172 -90 -254 -131h-16l225 250h109q119 -213 139 -250zM1364 1237q0 72 -26 108t-89 60v4l2 4h391v-4l-2 -4q-104 -33 -147 -109t-86 -309l-113 -606q-37 -197 -184 -305q-146 -108 -386 -107q-240 0 -374 88q-133 88 -133 254
q0 29 2 43v27l17 92q25 123 65 352q41 229 56 309t15 131q0 50 -30 84q-31 34 -106 56l2 4v4h512v-4l-2 -4q-109 -27 -152 -79t-66 -181q-149 -801 -149 -848q0 -121 90 -187t274 -65q184 0 316 89q131 89 162 253l110 600q31 178 31 250z" />
    <glyph glyph-name="Udieresis" unicode="&#xdc;" horiz-adv-x="1562" 
d="M940 1699q0 -42 -31 -73t-73 -31t-73 31q-30 31 -30 73t30 73q30 30 73 30q44 0 74 -30t30 -73zM1235 1699q0 -42 -31 -73t-73 -31q-43 0 -73 31t-30 73t31 73q31 30 73 30t72 -30q31 -30 31 -73zM1364 1237q0 72 -26 108t-89 60v4l2 4h391v-4l-2 -4q-104 -33 -147 -109
t-86 -309l-113 -606q-37 -197 -184 -305q-146 -108 -386 -107q-240 0 -374 88q-133 88 -133 254q0 29 2 43v27l17 92q25 123 65 352q41 229 56 309t15 131q0 50 -30 84q-31 34 -106 56l2 4v4h512v-4l-2 -4q-109 -27 -152 -79t-66 -181q-149 -801 -149 -848q0 -121 90 -187
t274 -65q184 0 316 89q131 89 162 253l110 600q31 178 31 250z" />
    <glyph glyph-name="Yacute" unicode="&#xdd;" horiz-adv-x="1280" 
d="M702 1532h-10q137 115 154 250h188q-88 -162 -332 -250zM514 1280q0 -60 82 -281l117 -317l229 330q174 248 174 313q0 31 -23 48q-24 17 -75 32l2 8h403l-2 -8q-73 -10 -155 -92t-246 -307l-275 -383l-63 -344q-14 -77 -14 -129t30 -87t105 -55l-2 -8h-510l2 8
q106 27 151 84t68 187l63 339l-135 375q-90 242 -143 319t-125 93l2 8h459l-2 -8q-61 -12 -89 -38q-28 -27 -28 -87z" />
    <glyph glyph-name="Thorn" unicode="&#xde;" horiz-adv-x="1204" 
d="M586 383q182 0 293 103t110 313q0 121 -70 184q-71 63 -206 64h-211l-123 -664h207zM360 1262q0 62 -29 93q-30 30 -106 50l2 8h512l-2 -8q-117 -29 -159 -86t-66 -217h244q198 0 308 -85t110 -225q0 -265 -186 -371q-165 -93 -376 -91h-243l-9 -51q-12 -61 -12 -124
t37 -95t131 -52l-2 -8h-543l2 8q109 29 150 79t67 192l160 866q10 55 10 117z" />
    <glyph glyph-name="germandbls" unicode="&#xdf;" horiz-adv-x="1177" 
d="M195 993l90 19q33 174 91 274q58 99 111 148q119 110 299 110q133 0 214 -73t81 -183q0 -70 -40 -138t-82 -104q-41 -36 -119 -94t-101 -78v-8q351 -166 348 -405q0 -213 -180 -347t-407 -139l6 29q170 12 286 122t115 277q0 242 -358 388l-4 12q174 84 274 215t101 276
q0 94 -40 144t-110 49q-110 0 -192 -111t-121 -332l-185 -1050q-63 -352 -411 -486l-2 11q79 49 145 157t88 238l129 754q33 166 33 222t-59 103z" />
    <glyph glyph-name="agrave" unicode="&#xe0;" horiz-adv-x="1173" 
d="M887 1163h-10q-213 92 -328 250h172q47 -160 166 -250zM655 1018q-145 0 -265 -205t-120 -460t150 -255q135 0 311 207l111 643q-86 70 -187 70zM721 1069q69 0 201 -33q33 0 90 33h12l-147 -819q-10 -53 -11 -76q0 -80 54 -80q72 1 178 62v-9q-58 -69 -140 -119
t-143 -50t-84 37q-36 60 -12 221q-80 -104 -180 -182t-198 -79q-99 1 -171 93t-72 263t87 342t233 283t303 113z" />
    <glyph glyph-name="aacute" unicode="&#xe1;" horiz-adv-x="1173" 
d="M637 1163h-10q119 90 166 250h172q-115 -158 -328 -250zM655 1018q-145 0 -265 -205t-120 -460t150 -255q135 0 311 207l111 643q-86 70 -187 70zM721 1069q69 0 201 -33q33 0 90 33h12l-147 -819q-10 -53 -11 -76q0 -80 54 -80q72 1 178 62v-9q-58 -69 -140 -119
t-143 -50t-84 37q-36 60 -12 221q-80 -104 -180 -182t-198 -79q-99 1 -171 93t-72 263t87 342t233 283t303 113z" />
    <glyph glyph-name="acircumflex" unicode="&#xe2;" horiz-adv-x="1173" 
d="M975 1163h-17l-186 131l-254 -131h-16l225 250h109zM655 1018q-145 0 -265 -205t-120 -460t150 -255q135 0 311 207l111 643q-86 70 -187 70zM721 1069q69 0 201 -33q33 0 90 33h12l-147 -819q-10 -53 -11 -76q0 -80 54 -80q72 1 178 62v-9q-58 -69 -140 -119t-143 -50
t-84 37q-36 60 -12 221q-80 -104 -180 -182t-198 -79q-99 1 -171 93t-72 263t87 342t233 283t303 113z" />
    <glyph glyph-name="atilde" unicode="&#xe3;" horiz-adv-x="1173" 
d="M588 1325q-37 1 -70 -23t-45 -57l-16 4q10 29 25 59q16 30 64 66t101 37q53 0 143 -27t125 -26q88 0 117 74l17 -5q-57 -162 -195 -161q-47 0 -138 30t-128 29zM655 1018q-145 0 -265 -205t-120 -460t150 -255q135 0 311 207l111 643q-86 70 -187 70zM721 1069
q69 0 201 -33q33 0 90 33h12l-147 -819q-10 -53 -11 -76q0 -80 54 -80q72 1 178 62v-9q-58 -69 -140 -119t-143 -50t-84 37q-36 60 -12 221q-80 -104 -180 -182t-198 -79q-99 1 -171 93t-72 263t87 342t233 283t303 113z" />
    <glyph glyph-name="adieresis" unicode="&#xe4;" horiz-adv-x="1173" 
d="M711 1331q0 -39 -29 -67t-68 -29q-40 0 -68 29q-28 30 -28 68t29 67t67 29t68 -30q29 -28 29 -67zM1006 1331q0 -39 -29 -67t-68 -29q-39 0 -67 29q-28 30 -29 68q0 38 29 67q30 29 68 29t67 -30q29 -28 29 -67zM655 1018q-145 0 -265 -205t-120 -460t150 -255
q135 0 311 207l111 643q-86 70 -187 70zM721 1069q69 0 201 -33q33 0 90 33h12l-147 -819q-10 -53 -11 -76q0 -80 54 -80q72 1 178 62v-9q-58 -69 -140 -119t-143 -50t-84 37q-36 60 -12 221q-80 -104 -180 -182t-198 -79q-99 1 -171 93t-72 263t87 342t233 283t303 113z
" />
    <glyph glyph-name="aring" unicode="&#xe5;" horiz-adv-x="1173" 
d="M754 1210q63 0 106 45t43 111t-43 111t-106 45q-64 0 -108 -45t-44 -111t44 -111t108 -45zM967 1366q1 -86 -63 -147t-150 -61t-150 60q-64 62 -63 148q0 86 63 147q64 61 150 61t150 -60q64 -62 63 -148zM655 1018q-145 0 -265 -205t-120 -460t150 -255q135 0 311 207
l111 643q-86 70 -187 70zM721 1069q69 0 201 -33q33 0 90 33h12l-147 -819q-10 -53 -11 -76q0 -80 54 -80q72 1 178 62v-9q-58 -69 -140 -119t-143 -50t-84 37q-36 60 -12 221q-80 -104 -180 -182t-198 -79q-99 1 -171 93t-72 263t87 342t233 283t303 113z" />
    <glyph glyph-name="ae" unicode="&#xe6;" horiz-adv-x="1579" 
d="M1241 1022q-115 0 -215 -156t-111 -362q238 33 350 133q111 101 111 243t-135 142zM670 1018q-156 0 -278 -204t-122 -460t150 -256q82 0 173 87t163 223q4 83 16 153l72 404q-78 53 -174 53zM1163 94q173 0 310 166l14 -14q-53 -98 -162 -184t-241 -87t-216 91t-106 247
q-90 -139 -202 -238t-214 -99t-176 92q-72 92 -72 263t87 342t233 283t303 113q86 0 197 -33l88 33h8l-29 -137q147 137 301 137q106 0 176 -54t70 -157q0 -307 -619 -391l2 -43q6 -158 75 -244t173 -86z" />
    <glyph glyph-name="ccedilla" unicode="&#xe7;" horiz-adv-x="860" 
d="M312 -381q60 0 103 28q44 28 44 77q1 48 -57 74t-119 28l141 149q-143 4 -233 113q-89 109 -89 295q0 279 178 483t386 203q82 0 134 -34t52 -92t-33 -93t-78 -35t-75 25t-29 70q0 60 35 91q8 8 12 15l6 4q0 4 -8 4q-164 0 -285 -162t-121 -424q0 -176 65 -260t169 -84
q147 0 295 164l12 -14q-47 -88 -133 -166t-195 -96l-71 -86q61 -6 113 -48t53 -106q0 -90 -80 -130t-177 -40t-163 53l29 23q59 -29 119 -29z" />
    <glyph glyph-name="egrave" unicode="&#xe8;" horiz-adv-x="937" 
d="M805 1163h-10q-244 88 -330 250h182q19 -137 158 -250zM733 874q0 72 -37 110t-96 38q-119 0 -218 -155t-110 -363q231 4 346 114t115 256zM524 94q166 0 307 166l13 -14q-53 -100 -162 -186q-110 -86 -252 -85q-142 0 -236 119t-94 307q0 258 173 463t376 205
q100 0 170 -54t70 -155q0 -178 -183 -289q-152 -88 -436 -104l2 -43q8 -164 77 -247t175 -83z" />
    <glyph glyph-name="eacute" unicode="&#xe9;" horiz-adv-x="937" 
d="M510 1163h-10q137 115 153 250h189q-88 -162 -332 -250zM733 874q0 72 -37 110t-96 38q-119 0 -218 -155t-110 -363q231 4 346 114t115 256zM524 94q166 0 307 166l13 -14q-53 -100 -162 -186q-110 -86 -252 -85q-142 0 -236 119t-94 307q0 258 173 463t376 205
q100 0 170 -54t70 -155q0 -178 -183 -289q-152 -88 -436 -104l2 -43q8 -164 77 -247t175 -83z" />
    <glyph glyph-name="ecircumflex" unicode="&#xea;" horiz-adv-x="937" 
d="M877 1163h-17l-188 131l-252 -131h-17l226 250h108zM733 874q0 72 -37 110t-96 38q-119 0 -218 -155t-110 -363q231 4 346 114t115 256zM524 94q166 0 307 166l13 -14q-53 -100 -162 -186q-110 -86 -252 -85q-142 0 -236 119t-94 307q0 258 173 463t376 205
q100 0 170 -54t70 -155q0 -178 -183 -289q-152 -88 -436 -104l2 -43q8 -164 77 -247t175 -83z" />
    <glyph glyph-name="edieresis" unicode="&#xeb;" horiz-adv-x="937" 
d="M805 1227q-43 1 -74 31t-31 72t31 73t74 31t73 -31t30 -73t-30 -73q-30 -30 -73 -30zM509 1227q-42 1 -73 31q-30 30 -30 72t30 73q31 31 73 31t73 -31q30 -31 30 -73t-30 -73q-31 -30 -73 -30zM733 874q0 72 -37 110t-96 38q-119 0 -218 -155t-110 -363q231 4 346 114
t115 256zM524 94q166 0 307 166l13 -14q-53 -100 -162 -186q-110 -86 -252 -85q-142 0 -236 119t-94 307q0 258 173 463t376 205q100 0 170 -54t70 -155q0 -178 -183 -289q-152 -88 -436 -104l2 -43q8 -164 77 -247t175 -83z" />
    <glyph glyph-name="igrave" unicode="&#xec;" horiz-adv-x="618" 
d="M580 1163h-11q-244 88 -329 250h182q19 -137 158 -250zM164 117q0 72 18 162l105 512q10 57 10 86q0 72 -53 71q-66 0 -176 -59v8q57 63 136 117t140 55q115 0 115 -145q0 -76 -19 -160l-104 -514q-10 -57 -10 -88q0 -72 55 -72q57 1 174 62v-9q-55 -61 -133 -115
t-141 -55q-117 0 -117 144z" />
    <glyph glyph-name="iacute" unicode="&#xed;" horiz-adv-x="618" 
d="M268 1163h-10q135 113 154 250h186q-84 -160 -330 -250zM164 117q0 72 18 162l105 512q10 57 10 86q0 72 -53 71q-66 0 -176 -59v8q57 63 136 117t140 55q115 0 115 -145q0 -76 -19 -160l-104 -514q-10 -57 -10 -88q0 -72 55 -72q57 1 174 62v-9q-55 -61 -133 -115
t-141 -55q-117 0 -117 144z" />
    <glyph glyph-name="icircumflex" unicode="&#xee;" horiz-adv-x="618" 
d="M606 1163h-16l-189 131q-84 -45 -251 -131h-17l225 250h109q20 -37 139 -250zM164 117q0 72 18 162l105 512q10 57 10 86q0 72 -53 71q-66 0 -176 -59v8q57 63 136 117t140 55q115 0 115 -145q0 -76 -19 -160l-104 -514q-10 -57 -10 -88q0 -72 55 -72q57 1 174 62v-9
q-55 -61 -133 -115t-141 -55q-117 0 -117 144z" />
    <glyph glyph-name="idieresis" unicode="&#xef;" horiz-adv-x="618" 
d="M278 1434q42 0 72 -31t31 -73q-1 -42 -31 -72t-72 -31q-42 1 -73 31t-31 72t31 73t73 31zM573 1227q-43 1 -73 31t-31 72q0 42 31 73q32 31 74 31t72 -31t30 -73t-30 -72t-73 -31zM164 117q0 72 18 162l105 512q10 57 10 86q0 72 -53 71q-66 0 -176 -59v8q57 63 136 117
t140 55q115 0 115 -145q0 -76 -19 -160l-104 -514q-10 -57 -10 -88q0 -72 55 -72q57 1 174 62v-9q-55 -61 -133 -115t-141 -55q-117 0 -117 144z" />
    <glyph glyph-name="eth" unicode="&#xf0;" horiz-adv-x="1089" 
d="M262 354q0 -154 56 -245t160 -91t188 116q159 220 159 561q0 151 -55 241q-54 90 -156 90t-186 -108t-125 -258q-41 -152 -41 -306zM82 426v23q0 229 174 425t373 195q80 0 143 -47q-55 158 -197 330l-190 -78l-27 51l177 72q-25 29 -74 80t-64 67h13q109 -70 178 -125
l205 84l28 -51l-182 -76q371 -326 371 -721q0 -270 -169 -475t-380 -205q-160 0 -270 128q-109 128 -109 323z" />
    <glyph glyph-name="ntilde" unicode="&#xf1;" horiz-adv-x="1187" 
d="M539 1315q-90 0 -129 -72l-17 4q33 75 111 128q51 36 104 36t136 -32t114 -31q90 -1 131 73l17 -4q-23 -51 -81 -111t-125 -60t-149 34q-82 35 -112 35zM295 877q0 72 -55 71q-63 0 -174 -59v8q158 172 280 172q113 0 113 -143q0 -43 -8 -84q227 227 397 227
q96 0 142 -62q46 -63 46 -147t-12 -145l-90 -465q-10 -57 -10 -88q0 -72 53 -72q63 0 174 62v-5l2 -4q-158 -170 -285 -170q-109 0 -108 142q0 113 26 231t60 262q33 145 35 209q0 147 -119 148q-141 0 -318 -172l-143 -793h-160l144 791q10 57 10 86z" />
    <glyph glyph-name="ograve" unicode="&#xf2;" horiz-adv-x="1089" 
d="M817 1163h-10q-244 88 -330 250h182q19 -137 158 -250zM1008 621v-25q-12 -236 -178 -428t-373 -193q-158 0 -267 129t-108 324v25q0 225 175 421t378 195q157 1 265 -127t108 -321zM262 352q0 -154 56 -244t148 -90q91 0 162 68q120 115 178 406t-37 444q-57 90 -157 90
t-183 -106t-125 -260t-42 -308z" />
    <glyph glyph-name="oacute" unicode="&#xf3;" horiz-adv-x="1089" 
d="M520 1163h-10q137 115 154 250h188q-88 -162 -332 -250zM1008 621v-25q-12 -236 -178 -428t-373 -193q-158 0 -267 129t-108 324v25q0 225 175 421t378 195q157 1 265 -127t108 -321zM262 352q0 -154 56 -244t148 -90q91 0 162 68q120 115 178 406t-37 444
q-57 90 -157 90t-183 -106t-125 -260t-42 -308z" />
    <glyph glyph-name="ocircumflex" unicode="&#xf4;" horiz-adv-x="1089" 
d="M874 1163h-16l-188 131q-84 -45 -252 -131h-17l226 250h108q20 -37 139 -250zM1008 621v-25q-12 -236 -178 -428t-373 -193q-158 0 -267 129t-108 324v25q0 225 175 421t378 195q157 1 265 -127t108 -321zM262 352q0 -154 56 -244t148 -90q91 0 162 68q120 115 178 406
t-37 444q-57 90 -157 90t-183 -106t-125 -260t-42 -308z" />
    <glyph glyph-name="otilde" unicode="&#xf5;" horiz-adv-x="1089" 
d="M510 1315q-90 0 -129 -72l-16 4q34 76 97 120q64 44 118 44t136 -32q83 -32 113 -31q91 -1 132 73l16 -4q-23 -51 -81 -111t-124 -60t-149 34q-82 35 -113 35zM1008 621v-25q-12 -236 -178 -428t-373 -193q-158 0 -267 129t-108 324v25q0 225 175 421t378 195
q157 1 265 -127t108 -321zM262 352q0 -154 56 -244t148 -90q91 0 162 68q120 115 178 406t-37 444q-57 90 -157 90t-183 -106t-125 -260t-42 -308z" />
    <glyph glyph-name="odieresis" unicode="&#xf6;" horiz-adv-x="1089" 
d="M621 1330q0 -42 -31 -73t-74 -31t-73 32q-29 30 -29 72t29 73q30 31 73 31t74 -31t31 -73zM812 1434q42 0 72 -31t31 -73q-1 -42 -31 -73t-72 -31t-73 32q-31 30 -31 72t31 73t73 31zM1008 621v-25q-12 -236 -178 -428t-373 -193q-158 0 -267 129t-108 324v25
q0 225 175 421t378 195q157 1 265 -127t108 -321zM262 352q0 -154 56 -244t148 -90q91 0 162 68q120 115 178 406t-37 444q-57 90 -157 90t-183 -106t-125 -260t-42 -308z" />
    <glyph glyph-name="divide" unicode="&#xf7;" horiz-adv-x="1167" 
d="M539 1000q1 50 35 86q34 34 85 34t89 -38t38 -88t-34 -85t-85 -35q-50 0 -89 38t-39 88zM627 144q0 -50 -34 -84t-85 -35t-89 37t-38 88t34 86q34 34 85 34t89 -38t38 -88zM995 514h-852l25 127h852z" />
    <glyph glyph-name="oslash" unicode="&#xf8;" horiz-adv-x="1089" 
d="M620 1026q-118 0 -200 -114q-156 -216 -156 -597q0 -30 8 -75l521 641q-55 145 -173 145zM825 654q0 106 -14 155l-520 -643q55 -148 173 -148t201 114t121 266q38 150 39 256zM82 428q0 240 170 440t381 201q131 0 233 -98l117 145l47 -37l-123 -151q100 -131 101 -307
q0 -250 -168 -448t-381 -198q-137 0 -242 101l-113 -139l-51 32l125 152q-96 125 -96 307z" />
    <glyph glyph-name="ugrave" unicode="&#xf9;" 
d="M856 1163h-10q-244 88 -330 250h184q15 -133 156 -250zM373 -27q-190 0 -191 238q0 75 101 580q10 61 10 94q-2 66 -57 65q-61 0 -173 -59v8q55 61 135 115t142 55q115 0 115 -151q0 -47 -19 -154l-86 -445q-10 -76 -8 -106q0 -131 102 -131q70 0 160 61t168 152l135 747
h162l-145 -792q-12 -57 -13 -78q0 -78 54 -78q74 1 178 60v-9q-55 -61 -135 -116t-142 -56q-115 0 -114 140q0 51 12 123q-78 -100 -191 -182t-200 -81z" />
    <glyph glyph-name="uacute" unicode="&#xfa;" 
d="M551 1163h-10q137 115 153 250h189q-88 -162 -332 -250zM373 -27q-190 0 -191 238q0 75 101 580q10 61 10 94q-2 66 -57 65q-61 0 -173 -59v8q55 61 135 115t142 55q115 0 115 -151q0 -47 -19 -154l-86 -445q-8 -45 -8 -106q0 -131 102 -131q70 0 160 61t168 152l135 747
h162l-145 -792q-12 -57 -13 -78q0 -78 54 -78q74 1 178 60v-9q-55 -61 -135 -116t-142 -56q-115 0 -114 140q0 51 12 123q-78 -100 -191 -182t-200 -81z" />
    <glyph glyph-name="ucircumflex" unicode="&#xfb;" 
d="M924 1163h-17l-188 131q-84 -45 -252 -131h-16l225 250h108q21 -37 140 -250zM373 -27q-190 0 -191 238q0 75 101 580q10 61 10 94q-2 66 -57 65q-61 0 -173 -59v8q55 61 135 115t142 55q115 0 115 -151q0 -47 -19 -154l-86 -445q-8 -45 -8 -106q0 -131 102 -131
q70 0 160 61t168 152l135 747h162l-145 -792q-12 -57 -13 -78q0 -78 54 -78q74 1 178 60v-9q-55 -61 -135 -116t-142 -56q-115 0 -114 140q0 51 12 123q-78 -100 -191 -182t-200 -81z" />
    <glyph glyph-name="udieresis" unicode="&#xfc;" 
d="M541 1434q43 0 73 -31t31 -73q0 -42 -31 -73q-32 -31 -74 -31t-72 32q-30 30 -30 72t30 73t73 31zM837 1434q43 0 73 -31t30 -73t-31 -73t-73 -31t-72 32q-31 30 -31 72t31 73t73 31zM373 -27q-190 0 -191 238q0 75 101 580q10 61 10 94q-2 66 -57 65q-61 0 -173 -59v8
q55 61 135 115t142 55q115 0 115 -151q0 -47 -19 -154l-86 -445q-8 -45 -8 -106q0 -131 102 -131q70 0 160 61t168 152l135 747h162l-145 -792q-12 -57 -13 -78q0 -78 54 -78q74 1 178 60v-9q-55 -61 -135 -116t-142 -56q-115 0 -114 140q0 51 12 123q-78 -100 -191 -182
t-200 -81z" />
    <glyph glyph-name="yacute" unicode="&#xfd;" horiz-adv-x="987" 
d="M446 1163h-10q135 113 154 250h186q-84 -160 -330 -250zM831 864v17q-25 -29 -69 -29t-76 32q-33 32 -33 77t30 77t75 31q143 0 143 -176q0 -113 -101 -353t-210 -436q-334 -596 -570 -596q-70 0 -108 37t-39 82q0 45 30 76q31 31 75 31t76 -36t34 -104q152 51 338 340
q-25 275 -73 529q-91 481 -201 481q-51 0 -156 -55v8q145 172 274 172q72 0 113 -98q41 -99 90 -359t72 -487q286 553 286 739z" />
    <glyph glyph-name="thorn" unicode="&#xfe;" horiz-adv-x="1146" 
d="M453 27q127 0 233 93t163 231q56 138 56 288t-68 243q-69 93 -173 93t-230 -90l-147 -809q94 -49 166 -49zM348 -471h-461l2 4v4q86 29 120 75t57 171l262 1415q12 68 12 120t-32 79t-120 47v8q199 16 361 92h8l-115 -614q152 139 302 139t245 -115q96 -116 96 -286
t-91 -331q-92 -161 -244 -261t-316 -101q-57 0 -164 17q-47 -254 -47 -318t27 -91q27 -26 98 -46v-8z" />
    <glyph glyph-name="ydieresis" unicode="&#xff;" horiz-adv-x="987" 
d="M754 1227q-43 1 -74 31t-31 72t31 73t74 31q42 0 72 -31t30 -73t-30 -72t-72 -31zM458 1434q42 0 72 -31t31 -73q-1 -42 -31 -72t-72 -31q-42 1 -73 31t-31 72t31 73t73 31zM831 864v17q-25 -29 -69 -29t-76 32q-33 32 -33 77t30 77t75 31q143 0 143 -176
q0 -113 -101 -353t-210 -436q-334 -596 -570 -596q-70 0 -108 37t-39 82q0 45 30 76q31 31 75 31t76 -36t34 -104q152 51 338 340q-25 275 -73 529q-91 481 -201 481q-51 0 -156 -55v8q145 172 274 172q72 0 113 -98q41 -99 90 -359t72 -487q286 553 286 739z" />
    <glyph glyph-name="Amacron" unicode="&#x100;" horiz-adv-x="1400" 
d="M1122 1612h-504l17 92h504q-5 -31 -17 -92zM915 569l-118 699l-373 -699h491zM819 0v4l2 4q82 18 115 53t33 116t-43 333h-533q-176 -332 -176 -414q0 -37 26 -56t83 -32q0 -2 -2 -8h-420q0 2 2 8q68 25 114 68q95 90 306 475l485 876h123l149 -874q55 -324 91 -418
t122 -127q0 -2 -2 -8h-475z" />
    <glyph glyph-name="amacron" unicode="&#x101;" horiz-adv-x="1173" 
d="M1024 1266h-573v82h573v-82zM655 1018q-145 0 -265 -205t-120 -460t150 -255q135 0 311 207l111 643q-86 70 -187 70zM721 1069q69 0 201 -33q33 0 90 33h12l-147 -819q-10 -53 -11 -76q0 -80 54 -80q72 1 178 62v-9q-58 -69 -140 -119t-143 -50t-84 37q-36 60 -12 221
q-80 -104 -180 -182t-198 -79q-99 1 -171 93t-72 263t87 342t233 283t303 113z" />
    <glyph glyph-name="Abreve" unicode="&#x102;" horiz-adv-x="1400" 
d="M874 1536q-100 0 -151 74t-57 172h8q18 -59 78 -94t129 -35t143 35t113 94h8q-90 -246 -271 -246zM915 569l-118 699l-373 -699h491zM819 0v4l2 4q82 18 115 53t33 116t-43 333h-533q-176 -332 -176 -414q0 -37 26 -56t83 -32q0 -2 -2 -8h-420q0 2 2 8q68 25 114 68
q95 90 306 475l485 876h123l149 -874q55 -324 91 -418t122 -127q0 -2 -2 -8h-475z" />
    <glyph glyph-name="abreve" unicode="&#x103;" horiz-adv-x="1173" 
d="M754 1280q70 0 136 36t95 97h8q-19 -96 -79 -166q-60 -69 -160 -69t-161 69q-60 70 -79 166h8q30 -61 96 -97t136 -36zM655 1018q-145 0 -265 -205t-120 -460t150 -255q135 0 311 207l111 643q-86 70 -187 70zM721 1069q69 0 201 -33q33 0 90 33h12l-147 -819
q-10 -53 -11 -76q0 -80 54 -80q72 1 178 62v-9q-58 -69 -140 -119t-143 -50t-84 37q-36 60 -12 221q-80 -104 -180 -182t-198 -79q-99 1 -171 93t-72 263t87 342t233 283t303 113z" />
    <glyph glyph-name="Aogonek" unicode="&#x104;" horiz-adv-x="1400" 
d="M915 569l-118 699l-373 -699h491zM1036 -428q-74 0 -108 35q-35 35 -35 85t57 110q58 60 116 96t108 64t57 31q6 3 12 7h-424l2 8q82 18 115 53t33 116t-43 333h-533q-176 -332 -176 -414q0 -37 26 -56t83 -32l-2 -8h-420l2 8q68 25 114 68q95 90 306 475l485 876h123
l149 -874q55 -324 91 -418t122 -127l-2 -8q-106 -61 -180 -143t-74 -149t82 -66q31 0 58 8v-8q-70 -70 -144 -70z" />
    <glyph glyph-name="aogonek" unicode="&#x105;" horiz-adv-x="1173" 
d="M655 1018q-145 0 -265 -205t-120 -460t150 -255q135 0 311 207l111 643q-86 70 -187 70zM721 1069q69 0 201 -33q33 0 90 33h12l-147 -819q-10 -53 -11 -76q0 -80 54 -80q72 0 178 62v-9q-54 -63 -104 -205t-50 -196t26 -80q43 -41 128 -16v-8q-56 -70 -136 -70t-120 40
t-41 91t25 93t41 67t45 63t44 56q14 20 50 62q35 42 43 52q-133 -119 -238 -119q-57 0 -80 38q-36 60 -12 221q-80 -104 -180 -182t-198 -79q-99 1 -171 93t-72 263t87 342t233 283t303 113z" />
    <glyph glyph-name="Cacute" unicode="&#x106;" horiz-adv-x="1409" 
d="M866 1532h-10q135 113 154 250h186q-84 -160 -330 -250zM768 -31q-276 0 -465 170q-188 170 -192 436q0 161 54 301q98 256 344 411q245 155 505 155q104 0 223 -26t176 -54l-49 -275h-8q-72 309 -373 310q-184 0 -341 -118q-157 -117 -246 -311t-89 -422t131 -380
t340 -152q273 0 486 330h8q-12 -47 -39 -143t-39 -146q-70 -35 -192 -61t-234 -25z" />
    <glyph glyph-name="cacute" unicode="&#x107;" horiz-adv-x="860" 
d="M530 1163h-10q135 113 154 250h186q-84 -160 -330 -250zM422 -25q-135 0 -227 111t-93 297q0 279 178 483t386 203q82 0 134 -34t52 -92t-33 -93t-78 -35t-75 25t-29 70q0 60 35 91q8 8 12 15l6 4q0 4 -8 4h-16q-156 0 -273 -167t-117 -419q0 -176 65 -260t169 -84
q148 0 295 164l12 -14q-55 -100 -157 -184t-238 -85z" />
    <glyph glyph-name="Ccircumflex" unicode="&#x108;" horiz-adv-x="1409" 
d="M1212 1532h-16l-188 131q-84 -45 -252 -131h-17l226 250h108q20 -37 139 -250zM768 -31q-276 0 -465 170q-188 170 -192 436q0 161 54 301q98 256 344 411q245 155 505 155q104 0 223 -26t176 -54l-49 -275h-8q-72 309 -373 310q-184 0 -341 -118q-157 -117 -246 -311
t-89 -422t131 -380t340 -152q273 0 486 330h8q-12 -47 -39 -143t-39 -146q-70 -35 -192 -61t-234 -25z" />
    <glyph glyph-name="ccircumflex" unicode="&#x109;" horiz-adv-x="860" 
d="M877 1163h-17l-188 131q-84 -45 -252 -131h-17l226 250h108q21 -37 140 -250zM422 -25q-135 0 -227 111t-93 297q0 279 178 483t386 203q82 0 134 -34t52 -92t-33 -93t-78 -35t-75 25t-29 70q0 60 35 91q8 8 12 15l6 4q0 4 -8 4h-16q-156 0 -273 -167t-117 -419
q0 -176 65 -260t169 -84q148 0 295 164l12 -14q-55 -100 -157 -184t-238 -85z" />
    <glyph glyph-name="Cdotaccent" unicode="&#x10a;" horiz-adv-x="1409" 
d="M885 1686q0 46 33 78q34 32 78 32t77 -32t33 -79q0 -46 -33 -78t-78 -32t-77 33t-33 78zM768 -31q-276 0 -465 170q-188 170 -192 436q0 161 54 301q98 256 344 411q245 155 505 155q104 0 223 -26t176 -54l-49 -275h-8q-72 309 -373 310q-184 0 -341 -118
q-157 -117 -246 -311t-89 -422t131 -380t340 -152q273 0 486 330h8q-12 -47 -39 -143t-39 -146q-70 -35 -192 -61t-234 -25z" />
    <glyph glyph-name="cdotaccent" unicode="&#x10b;" horiz-adv-x="860" 
d="M786 1317q0 -45 -32 -78t-78 -33q-45 0 -78 32t-33 78t33 79t78 33t78 -33q32 -33 32 -78zM422 -25q-135 0 -227 111t-93 297q0 279 178 483t386 203q82 0 134 -34t52 -92t-33 -93t-78 -35t-75 25t-29 70q0 60 35 91q8 8 12 15l6 4q0 4 -8 4h-16q-156 0 -273 -167
t-117 -419q0 -176 65 -260t169 -84q148 0 295 164l12 -14q-55 -100 -157 -184t-238 -85z" />
    <glyph glyph-name="Ccaron" unicode="&#x10c;" horiz-adv-x="1409" 
d="M1038 1532h-108l-135 250h16q61 -45 184 -131l256 131h17zM768 -31q-276 0 -465 170q-188 170 -192 436q0 161 54 301q98 256 344 411q245 155 505 155q104 0 223 -26t176 -54l-49 -275h-8q-72 309 -373 310q-184 0 -341 -118q-157 -117 -246 -311t-89 -422t131 -380
t340 -152q273 0 486 330h8q-12 -47 -39 -143t-39 -146q-70 -35 -192 -61t-234 -25z" />
    <glyph glyph-name="ccaron" unicode="&#x10d;" horiz-adv-x="860" 
d="M662 1163h-109l-135 250h16q61 -45 184 -131q172 86 256 131h17zM422 -25q-135 0 -227 111t-93 297q0 279 178 483t386 203q82 0 134 -34t52 -92t-33 -93t-78 -35t-75 25t-29 70q0 60 35 91q8 8 12 15l6 4q0 4 -8 4h-16q-156 0 -273 -167t-117 -419q0 -176 65 -260
t169 -84q148 0 295 164l12 -14q-55 -100 -157 -184t-238 -85z" />
    <glyph glyph-name="Dcaron" unicode="&#x10e;" horiz-adv-x="1544" 
d="M977 1532h-109l-135 250h17q61 -45 184 -131l256 131h16zM586 55q322 -1 526 225t205 562q0 231 -133 373t-357 143h-262l-237 -1303h258zM569 0h-589v4q2 2 2 4q110 29 150 79q40 51 67 193t79 428t71 394t19 166t-29 88q-30 30 -106 49v4l3 4h593q297 0 491 -161
t193 -435q0 -96 -14 -168q-63 -307 -319 -478t-611 -171z" />
    <glyph glyph-name="dcaron" unicode="&#x10f;" horiz-adv-x="1243" 
d="M1202 1460q0 32 24 58t64 26t68 -28q60 -64 -23 -188q-57 -84 -155 -202l-13 7q55 98 56 206q0 23 -11 56q-10 33 -10 65zM264 356q0 -126 42 -192t114 -66q160 0 334 221l110 642q-27 20 -84 38t-106 19q-156 0 -283 -205t-127 -457zM838 -27q-109 0 -109 146
q0 45 14 135q-85 -111 -193 -195t-207 -84q-99 1 -176 93t-77 261t89 342t239 285t305 113q59 0 158 -20l26 149q11 58 11 116t-34 84t-126 46v8q207 16 366 92h9l-234 -1294q-10 -43 -10 -86q0 -70 53 -70q65 1 178 62v-9q-158 -174 -282 -174z" />
    <glyph glyph-name="Dcroat" unicode="&#x110;" horiz-adv-x="1521" 
d="M586 55q322 -1 526 225t205 562q0 231 -133 373t-357 143h-262l-108 -602h280l-12 -60h-281l-116 -641h258zM569 0h-589l2 8q110 29 150 79t67 192l75 417h-174l13 60h174l69 379q14 72 14 128t-30 88q-31 32 -107 54l3 8h593q299 0 494 -162t195 -426t-132 -452
q-132 -189 -346 -281q-213 -92 -471 -92z" />
    <glyph glyph-name="dcroat" unicode="&#x111;" horiz-adv-x="1185" 
d="M264 350q0 -120 43 -186t115 -66q150 0 334 236l108 627q-27 20 -84 38t-108 19q-156 0 -282 -205t-126 -463zM731 109q0 80 12 145q-80 -104 -190 -192q-111 -87 -211 -87q-100 1 -176 93t-76 261t89 342t239 285t305 113q59 0 158 -20l26 145h-311l12 70h307q3 16 3 61
t-34 73t-126 46v8q207 16 366 92h9l-52 -280h142l-13 -70h-141l-176 -987q-4 -33 -4 -43q0 -70 53 -70q61 1 178 62v-9q-59 -65 -137 -119t-141 -55q-111 0 -111 136z" />
    <glyph glyph-name="Emacron" unicode="&#x112;" horiz-adv-x="1157" 
d="M1001 1612h-503l14 92h506q-13 -61 -17 -92zM-18 0q0 2 2 8q106 29 148 80t69 191q96 518 157 856q28 165 -19 217q-30 33 -103 53l2 4v4h907q-16 -96 -53 -289h-9q-51 154 -88 194t-143 40h-287l-110 -604h276q70 0 113 26t104 105h8q-41 -229 -57 -316h-8
q-33 76 -67 103t-105 26h-277l-116 -643h344q94 0 149 43t217 224h8l-100 -322h-962z" />
    <glyph glyph-name="emacron" unicode="&#x113;" horiz-adv-x="937" 
d="M907 1243h-504l17 92h504zM733 874q0 72 -37 110t-96 38q-119 0 -218 -155t-110 -363q231 4 346 114t115 256zM524 94q166 0 307 166l13 -14q-53 -100 -162 -186q-110 -86 -252 -85q-142 0 -236 119t-94 307q0 258 173 463t376 205q100 0 170 -54t70 -155
q0 -178 -183 -289q-152 -88 -436 -104l2 -43q8 -164 77 -247t175 -83z" />
    <glyph glyph-name="Ebreve" unicode="&#x114;" horiz-adv-x="1157" 
d="M754 1536q-100 0 -152 74q-51 74 -57 172h8q19 -59 79 -94t128 -35t142 35t114 94h8q-90 -246 -270 -246zM-18 0q0 2 2 8q106 29 148 80t69 191q96 518 157 856q28 165 -19 217q-30 33 -103 53l2 4v4h907q-16 -96 -53 -289h-9q-51 154 -88 194t-143 40h-287l-110 -604
h276q70 0 113 26t104 105h8q-41 -229 -57 -316h-8q-33 76 -67 103t-105 26h-277l-116 -643h344q94 0 149 43t217 224h8l-100 -322h-962z" />
    <glyph glyph-name="ebreve" unicode="&#x115;" horiz-adv-x="937" 
d="M633 1167q-100 0 -152 74q-51 74 -57 172h8q18 -59 78 -94t129 -35t143 35t113 94h8q-90 -246 -270 -246zM733 874q0 72 -37 110t-96 38q-119 0 -218 -155t-110 -363q231 4 346 114t115 256zM524 94q166 0 307 166l13 -14q-53 -100 -162 -186q-110 -86 -252 -85
q-142 0 -236 119t-94 307q0 258 173 463t376 205q100 0 170 -54t70 -155q0 -178 -183 -289q-152 -88 -436 -104l2 -43q8 -164 77 -247t175 -83z" />
    <glyph glyph-name="Edotaccent" unicode="&#x116;" horiz-adv-x="1157" 
d="M766 1796q45 0 78 -32t33 -79q0 -46 -33 -78t-78 -32t-78 33t-33 78q0 46 33 78t78 32zM-18 0q0 2 2 8q106 29 148 80t69 191q96 518 157 856q28 165 -19 217q-30 33 -103 53l2 4v4h907q-16 -96 -53 -289h-9q-51 154 -88 194t-143 40h-287l-110 -604h276q70 0 113 26
t104 105h8q-41 -229 -57 -316h-8q-33 76 -67 103t-105 26h-277l-116 -643h344q94 0 149 43t217 224h8l-100 -322h-962z" />
    <glyph glyph-name="edotaccent" unicode="&#x117;" horiz-adv-x="937" 
d="M664 1206q-45 0 -78 33t-33 78t33 78t78 33q46 0 78 -34q32 -32 32 -78t-32 -78t-78 -32zM733 874q0 72 -37 110t-96 38q-119 0 -218 -155t-110 -363q231 4 346 114t115 256zM524 94q166 0 307 166l13 -14q-53 -100 -162 -186q-110 -86 -252 -85q-142 0 -236 119t-94 307
q0 258 173 463t376 205q100 0 170 -54t70 -155q0 -178 -183 -289q-152 -88 -436 -104l2 -43q8 -164 77 -247t175 -83z" />
    <glyph glyph-name="Eogonek" unicode="&#x118;" horiz-adv-x="1157" 
d="M774 -428q-80 0 -121 40t-41 87q0 89 95 165t192 136h-917l2 8q106 29 148 80t69 191l157 856q28 165 -19 217q-30 33 -103 53l2 8h907l-53 -289h-9q-51 154 -88 194t-143 40h-287l-110 -604h276q70 0 113 26t104 105h8l-57 -316h-8q-33 76 -67 103t-105 26h-277
l-116 -643h344q94 0 149 43t217 224h8l-100 -322q-82 -59 -135 -133t-53 -125t26 -76q42 -41 127 -16v-8q-55 -70 -135 -70z" />
    <glyph glyph-name="eogonek" unicode="&#x119;" horiz-adv-x="937" 
d="M598 1022q-116 0 -216 -156t-110 -362q238 33 350 133q112 101 112 243t-136 142zM522 94q168 0 309 166l11 -12q-20 -78 -104 -268t-85 -259q0 -80 84 -79q13 0 58 8l4 -6q-17 -20 -73 -43t-103 -23t-82 33t-35 81t52 128t131 185t118 181q-66 -86 -160 -148t-201 -63
q-158 0 -252 119t-94 307q0 256 173 462t370 206q106 0 176 -54t70 -157q0 -307 -619 -391l2 -43q6 -158 76 -244t174 -86z" />
    <glyph glyph-name="Ecaron" unicode="&#x11a;" horiz-adv-x="1157" 
d="M799 1532h-109l-135 250h16q61 -45 185 -131q172 86 256 131h16zM-18 0q0 2 2 8q106 29 148 80t69 191q96 518 157 856q28 165 -19 217q-30 33 -103 53l2 4v4h907q-16 -96 -53 -289h-9q-51 154 -88 194t-143 40h-287l-110 -604h276q70 0 113 26t104 105h8
q-41 -229 -57 -316h-8q-33 76 -67 103t-105 26h-277l-116 -643h344q94 0 149 43t217 224h8l-100 -322h-962z" />
    <glyph glyph-name="ecaron" unicode="&#x11b;" horiz-adv-x="937" 
d="M696 1163h-108l-135 250h16l184 -131l256 131h17zM733 874q0 72 -37 110t-96 38q-119 0 -218 -155t-110 -363q231 4 346 114t115 256zM524 94q166 0 307 166l13 -14q-53 -100 -162 -186q-110 -86 -252 -85q-142 0 -236 119t-94 307q0 258 173 463t376 205q100 0 170 -54
t70 -155q0 -178 -183 -289q-152 -88 -436 -104l2 -43q8 -164 77 -247t175 -83z" />
    <glyph glyph-name="Gcircumflex" unicode="&#x11c;" horiz-adv-x="1505" 
d="M1206 1532h-16l-189 131q-84 -45 -251 -131h-17l225 250h109q20 -37 139 -250zM734 -31q-263 0 -442 175t-179 446q0 184 78 347q150 309 493 442q160 63 296 63t270 -25q132 -25 192 -51q-33 -184 -51 -276h-9q-100 305 -384 305t-486 -250q-203 -250 -203 -582
q0 -240 130 -386q129 -146 323 -146t321 57l64 340q12 49 12 113q0 63 -31 99t-104 58l2 9h467l-2 -9q-82 -29 -119 -80t-61 -190l-68 -373q-246 -86 -509 -86z" />
    <glyph glyph-name="gcircumflex" unicode="&#x11d;" horiz-adv-x="919" 
d="M786 1163h-16l-188 131l-252 -131h-17l226 250h108zM676 825q0 89 -40 145t-101 56q-109 0 -178 -141t-68 -293q0 -100 36 -158t105 -59q114 0 180 138t66 312zM340 -444q127 0 238 55t110 160q0 66 -40 99t-136 64l-272 86q-221 -92 -222 -247q0 -97 98 -157t224 -60z
M274 -492q-144 0 -281 74q-138 74 -138 178q0 174 348 277q-88 45 -88 113q0 111 196 204q-186 66 -186 252t118 324t289 139q111 0 195 -68q11 -2 73 -2t107 24t90 79q39 -47 39 -89t-26 -70t-68 -28q-41 0 -170 41q70 -80 70 -200q0 -164 -123 -291t-295 -127q-41 0 -76 8
q-94 -66 -94 -122t68 -74l215 -64q149 -45 215 -101q66 -55 66 -153t-84 -176t-200 -113t-260 -35z" />
    <glyph glyph-name="Gbreve" unicode="&#x11e;" horiz-adv-x="1505" 
d="M1016 1536q-102 0 -154 74q-51 74 -55 172h8q19 -59 79 -94t127 -35t141 35t116 94h8q-90 -246 -270 -246zM734 -31q-263 0 -442 175t-179 446q0 184 78 347q150 309 493 442q160 63 296 63t270 -25q132 -25 192 -51q-33 -184 -51 -276h-9q-100 305 -384 305t-486 -250
q-203 -250 -203 -582q0 -240 130 -386q129 -146 323 -146t321 57l64 340q12 49 12 113q0 63 -31 99t-104 58l2 9h467l-2 -9q-82 -29 -119 -80t-61 -190l-68 -373q-246 -86 -509 -86z" />
    <glyph glyph-name="gbreve" unicode="&#x11f;" horiz-adv-x="919" 
d="M580 1167q-100 0 -152 74q-51 74 -57 172h8q19 -59 79 -94t128 -35t142 35t114 94h8q-90 -246 -270 -246zM676 825q0 89 -40 145t-101 56q-109 0 -178 -141t-68 -293q0 -100 36 -158t105 -59q114 0 180 138t66 312zM340 -444q127 0 238 55t110 160q0 66 -40 99t-136 64
l-272 86q-221 -92 -222 -247q0 -97 98 -157t224 -60zM274 -492q-144 0 -281 74q-138 74 -138 178q0 174 348 277q-88 45 -88 113q0 111 196 204q-186 66 -186 252t118 324t289 139q111 0 195 -68q11 -2 73 -2t107 24t90 79q39 -47 39 -89t-26 -70t-68 -28q-41 0 -170 41
q70 -80 70 -200q0 -164 -123 -291t-295 -127q-41 0 -76 8q-94 -66 -94 -122t68 -74l215 -64q149 -45 215 -101q66 -55 66 -153t-84 -176t-200 -113t-260 -35z" />
    <glyph glyph-name="Gdotaccent" unicode="&#x120;" horiz-adv-x="1505" 
d="M887 1686q0 46 33 78q34 32 78 32t77 -32t33 -79q0 -46 -32 -78t-78 -32t-78 33t-33 78zM734 -31q-263 0 -442 175t-179 446q0 184 78 347q150 309 493 442q160 63 296 63t270 -25q132 -25 192 -51q-33 -184 -51 -276h-9q-100 305 -384 305t-486 -250
q-203 -250 -203 -582q0 -240 130 -386q129 -146 323 -146t321 57l64 340q12 49 12 113q0 63 -31 99t-104 58l2 9h467l-2 -9q-82 -29 -119 -80t-61 -190l-68 -373q-246 -86 -509 -86z" />
    <glyph glyph-name="gdotaccent" unicode="&#x121;" horiz-adv-x="919" 
d="M569 1206q-45 0 -77 33t-33 78q0 45 33 78q34 33 78 33t77 -34q33 -32 33 -78t-33 -78t-78 -32zM676 825q0 89 -40 145t-101 56q-109 0 -178 -141t-68 -293q0 -100 36 -158t105 -59q114 0 180 138t66 312zM340 -444q127 0 238 55t110 160q0 66 -40 99t-136 64l-272 86
q-221 -92 -222 -247q0 -97 98 -157t224 -60zM274 -492q-144 0 -281 74q-138 74 -138 178q0 174 348 277q-88 45 -88 113q0 111 196 204q-186 66 -186 252t118 324t289 139q111 0 195 -68q11 -2 73 -2t107 24t90 79q39 -47 39 -89t-26 -70t-68 -28q-41 0 -170 41
q70 -80 70 -200q0 -164 -123 -291t-295 -127q-41 0 -76 8q-94 -66 -94 -122t68 -74l215 -64q149 -45 215 -101q66 -55 66 -153t-84 -176t-200 -113t-260 -35z" />
    <glyph glyph-name="Gcommaaccent" unicode="&#x122;" horiz-adv-x="1505" 
d="M625 -182q-1 34 25 60t69 26t72 -33t28 -74q1 -85 -81 -161t-193 -121l-4 6q117 98 116 178q0 16 -16 50t-16 69zM734 -31q-263 0 -442 175t-179 446q0 184 78 347q150 309 493 442q160 63 296 63t270 -25q132 -25 192 -51q-33 -184 -51 -276h-9q-100 305 -384 305
t-486 -250q-203 -250 -203 -582q0 -240 130 -386q129 -146 323 -146t321 57l64 340q12 49 12 113q0 63 -31 99t-104 58l2 9h467l-2 -9q-82 -29 -119 -80t-61 -190l-68 -373q-246 -86 -509 -86z" />
    <glyph glyph-name="gcommaaccent" unicode="&#x123;" horiz-adv-x="919" 
d="M639 1362q0 -18 16 -52q39 -82 -10 -131q-27 -28 -71 -28t-73 34q-30 34 -30 77q0 82 84 158t193 122l6 -6q-115 -96 -115 -174zM676 825q0 89 -40 145t-101 56q-109 0 -178 -141t-68 -293q0 -100 36 -158t105 -59q114 0 180 138t66 312zM340 -444q127 0 238 55t110 160
q0 66 -40 99t-136 64l-272 86q-221 -92 -222 -247q0 -97 98 -157t224 -60zM274 -492q-144 0 -281 74q-138 74 -138 178q0 174 348 277q-88 45 -88 113q0 111 196 204q-186 66 -186 252t118 324t289 139q111 0 195 -68q11 -2 73 -2t107 24t90 79q39 -47 39 -89t-26 -70
t-68 -28q-41 0 -170 41q70 -80 70 -200q0 -164 -123 -291t-295 -127q-41 0 -76 8q-94 -66 -94 -122t68 -74l215 -64q149 -45 215 -101q66 -55 66 -153t-84 -176t-200 -113t-260 -35z" />
    <glyph glyph-name="Hcircumflex" unicode="&#x124;" horiz-adv-x="1630" 
d="M1206 1532h-16q-168 117 -186 131q-172 -90 -254 -131h-17l225 250h109q119 -213 139 -250zM938 0v4l2 4q109 29 151 78t66 182q53 283 78 426h-793q-12 -74 -50 -275t-39 -264t29 -95t107 -52q0 -2 -2 -8h-505q0 2 2 8q106 29 148 78t67 182l166 906q8 44 8 94t-31 82
t-106 55l2 4v4h510l-3 -4v-4q-111 -29 -153 -78t-66 -182l-71 -385h792l76 414q8 44 8 94t-31 82t-106 55l2 4v4h510l-2 -4v-4q-111 -29 -154 -78t-67 -182l-160 -877q-12 -68 -12 -122q-1 -54 29 -86t108 -52q0 -2 -2 -8h-508z" />
    <glyph glyph-name="hcircumflex" unicode="&#x125;" horiz-adv-x="1187" 
d="M721 1571h-16l-189 131q-168 -86 -252 -131h-16l225 250h109q20 -37 139 -250zM831 1069q89 0 141 -61t52 -172q0 -45 -14 -121l-90 -465q-10 -57 -11 -88q0 -72 54 -72q61 1 176 62v-9q-59 -65 -137 -117t-146 -53q-111 0 -111 144q0 59 21 162l88 442q12 55 12 98
q0 145 -114 146q-141 0 -318 -170q-90 -481 -145 -795h-164q139 766 207 1151q22 97 22 157t-32 88q-33 28 -121 48l2 8q203 16 358 92h8l-125 -686q84 86 190 148t197 63z" />
    <glyph glyph-name="Hbar" unicode="&#x126;" horiz-adv-x="1630" 
d="M1247 760l43 235h-792l-43 -235h792zM373 1256q0 64 -30 96q-30 31 -107 53l2 8h510l-3 -8q-123 -31 -165 -94t-70 -254h793q29 135 29 199t-30 96q-30 31 -108 53l2 8h510l-2 -8q-127 -33 -160 -86t-78 -262h181l-13 -62h-178l-133 -727q-12 -74 -12 -127q-1 -53 29 -83
t108 -50l-2 -8h-508l2 8q109 29 151 78t66 182l78 426h-793l-77 -426q-13 -70 -13 -125t30 -85t107 -50l-2 -8h-505l2 8q106 29 148 78t67 182l135 727h-176l10 62h176q29 135 29 199z" />
    <glyph glyph-name="hbar" unicode="&#x127;" horiz-adv-x="1187" 
d="M745 113q0 76 19 166l90 442q10 57 10 96q0 147 -110 148q-70 1 -160 -61t-168 -152l-137 -752h-164l215 1194h-147l14 70h143q4 33 4 45q0 61 -32 88q-33 27 -121 47l2 8q203 16 358 92h8l-51 -280h303l-14 -70h-301l-70 -379q76 100 189 177t205 77t142 -59t50 -170
q0 -61 -12 -125l-90 -465q-12 -70 -13 -90q0 -70 56 -70q61 1 176 62v-9q-55 -61 -135 -115t-144 -55q-115 0 -115 140z" />
    <glyph glyph-name="Itilde" unicode="&#x128;" horiz-adv-x="673" 
d="M644 1614q-66 0 -148 35t-113 34q-90 0 -129 -71l-16 4q33 73 97 119q63 45 117 45t137 -32t113 -32q91 0 132 74l16 -4q-23 -52 -81 -112q-59 -60 -125 -60zM-18 0q0 2 2 8q106 29 148 78t67 182l161 877q12 67 12 121t-30 86q-31 32 -106 53l2 4v4h510l-3 -4v-4
q-111 -29 -153 -78t-66 -182l-161 -877q-34 -152 18 -208q31 -32 106 -52q0 -2 -2 -8h-505z" />
    <glyph glyph-name="itilde" unicode="&#x129;" horiz-adv-x="618" 
d="M248 1315q-90 0 -129 -72l-17 4q33 75 111 128q51 36 104 36t137 -32t113 -31q90 -1 131 73l17 -4q-23 -51 -81 -111t-124 -60t-150 34q-82 35 -112 35zM164 117q0 72 18 162l105 512q10 57 10 86q0 72 -53 71q-66 0 -176 -59v8q57 63 136 117t140 55q115 0 115 -145
q0 -76 -19 -160l-104 -514q-10 -57 -10 -88q0 -72 55 -72q57 1 174 62v-9q-55 -61 -133 -115t-141 -55q-117 0 -117 144z" />
    <glyph glyph-name="Imacron" unicode="&#x12a;" horiz-adv-x="673" 
d="M766 1612h-504l17 92h503q-4 -31 -16 -92zM-18 0q0 2 2 8q106 29 148 78t67 182l161 877q12 67 12 121t-30 86q-31 32 -106 53l2 4v4h510l-3 -4v-4q-111 -29 -153 -78t-66 -182l-161 -877q-13 -68 -13 -122t31 -86t106 -52q0 -2 -2 -8h-505z" />
    <glyph glyph-name="imacron" unicode="&#x12b;" horiz-adv-x="618" 
d="M659 1243h-503l16 92h504q-5 -31 -17 -92zM164 117q0 72 18 162l105 512q10 57 10 86q0 72 -53 71q-66 0 -176 -59v8q57 63 136 117t140 55q115 0 115 -145q0 -76 -19 -160l-104 -514q-10 -57 -10 -88q0 -72 55 -72q57 1 174 62v-9q-55 -61 -133 -115t-141 -55
q-117 0 -117 144z" />
    <glyph glyph-name="Ibreve" unicode="&#x12c;" horiz-adv-x="673" 
d="M516 1536q-100 0 -151 74t-58 172h8q19 -59 79 -94t128 -35t142 35t114 94h8q-90 -246 -270 -246zM-18 0q0 2 2 8q106 29 148 78t67 182l161 877q12 67 12 121t-30 86q-31 32 -106 53l2 4v4h510l-3 -4v-4q-111 -29 -153 -78t-66 -182l-161 -877q-13 -68 -13 -122t31 -86
t106 -52q0 -2 -2 -8h-505z" />
    <glyph glyph-name="ibreve" unicode="&#x12d;" horiz-adv-x="618" 
d="M385 1167q-102 0 -154 74q-51 74 -55 172h8q18 -59 78 -94t128 -35t142 35t115 94h8q-90 -246 -270 -246zM164 117q0 72 18 162l105 512q10 57 10 86q0 72 -53 71q-66 0 -176 -59v8q57 63 136 117t140 55q115 0 115 -145q0 -76 -19 -160l-104 -514q-10 -57 -10 -88
q0 -72 55 -72q57 1 174 62v-9q-55 -61 -133 -115t-141 -55q-117 0 -117 144z" />
    <glyph glyph-name="Iogonek" unicode="&#x12e;" horiz-adv-x="673" 
d="M336 -428q-80 0 -121 40t-41 87q0 88 93 164q93 75 194 137h-479l2 8q106 29 148 78t67 182l161 877q12 67 12 121t-30 86q-31 32 -106 53l2 8h510l-3 -8q-111 -29 -153 -78t-66 -182l-161 -877q-13 -68 -13 -122t31 -86t106 -52l-2 -8q-170 -150 -170 -272q0 -37 26 -62
q43 -41 128 -16v-8q-55 -70 -135 -70z" />
    <glyph glyph-name="iogonek" unicode="&#x12f;" horiz-adv-x="618" 
d="M398 -428q-74 0 -107 34t-33 83t43 128t86 135t117 144q-138 -123 -228 -123q-90 1 -107 93t15 213l107 536q27 133 -47 133q-66 0 -176 -59v8q59 66 136 119t135 53q106 0 117 -99q9 -85 -16 -206l-108 -539q-27 -135 49 -135q59 0 174 62v-9q-154 -252 -154 -411
q0 -88 86 -88q33 0 58 8v-8q-73 -72 -147 -72zM557 1339q0 -45 -32 -77q-33 -32 -77 -31q-44 0 -76 32q-32 31 -32 77t32 78t77 32t77 -33t31 -78z" />
    <glyph glyph-name="Idotaccent" unicode="&#x130;" horiz-adv-x="673" 
d="M653 1686q-1 -45 -33 -78t-78 -33t-78 32t-32 78q0 47 33 79t78 32t77 -32t33 -78zM-18 0q0 2 2 8q106 29 148 78t67 182l161 877q12 67 12 121t-30 86q-31 32 -106 53l2 4v4h510l-3 -4v-4q-111 -29 -153 -78t-66 -182l-161 -877q-34 -152 18 -208q31 -32 106 -52
q0 -2 -2 -8h-505z" />
    <glyph glyph-name="dotlessi" unicode="&#x131;" horiz-adv-x="618" 
d="M164 117q0 72 18 162l105 512q10 57 10 86q0 72 -53 71q-66 0 -176 -59v8q57 63 136 117t140 55q115 0 115 -145q0 -76 -19 -160l-104 -514q-10 -43 -10 -88q0 -72 55 -72q57 1 174 62v-9q-55 -61 -133 -115t-141 -55q-117 0 -117 144z" />
    <glyph glyph-name="IJ" unicode="&#x132;" horiz-adv-x="1339" 
d="M1067 1272q0 51 -31 82t-106 51v4l2 4h510v-4l-2 -4q-111 -29 -153 -79t-68 -191q-68 -362 -199 -1088q-39 -217 -173 -329q-67 -54 -117 -82t-132 -64v2l-2 4q197 127 246 399l211 1158q14 86 14 137zM-18 0q0 2 2 8q106 29 148 78t67 182l161 877q12 67 12 121t-30 86
q-31 32 -106 53l2 4v4h510l-3 -4v-4q-111 -29 -153 -78t-66 -182l-161 -877q-13 -68 -13 -122t31 -86t106 -52q0 -2 -2 -8h-505z" />
    <glyph glyph-name="ij" unicode="&#x133;" horiz-adv-x="1210" 
d="M983 1065q104 0 104 -141q0 -53 -18 -160l-135 -770q-63 -360 -393 -486l-2 11q76 45 134 151t83 244l159 877q10 39 11 92q-4 66 -56 65q-63 0 -174 -59v8q56 66 140 117t147 51zM1186 1339q0 -45 -33 -77t-78 -31q-45 0 -77 32q-32 33 -32 77t32 77t78 33t78 -33
t32 -78zM557 1339q0 -45 -32 -77q-33 -32 -77 -31q-44 0 -76 32q-32 31 -32 77t32 78t77 32t77 -33t31 -78zM274 -27q-111 0 -110 144q0 59 20 162l107 536q6 25 6 66q0 68 -53 67q-66 0 -176 -59v8q59 66 136 119t144 53q111 0 111 -145q0 -68 -19 -160l-96 -475l-12 -64
q-6 -37 -6 -65q2 -70 55 -70q59 1 174 62v-9q-154 -170 -281 -170z" />
    <glyph glyph-name="Jcircumflex" unicode="&#x134;" horiz-adv-x="665" 
d="M764 1532h-16l-189 131l-252 -131h-16l225 250h109zM-76 -428l-2 6q193 123 246 399l211 1158q25 143 1 192t-124 78l2 8h510l-2 -8q-111 -29 -153 -79t-68 -191l-199 -1088q-40 -219 -173 -329q-67 -54 -117 -82t-132 -64z" />
    <glyph glyph-name="jcircumflex" unicode="&#x135;" horiz-adv-x="591" 
d="M608 1163h-16q-168 117 -186 131q-172 -90 -254 -131h-17l225 250h109q119 -213 139 -250zM305 877q0 72 -51 71q-66 0 -176 -59v8q57 63 136 117t140 55q113 0 113 -137q0 -70 -16 -168l-136 -770q-63 -360 -393 -486l-2 11q76 45 134 151t83 244l150 821l16 101
q2 16 2 41z" />
    <glyph glyph-name="Kcommaaccent" unicode="&#x136;" horiz-adv-x="1441" 
d="M584 -182q0 34 26 60t68 26q43 0 72 -33t28 -74q0 -85 -82 -161t-192 -121l-4 6q117 98 116 178q0 16 -16 50t-16 69zM1382 0h-516q0 2 2 8q49 10 72 18q57 19 57 81q0 63 -94 249l-209 410l-286 -248l-46 -250q-14 -70 -10 -118q0 -64 30 -94t105 -48v-4l-2 -4h-510v4
q2 2 2 4q109 29 150 78t66 182l161 877q12 72 12 126t-31 84q-30 30 -106 50v4l2 4h512l-2 -4v-4q-111 -29 -153 -78t-66 -182l-100 -543l514 457q203 182 203 258q0 55 -103 88v4l2 4h514v-4l-2 -4q-119 -33 -209 -93t-299 -243l-219 -190l269 -523q104 -205 152 -262
t138 -86v-8z" />
    <glyph glyph-name="kcommaaccent" unicode="&#x137;" horiz-adv-x="1036" 
d="M408 -183q0 35 26 61t69 26q41 0 71 -34t30 -77q0 -79 -84 -157t-190 -121l-6 6q117 94 116 178q0 16 -16 50t-16 68zM338 1308q0 60 -32 88t-118 48l2 8q203 16 359 92h8q-109 -608 -281 -1544h-161l213 1198q10 50 10 110zM776 964q0 40 34 72t81 33q47 0 82 -34
t35 -85q0 -88 -168 -202q-61 -41 -248 -152l172 -338q72 -170 154 -170q51 0 143 49v-2q2 -4 2 -6q-43 -61 -116 -109t-141 -47q-68 0 -112 49q-42 49 -108 201l-150 344q242 111 432 281q-40 8 -66 42t-26 74z" />
    <glyph glyph-name="kgreenlandic" unicode="&#x138;" horiz-adv-x="1081" 
d="M806 -27q-68 -1 -112 49q-43 50 -108 201l-150 344q242 111 432 281q-40 8 -66 42t-26 74t34 72t81 33q47 0 82 -34t35 -85q0 -88 -168 -202q-61 -41 -248 -152l172 -338q47 -92 81 -131t79 -39t137 49l2 -8q-43 -61 -116 -109t-141 -47zM285 866q0 82 -56 82
q-63 0 -176 -59v8q162 172 276 172t113 -147q0 -76 -16 -158l-150 -764h-157l162 815q4 18 4 51z" />
    <glyph glyph-name="Lacute" unicode="&#x139;" horiz-adv-x="1107" 
d="M406 1532h-11q135 113 154 250h186q-83 -160 -329 -250zM664 55q70 1 140 55t206 212h8l-98 -322h-947l2 8q109 27 152 80t66 180l161 877q23 127 -2 180t-123 80l2 8h510l-2 -8q-109 -27 -153 -80t-66 -180l-201 -1090h345z" />
    <glyph glyph-name="lacute" unicode="&#x13a;" horiz-adv-x="604" 
d="M346 1559h-10q137 115 153 249h189q-88 -161 -332 -249zM141 117q0 51 19 162l164 919q12 62 12 116t-32 82t-120 48v8q199 16 361 92h8q-49 -254 -149 -802t-99 -570q0 -82 57 -82q66 1 175 62v-9q-55 -61 -135 -115t-144 -55q-117 0 -117 144z" />
    <glyph glyph-name="Lcommaaccent" unicode="&#x13b;" horiz-adv-x="1107" 
d="M449 -303q0 18 -17 52q-16 33 -16 67t26 61q27 27 69 27t72 -33t29 -76q0 -81 -84 -159t-192 -121l-4 4q117 100 117 178zM664 55q70 1 140 55t206 212h8l-98 -322h-947l2 8q109 27 152 80t66 180l161 877q23 127 -2 180t-123 80l2 8h510l-2 -8q-109 -27 -153 -80
t-66 -180l-201 -1090h345z" />
    <glyph glyph-name="lcommaaccent" unicode="&#x13c;" horiz-adv-x="604" 
d="M160 -301q0 16 -16 50t-17 68q0 35 27 61q26 26 68 26t72 -34t30 -77q0 -80 -84 -158q-85 -77 -191 -120l-6 6q117 94 117 178zM141 117q0 51 19 162l164 919q12 86 12 107q0 63 -32 91t-120 48v8q199 16 361 92h8q-49 -254 -149 -802t-99 -570q0 -82 57 -82q66 1 175 62
v-9q-55 -61 -135 -115t-144 -55q-117 0 -117 144z" />
    <glyph glyph-name="Lcaron" unicode="&#x13d;" horiz-adv-x="1107" 
d="M827 1153q0 37 -14 95t-14 92t23 61q24 27 65 27t67 -30q26 -28 27 -65q-1 -37 -21 -72t-32 -55t-36 -50t-41 -52t-75 -92l-12 4q63 70 63 137zM664 55q70 1 140 55t206 212h8l-98 -322h-947l2 8q109 27 152 80t66 180l161 877q23 127 -2 180t-123 80l2 8h510l-2 -8
q-109 -27 -153 -80t-66 -180l-201 -1090h345z" />
    <glyph glyph-name="lcaron" unicode="&#x13e;" horiz-adv-x="688" 
d="M666 1333l-19 113q0 45 24 72q25 26 65 26t66 -28q60 -66 -23 -188q-44 -64 -92 -124t-62 -78l-15 7q55 84 56 200zM141 117q0 51 19 162l164 919q12 62 12 116t-32 82t-120 48v8q199 16 361 92h8q-49 -254 -149 -802t-99 -570q0 -82 57 -82q66 1 175 62v-9
q-55 -61 -135 -115t-144 -55q-117 0 -117 144z" />
    <glyph glyph-name="Ldot" unicode="&#x13f;" horiz-adv-x="1107" 
d="M681 608q-50 0 -86 36t-36 86t36 86t86 36t86 -36t36 -86t-36 -86t-86 -36zM664 55q70 1 140 55t206 212h8l-98 -322h-947l2 8q109 27 152 80t66 180l161 877q23 127 -2 180t-123 80l2 8h510l-2 -8q-109 -27 -153 -80t-66 -180l-201 -1090h345z" />
    <glyph glyph-name="ldot" unicode="&#x140;" horiz-adv-x="696" 
d="M748 732q0 -50 -36 -86t-86 -36t-86 36t-36 86t36 86t86 36t86 -36t36 -86zM141 117q0 51 19 162l164 919q12 62 12 116t-32 82t-120 48v8q199 16 361 92h8q-49 -254 -149 -802t-99 -570q0 -82 57 -82q66 1 175 62v-9q-55 -61 -135 -115t-144 -55q-117 0 -117 144z" />
    <glyph glyph-name="Lslash" unicode="&#x141;" horiz-adv-x="1107" 
d="M664 55q70 1 140 55t206 212h8l-98 -322h-947l2 8q109 27 152 80t66 180l53 289l-156 -53l8 78l162 55l94 508q23 127 -2 180t-123 80l2 8h510l-2 -8q-109 -27 -153 -80t-66 -180l-82 -445l242 86l-6 -77l-250 -88l-105 -566h345z" />
    <glyph glyph-name="lslash" unicode="&#x142;" horiz-adv-x="604" 
d="M141 127q0 59 17 152l102 565l-176 -64l8 78l182 68l50 272q12 62 12 116t-33 83t-121 47l2 8q199 16 361 92h8l-102 -555l192 74l-8 -78l-199 -76l-119 -659q-10 -55 -10 -84q0 -76 49 -76q68 1 181 62v-9q-57 -61 -137 -115t-142 -55q-117 0 -117 154z" />
    <glyph glyph-name="Nacute" unicode="&#x143;" horiz-adv-x="1595" 
d="M836 1532h-11q137 115 154 250h188q-87 -162 -331 -250zM1294 -20h-75l-781 1255l-149 -809q-41 -238 -26 -312t110 -106l-2 -8h-394l3 8q104 33 147 107t86 311l143 780q12 61 -29 119q-42 57 -134 80l2 8h342l731 -1171l137 745q29 162 31 242t-24 117t-91 59l2 8h395
l-2 -8q-106 -33 -149 -107t-86 -311z" />
    <glyph glyph-name="nacute" unicode="&#x144;" horiz-adv-x="1187" 
d="M549 1163h-10q137 115 153 250h189q-88 -162 -332 -250zM295 877q0 72 -55 71q-63 0 -174 -59v8q158 172 280 172q113 0 113 -143q0 -43 -8 -84q227 227 397 227q96 0 142 -62q46 -63 46 -147t-12 -145l-90 -465q-10 -57 -10 -88q0 -72 53 -72q63 0 174 62v-5l2 -4
q-158 -170 -285 -170q-109 0 -108 142q0 113 26 231t60 262q33 145 35 209q0 147 -119 148q-141 0 -318 -172l-143 -793h-160l144 791q10 57 10 86z" />
    <glyph glyph-name="Ncommaaccent" unicode="&#x145;" horiz-adv-x="1595" 
d="M664 -303q0 18 -17 52q-16 33 -16 67t26 61q27 27 69 27t72 -33t29 -76q1 -81 -83 -159t-193 -121l-4 4q117 100 117 178zM1294 -20h-75l-781 1255l-149 -809q-41 -238 -26 -312t110 -106l-2 -8h-394l3 8q104 33 147 107t86 311l143 780q12 61 -29 119q-42 57 -134 80
l2 8h342l731 -1171l137 745q29 162 31 242t-24 117t-91 59l2 8h395l-2 -8q-106 -33 -149 -107t-86 -311z" />
    <glyph glyph-name="ncommaaccent" unicode="&#x146;" horiz-adv-x="1187" 
d="M451 -182q1 34 27 60t68 26t70 -33t29 -74q1 -85 -81 -161t-193 -121l-4 6q117 98 116 178q0 16 -16 50t-16 69zM295 877q0 72 -55 71q-63 0 -174 -59v8q158 172 280 172q113 0 113 -143q0 -43 -8 -84q227 227 397 227q96 0 142 -62q46 -63 46 -147t-12 -145l-90 -465
q-10 -57 -10 -88q0 -72 53 -72q63 0 174 62v-5l2 -4q-158 -170 -285 -170q-109 0 -108 142q0 113 26 231t60 262q33 145 35 209q0 147 -119 148q-141 0 -318 -172l-143 -793h-160l144 791q10 57 10 86z" />
    <glyph glyph-name="Ncaron" unicode="&#x147;" horiz-adv-x="1595" 
d="M1026 1532h-108l-136 250h17l184 -131l256 131h16zM1294 -20h-75l-781 1255l-149 -809q-41 -238 -26 -312t110 -106l-2 -8h-394l3 8q104 33 147 107t86 311l143 780q12 61 -29 119q-42 57 -134 80l2 8h342l731 -1171l137 745q29 162 31 242t-24 117t-91 59l2 8h395l-2 -8
q-106 -33 -149 -107t-86 -311z" />
    <glyph glyph-name="ncaron" unicode="&#x148;" horiz-adv-x="1187" 
d="M754 1163h-109l-135 250h16q61 -45 185 -131l256 131h16zM295 877q0 72 -55 71q-63 0 -174 -59v8q158 172 280 172q113 0 113 -143q0 -43 -8 -84q227 227 397 227q96 0 142 -62q46 -63 46 -147t-12 -145l-90 -465q-10 -57 -10 -88q0 -72 53 -72q63 0 174 62v-5l2 -4
q-158 -170 -285 -170q-109 0 -108 142q0 113 26 231t60 262q33 145 35 209q0 147 -119 148q-141 0 -318 -172l-143 -793h-160l144 791q10 57 10 86z" />
    <glyph glyph-name="napostrophe" unicode="&#x149;" horiz-adv-x="1187" 
d="M375 1328q-1 26 -17 60t-16 68t26 61t68 27t72 -33q29 -33 29 -75q-1 -82 -85 -162t-190 -123l-4 4q55 47 86 97t31 76zM295 877q0 72 -55 71q-63 0 -174 -59v8q158 172 280 172q113 0 113 -143q0 -43 -8 -84q227 227 397 227q96 0 142 -62q46 -63 46 -147t-12 -145
l-90 -465q-10 -57 -10 -88q0 -72 53 -72q63 0 174 62v-5l2 -4q-158 -170 -285 -170q-109 0 -108 142q0 113 26 231t60 262q33 145 35 209q0 147 -119 148q-141 0 -318 -172l-143 -793h-160l144 791q10 57 10 86z" />
    <glyph glyph-name="Eng" unicode="&#x14a;" horiz-adv-x="1595" 
d="M258 180q0 -80 26 -114t89 -58l-2 -8h-394l3 8q104 33 147 107t86 311l141 764q29 160 -161 215l2 8h342l731 -1171l137 745q31 162 31 243t-26 116t-89 59l2 8h395l-2 -8q-106 -33 -149 -107t-86 -311l-166 -885q-37 -198 -134 -316t-247 -118q-102 0 -103 70
q0 45 37 84q49 -23 101 -23q157 0 231 211l-762 1225l-149 -809q-31 -166 -31 -246z" />
    <glyph glyph-name="eng" unicode="&#x14b;" horiz-adv-x="1187" 
d="M295 877q0 72 -53 71q-66 0 -176 -59v8q55 66 139 117t147 51q104 0 105 -137q0 -43 -11 -109q76 100 189 175t207 75t144 -60t50 -171q0 -59 -12 -123l-131 -721q-68 -362 -393 -486l-2 11q76 45 133 151t84 244l153 807q10 57 11 98q0 145 -113 146q-76 -1 -164 -59
t-164 -148l-137 -758h-160l144 791q10 57 10 86z" />
    <glyph glyph-name="Omacron" unicode="&#x14c;" horiz-adv-x="1597" 
d="M1249 1612h-504l17 92h504zM934 1397q-232 0 -417 -223t-214 -535q-31 -266 80 -445t332 -180q250 0 434 226t215 534q29 266 -84 444q-114 178 -346 179zM104 653q16 166 101 317q158 283 472 412q144 59 281 60q258 0 444 -199t157 -502q-21 -217 -153 -397t-318 -277
t-381 -98q-266 1 -449 193t-154 491z" />
    <glyph glyph-name="omacron" unicode="&#x14d;" horiz-adv-x="1089" 
d="M887 1243h-504l16 92h504q-4 -31 -16 -92zM1008 621v-25q-12 -236 -178 -428t-373 -193q-158 0 -267 129t-108 324v25q0 225 175 421t378 195q157 1 265 -127t108 -321zM262 352q0 -154 56 -244t148 -90q91 0 162 68q120 115 178 406t-37 444q-57 90 -157 90t-183 -106
t-125 -260t-42 -308z" />
    <glyph glyph-name="Obreve" unicode="&#x14e;" horiz-adv-x="1597" 
d="M969 1536q-100 0 -152 74q-51 74 -57 172h8q18 -59 78 -94t129 -35t143 35t113 94h8q-90 -246 -270 -246zM934 1397q-232 0 -417 -223t-214 -535q-31 -266 80 -445t332 -180q250 0 434 226t215 534q29 266 -84 444q-114 178 -346 179zM104 653q16 166 101 317
q158 283 472 412q144 59 281 60q258 0 444 -199t157 -502q-21 -217 -153 -397t-318 -277t-381 -98q-266 1 -449 193t-154 491z" />
    <glyph glyph-name="obreve" unicode="&#x14f;" horiz-adv-x="1089" 
d="M664 1167q-102 0 -154 74q-51 74 -55 172h8q19 -59 79 -94t127 -35t141 35t116 94h8q-90 -246 -270 -246zM1008 621v-25q-12 -236 -178 -428t-373 -193q-158 0 -267 129t-108 324v25q0 225 175 421t378 195q157 1 265 -127t108 -321zM262 352q0 -154 56 -244t148 -90
q91 0 162 68q120 115 178 406t-37 444q-57 90 -157 90t-183 -106t-125 -260t-42 -308z" />
    <glyph glyph-name="Ohungarumlaut" unicode="&#x150;" horiz-adv-x="1597" 
d="M1077 1532h-18q57 141 71 250h156q-74 -131 -209 -250zM834 1532h-19q57 141 72 250h155q-73 -131 -208 -250zM934 1397q-232 0 -417 -223t-214 -535q-31 -266 80 -445t332 -180q250 0 434 226t215 534q29 266 -84 444q-114 178 -346 179zM104 653q16 166 101 317
q158 283 472 412q144 59 281 60q258 0 444 -199t157 -502q-21 -217 -153 -397t-318 -277t-381 -98q-266 1 -449 193t-154 491z" />
    <glyph glyph-name="ohungarumlaut" unicode="&#x151;" horiz-adv-x="1089" 
d="M739 1163h-18q57 141 72 250h155q-74 -131 -209 -250zM496 1163h-19q57 141 72 250h156q-74 -131 -209 -250zM1008 621v-25q-12 -236 -178 -428t-373 -193q-158 0 -267 129t-108 324v25q0 225 175 421t378 195q157 1 265 -127t108 -321zM262 352q0 -154 56 -244t148 -90
q91 0 162 68q120 115 178 406t-37 444q-57 90 -157 90t-183 -106t-125 -260t-42 -308z" />
    <glyph glyph-name="OE" unicode="&#x152;" horiz-adv-x="2236" 
d="M276 532q0 -226 110 -372t300 -146q188 0 341 124t238 322t85 420t-112 370q-112 146 -300 146t-339 -120q-151 -121 -237 -320q-86 -198 -86 -424zM690 -31q-252 0 -431 167t-179 423t135 460q135 203 331 313t373 110t305 -83t193 -233l53 287h734l-54 -289h-8
q-49 152 -87 193t-142 41h-285l-110 -604h272q70 0 113 26t106 105h8l-57 -316h-8q-35 78 -68 104t-104 25h-275l-116 -643h342q92 0 147 43t217 224h8l-98 -322h-797q10 49 45 238q-111 -127 -259 -198t-304 -71z" />
    <glyph glyph-name="oe" unicode="&#x153;" horiz-adv-x="1632" 
d="M1290 1022q-115 0 -215 -156t-110 -362q237 33 349 133q112 101 112 243t-136 142zM262 346q0 -148 56 -238t160 -90t188 115t122 265t37 300q0 148 -56 238t-155 90q-154 0 -253 -215t-99 -465zM1214 94q169 0 310 166l12 -14q-51 -98 -161 -184q-111 -86 -229 -87
q-233 0 -308 234q-154 -233 -379 -234q-160 0 -269 129t-108 324q0 244 174 442t377 199q106 0 186 -68t117 -186q78 117 184 185t214 69q108 0 177 -54q70 -54 70 -157q0 -307 -618 -391l2 -43q5 -158 75 -244t174 -86z" />
    <glyph glyph-name="Racute" unicode="&#x154;" horiz-adv-x="1320" 
d="M692 1532h-10q135 113 154 250h186q-84 -160 -330 -250zM1167 0q-163 0 -205 26t-106 160l-217 455h-199q-39 -228 -65 -362l-6 -33q-24 -140 20 -187q29 -31 109 -51q0 -2 -2 -8h-510q0 2 2 8q110 29 150 79t67 192q96 518 157 856q38 156 -15 215q-30 33 -107 55l2 4v4
h563q203 0 319 -91t115 -243q0 -152 -92 -251q-74 -76 -216 -120q-54 -17 -126 -34q76 -145 231 -436q70 -131 113 -171t135 -59q0 -2 -2 -8h-115zM645 694q164 0 289 104t125 287q0 125 -75 199t-214 74h-199l-120 -664h194z" />
    <glyph glyph-name="racute" unicode="&#x155;" horiz-adv-x="817" 
d="M416 1163h-10q135 113 153 250h186q-83 -160 -329 -250zM293 883q0 66 -51 65q-61 0 -181 -80v9q57 72 135 132t144 60q111 0 111 -143q0 -51 -19 -154q154 297 299 297q51 0 88 -33t37 -80q0 -46 -30 -76t-74 -30t-78 32q-33 32 -35 79q-113 -68 -225 -320l-115 -641
h-164l146 791q12 55 12 92z" />
    <glyph glyph-name="Rcommaaccent" unicode="&#x156;" horiz-adv-x="1320" 
d="M628 -96q42 0 70 -33t29 -74q1 -85 -81 -161t-193 -121l-4 6q117 98 116 178q0 16 -16 50q-17 34 -17 69q0 34 27 60t69 26zM1167 0q-163 0 -205 26t-106 160l-217 455h-199q-39 -228 -65 -362l-6 -33q-24 -140 20 -187q29 -31 109 -51q0 -2 -2 -8h-510q0 2 2 8
q110 29 150 79t67 192q96 518 157 856q38 156 -15 215q-30 33 -107 55l2 4v4h563q203 0 319 -91t115 -243q0 -152 -92 -251q-74 -76 -216 -120q-54 -17 -126 -34q76 -145 231 -436q70 -131 113 -171t135 -59q0 -2 -2 -8h-115zM645 694q164 0 289 104t125 287q0 125 -75 199
t-214 74h-199l-120 -664h194z" />
    <glyph glyph-name="rcommaaccent" unicode="&#x157;" horiz-adv-x="817" 
d="M127 -303q0 18 -16 52q-17 35 -17 67t27 60t69 28t72 -33q29 -33 29 -76q0 -80 -84 -159q-85 -78 -191 -121l-6 4q117 98 117 178zM293 883q0 66 -51 65q-61 0 -181 -80v9q57 72 135 132t144 60q111 0 111 -143q0 -51 -19 -154q154 297 299 297q51 0 88 -33t37 -80
q0 -46 -30 -76t-74 -30t-78 32q-33 32 -35 79q-113 -68 -225 -320l-115 -641h-164l146 791q12 55 12 92z" />
    <glyph glyph-name="Rcaron" unicode="&#x158;" horiz-adv-x="1320" 
d="M840 1532h-109l-135 250h16q61 -45 185 -131l256 131h16zM1167 0q-163 0 -205 26t-106 160l-217 455h-199q-39 -228 -65 -362l-6 -33q-24 -140 20 -187q29 -31 109 -51q0 -2 -2 -8h-510q0 2 2 8q110 29 150 79t67 192q96 518 157 856q38 156 -15 215q-30 33 -107 55l2 4
v4h563q203 0 319 -91t115 -243q0 -152 -92 -251q-74 -76 -216 -120q-54 -17 -126 -34q76 -145 231 -436q70 -131 113 -171t135 -59q0 -2 -2 -8h-115zM645 694q164 0 289 104t125 287q0 125 -75 199t-214 74h-199l-120 -664h194z" />
    <glyph glyph-name="rcaron" unicode="&#x159;" horiz-adv-x="817" 
d="M557 1163h-108l-136 250h17l184 -131l256 131h16zM293 883q0 66 -51 65q-61 0 -181 -80v9q57 72 135 132t144 60q111 0 111 -143q0 -51 -19 -154q154 297 299 297q51 0 88 -33t37 -80q0 -46 -30 -76t-74 -30t-78 32q-33 32 -35 79q-113 -68 -225 -320l-115 -641h-164
l146 791q12 55 12 92z" />
    <glyph glyph-name="Sacute" unicode="&#x15a;" horiz-adv-x="1024" 
d="M596 1532h-10q137 115 153 250h189q-88 -162 -332 -250zM443 14q120 0 214 81t95 212q0 86 -56 163q-55 77 -133 137q-77 61 -155 123t-134 146t-55 177q0 182 141 285q272 199 668 18l-51 -277h-8q-35 150 -122 233t-201 83t-194 -73t-79 -187q0 -69 40 -133t100 -111
t130 -103t130 -109q60 -52 100 -127t40 -159q1 -197 -149 -311t-354 -113q-96 1 -204 25t-169 57l61 340h8q31 -197 124 -287t213 -90z" />
    <glyph glyph-name="sacute" unicode="&#x15b;" horiz-adv-x="792" 
d="M403 1163h-10q135 113 154 250h186q-84 -160 -330 -250zM337 -25q-132 -1 -222 63t-90 144q0 47 31 82q32 35 80 35t80 -30q32 -31 32 -77t-30 -79t-68 -37q18 -20 66 -38t120 -20q72 0 140 52q69 52 69 154q0 101 -135 209q-55 44 -112 91q-56 47 -96 113t-40 139
q0 143 102 218t216 75t198 -52t84 -126q0 -47 -31 -78t-76 -31t-75 29t-29 72q0 43 29 75t67 35q-49 33 -141 33t-150 -50t-59 -124q0 -74 40 -126q40 -54 98 -98q57 -44 115 -90q138 -110 138 -249t-109 -227q-110 -87 -242 -87z" />
    <glyph glyph-name="Scircumflex" unicode="&#x15c;" horiz-adv-x="1024" 
d="M909 1532h-16l-188 131l-252 -131h-17l226 250h108zM443 14q120 0 214 81t95 212q0 86 -56 163q-55 77 -133 137q-77 61 -155 123t-134 146t-55 177q0 182 141 285q272 199 668 18l-51 -277h-8q-35 150 -122 233t-201 83t-194 -73t-79 -187q0 -69 40 -133t100 -111
t130 -103t130 -109q60 -52 100 -127t40 -159q1 -197 -149 -311t-354 -113q-96 1 -204 25t-169 57l61 340h8q31 -197 124 -287t213 -90z" />
    <glyph glyph-name="scircumflex" unicode="&#x15d;" horiz-adv-x="792" 
d="M745 1163h-16l-186 131l-254 -131h-17l226 250h108zM337 -25q-132 -1 -222 63t-90 144q0 47 31 82q32 35 80 35t80 -30q32 -31 32 -77t-30 -79t-68 -37q18 -20 66 -38t120 -20q72 0 140 52q69 52 69 154q0 101 -135 209q-55 44 -112 91q-56 47 -96 113t-40 139
q0 143 102 218t216 75t198 -52t84 -126q0 -47 -31 -78t-76 -31t-75 29t-29 72q0 43 29 75t67 35q-49 33 -141 33t-150 -50t-59 -124q0 -74 40 -126q40 -54 98 -98q57 -44 115 -90q138 -110 138 -249t-109 -227q-110 -87 -242 -87z" />
    <glyph glyph-name="Scedilla" unicode="&#x15e;" horiz-adv-x="1024" 
d="M318 -381q60 0 105 28q44 28 44 77q0 48 -57 74t-121 28l137 143h-16q-96 0 -204 25t-169 57l61 340h8q31 -197 124 -287t214 -90t214 81t94 216q0 84 -56 160q-55 76 -133 136q-77 61 -155 123q-188 152 -189 328q0 177 141 280q272 198 668 18l-51 -277h-8
q-35 150 -121 233t-200 83t-194 -73t-81 -189q0 -144 190 -286q80 -61 160 -123t135 -147t55 -182q-1 -175 -121 -287t-300 -135l-66 -77q62 -6 114 -48t52 -106q0 -90 -81 -130t-177 -40t-164 53l29 23q59 -29 119 -29z" />
    <glyph glyph-name="scedilla" unicode="&#x15f;" horiz-adv-x="792" 
d="M194 -381q60 0 105 29t45 77q0 47 -57 73t-121 28l143 149q-119 7 -201 69t-83 138q0 47 31 82q32 35 80 35t80 -30q32 -31 32 -77t-30 -79t-68 -37q18 -20 66 -38t120 -20q72 0 140 52q69 52 69 154q0 101 -135 209q-55 44 -112 91q-56 47 -96 113t-40 139
q0 143 102 218t216 75t198 -52t84 -126q0 -47 -31 -78t-76 -31t-75 29t-29 72q0 43 29 75t67 35q-49 33 -141 33t-150 -50t-59 -124q0 -74 40 -126q40 -54 98 -98q57 -44 115 -90q138 -110 138 -243t-93 -218t-222 -97l-70 -84q61 -6 113 -48t53 -106q0 -90 -81 -130
t-178 -40t-163 53l29 23q58 -29 118 -29z" />
    <glyph glyph-name="Scaron" unicode="&#x160;" horiz-adv-x="1024" 
d="M735 1532h-108l-135 250h16l184 -131l256 131h17zM443 14q120 0 214 81t95 212q0 86 -56 163q-55 77 -133 137q-77 61 -155 123t-134 146t-55 177q0 182 141 285q272 199 668 18l-51 -277h-8q-35 150 -122 233t-201 83t-194 -73t-79 -187q0 -69 40 -133t100 -111
t130 -103t130 -109q60 -52 100 -127t40 -159q1 -197 -149 -311t-354 -113q-96 1 -204 25t-169 57l61 340h8q31 -197 124 -287t213 -90z" />
    <glyph glyph-name="scaron" unicode="&#x161;" horiz-adv-x="792" 
d="M555 1163h-109l-135 250h17l184 -131l256 131h16zM337 -25q-132 -1 -222 63t-90 144q0 47 31 82q32 35 80 35t80 -30q32 -31 32 -77t-30 -79t-68 -37q18 -20 66 -38t120 -20q72 0 140 52q69 52 69 154q0 101 -135 209q-55 44 -112 91q-56 47 -96 113t-40 139
q0 143 102 218t216 75t198 -52t84 -126q0 -47 -31 -78t-76 -31t-75 29t-29 72q0 43 29 75t67 35q-49 33 -141 33t-150 -50t-59 -124q0 -74 40 -126q40 -54 98 -98q57 -44 115 -90q138 -110 138 -249t-109 -227q-110 -87 -242 -87z" />
    <glyph glyph-name="Tcommaaccent" unicode="&#x162;" horiz-adv-x="1314" 
d="M453 -184q0 32 26 60q27 28 70 28t72 -33t28 -76q0 -81 -84 -159t-190 -121l-6 4q117 98 116 178q0 18 -16 52q-16 35 -16 67zM809 0h-510l2 8q111 29 153 80t68 191l197 1079h-223q-47 0 -90 -35q-42 -35 -106 -101t-72 -72q-8 -8 -18 -20q-11 -12 -22 -22h-8l96 305
h1074l-15 -305h-8q-77 161 -115 205q-37 45 -84 45h-243l-197 -1079q-25 -141 -2 -191t123 -80v-8z" />
    <glyph glyph-name="tcommaaccent" unicode="&#x163;" horiz-adv-x="636" 
d="M213 -301q0 16 -16 50q-39 83 10 129q27 26 69 26t70 -33q29 -33 29 -74q0 -85 -82 -161t-193 -121l-4 6q117 98 117 178zM109 967q0 6 -3 18q20 7 70 25t62 24q14 6 46 28t47 48q55 97 81 180h98l-47 -246h252q-4 -25 -8 -73h-254l-129 -721q-8 -53 -9 -70q0 -82 66 -82
q74 0 197 66v-8q-52 -62 -146 -122t-162 -61q-119 0 -118 152q0 47 18 154l123 688h-184z" />
    <glyph glyph-name="Tcaron" unicode="&#x164;" horiz-adv-x="1314" 
d="M877 1532h-109l-135 250h16l185 -131l256 131h16zM809 0h-510l2 8q111 29 153 80t68 191l197 1079h-223q-47 0 -90 -35q-42 -35 -106 -101t-72 -72q-8 -8 -18 -20q-11 -12 -22 -22h-8l96 305h1074l-15 -305h-8q-77 161 -115 205q-37 45 -84 45h-243l-197 -1079
q-25 -141 -2 -191t123 -80v-8z" />
    <glyph glyph-name="tcaron" unicode="&#x165;" horiz-adv-x="636" 
d="M776 1516q26 -28 27 -66q-1 -37 -21 -72t-32 -55t-36 -50t-45 -58t-71 -87l-12 5q55 98 55 206l-20 107q0 45 23 72q24 26 65 26t67 -28zM109 967q0 6 -3 18q20 7 70 25t62 24q14 6 46 28t47 48q55 97 81 180h98l-47 -246h252q-4 -25 -8 -73h-254l-129 -721
q-8 -53 -9 -70q0 -82 66 -82q74 0 197 66v-8q-52 -62 -146 -122t-162 -61q-119 0 -118 152q0 47 18 154l123 688h-184z" />
    <glyph glyph-name="Tbar" unicode="&#x166;" horiz-adv-x="1314" 
d="M809 0h-510l2 8q111 29 153 80t68 191l76 417h-229l10 60h229l111 602h-225q-39 0 -58 -14q-20 -14 -42 -28q-22 -15 -74 -69q-51 -55 -80 -86t-52 -53h-8l96 305h1074l-15 -305h-8q-100 186 -128 218t-75 32h-239l-111 -602h234l-11 -60h-233l-76 -417q-25 -141 -2 -191
t123 -80v-8z" />
    <glyph glyph-name="tbar" unicode="&#x167;" horiz-adv-x="636" 
d="M109 967q0 6 -3 18q20 7 70 25t62 24q14 6 46 28t47 48q55 97 81 180h98l-47 -246h252q-4 -25 -8 -73h-254l-62 -336h256l-12 -70h-256q-6 -35 -33 -177t-28 -216t63 -74q74 0 197 66v-8q-52 -62 -146 -122t-162 -61q-117 0 -116 148q0 103 67 444h-182l12 70h182
q17 117 60 332h-184z" />
    <glyph glyph-name="Utilde" unicode="&#x168;" horiz-adv-x="1562" 
d="M1108 1614q-66 0 -150 35q-82 35 -112 34q-90 0 -129 -71l-17 4q32 72 97 118t119 46t136 -32q83 -32 113 -32q90 0 131 74l17 -4q-23 -52 -81 -112t-124 -60zM1364 1237q0 72 -26 108t-89 60v4l2 4h391v-4l-2 -4q-104 -33 -147 -109t-86 -309l-113 -606
q-37 -197 -184 -305q-146 -108 -386 -107q-240 0 -374 88q-133 88 -133 254q0 29 2 43v27l17 92q25 123 65 352q41 229 56 309t15 131q0 50 -30 84q-31 34 -106 56l2 4v4h512v-4l-2 -4q-109 -27 -152 -79t-66 -181q-149 -801 -149 -848q0 -121 90 -187t274 -65q184 0 316 89
q131 89 162 253l110 600q31 178 31 250z" />
    <glyph glyph-name="utilde" unicode="&#x169;" 
d="M798 1245q-54 0 -138 35t-111 35q-88 0 -131 -72l-17 4q23 49 81 107t124 57q66 0 148 -32t114 -31q90 -1 131 73l17 -4q-34 -75 -99 -124q-65 -48 -119 -48zM373 -27q-190 0 -191 238q0 75 101 580q10 61 10 94q-2 66 -57 65q-61 0 -173 -59v8q55 61 135 115t142 55
q115 0 115 -151q0 -47 -19 -154l-86 -445q-8 -45 -8 -106q0 -131 102 -131q70 0 160 61t168 152l135 747h162l-145 -792q-12 -57 -13 -78q0 -78 54 -78q74 1 178 60v-9q-55 -61 -135 -116t-142 -56q-115 0 -114 140q0 51 12 123q-78 -100 -191 -182t-200 -81z" />
    <glyph glyph-name="Umacron" unicode="&#x16a;" horiz-adv-x="1562" 
d="M1231 1612h-504l16 92h504q-4 -31 -16 -92zM1364 1237q0 72 -26 108t-89 60v4l2 4h391v-4l-2 -4q-104 -33 -147 -109t-86 -309l-113 -606q-37 -197 -184 -305q-146 -108 -386 -107q-240 0 -374 88q-133 88 -133 254q0 29 2 43v27l17 92q25 123 65 352q41 229 56 309
t15 131q0 50 -30 84q-31 34 -106 56l2 4v4h512v-4l-2 -4q-109 -27 -152 -79t-66 -181q-149 -801 -149 -848q0 -121 90 -187t274 -65q184 0 316 89q131 89 162 253l110 600q31 178 31 250z" />
    <glyph glyph-name="umacron" unicode="&#x16b;" 
d="M948 1243h-504l17 92h504q-5 -31 -17 -92zM373 -27q-190 0 -191 238q0 75 101 580q10 61 10 94q-2 66 -57 65q-61 0 -173 -59v8q55 61 135 115t142 55q115 0 115 -151q0 -47 -19 -154l-86 -445q-8 -45 -8 -106q0 -131 102 -131q70 0 160 61t168 152l135 747h162
l-145 -792q-12 -57 -13 -78q0 -78 54 -78q74 1 178 60v-9q-55 -61 -135 -116t-142 -56q-115 0 -114 140q0 51 12 123q-78 -100 -191 -182t-200 -81z" />
    <glyph glyph-name="Ubreve" unicode="&#x16c;" horiz-adv-x="1562" 
d="M969 1536q-100 0 -152 74q-51 74 -57 172h8q18 -59 78 -94t129 -35t143 35t113 94h8q-90 -246 -270 -246zM1364 1237q0 72 -26 108t-89 60v4l2 4h391v-4l-2 -4q-104 -33 -147 -109t-86 -309l-113 -606q-37 -197 -184 -305q-146 -108 -386 -107q-240 0 -374 88
q-133 88 -133 254q0 29 2 43v27l17 92q25 123 65 352q41 229 56 309t15 131q0 50 -30 84q-31 34 -106 56l2 4v4h512v-4l-2 -4q-109 -27 -152 -79t-66 -181q-149 -801 -149 -848q0 -121 90 -187t274 -65q184 0 316 89q131 89 162 253l110 600q31 178 31 250z" />
    <glyph glyph-name="ubreve" unicode="&#x16d;" 
d="M666 1167q-102 0 -154 74q-51 74 -55 172h8q19 -59 79 -94t127 -35t141 35t116 94h8q-90 -246 -270 -246zM373 -27q-190 0 -191 238q0 75 101 580q10 61 10 94q-2 66 -57 65q-61 0 -173 -59v8q55 61 135 115t142 55q115 0 115 -151q0 -47 -19 -154l-86 -445
q-8 -45 -8 -106q0 -131 102 -131q70 0 160 61t168 152l135 747h162l-145 -792q-12 -57 -13 -78q0 -78 54 -78q74 1 178 60v-9q-55 -61 -135 -116t-142 -56q-115 0 -114 140q0 51 12 123q-78 -100 -191 -182t-200 -81z" />
    <glyph glyph-name="Uring" unicode="&#x16e;" horiz-adv-x="1562" 
d="M981 1587q59 0 99 42q40 41 40 103t-40 104t-99 42t-100 -43t-41 -102t41 -103t100 -43zM1194 1733q0 -85 -64 -147t-149 -62q-86 0 -150 61q-63 61 -63 147t63 148t149 62t150 -62t64 -147zM1364 1237q0 72 -26 108t-89 60v4l2 4h391v-4l-2 -4q-104 -33 -147 -109
t-86 -309l-113 -606q-37 -197 -184 -305q-146 -108 -386 -107q-240 0 -374 88q-133 88 -133 254q0 29 2 43v27l17 92q25 123 65 352q41 229 56 309t15 131q0 50 -30 84q-31 34 -106 56l2 4v4h512v-4l-2 -4q-109 -27 -152 -79t-66 -181q-149 -801 -149 -848q0 -121 90 -187
t274 -65q184 0 316 89q131 89 162 253l110 600q31 178 31 250z" />
    <glyph glyph-name="uring" unicode="&#x16f;" 
d="M686 1219q59 0 99 42t40 103t-40 103t-99 42t-100 -43t-41 -102t41 -102t100 -43zM899 1364q0 -86 -63 -147q-64 -61 -150 -61t-149 60q-63 62 -64 148t63 147t150 61t150 -60q64 -62 63 -148zM373 -27q-190 0 -191 238q0 75 101 580q10 61 10 94q-2 66 -57 65
q-61 0 -173 -59v8q55 61 135 115t142 55q115 0 115 -151q0 -47 -19 -154l-86 -445q-8 -45 -8 -106q0 -131 102 -131q70 0 160 61t168 152l135 747h162l-145 -792q-12 -57 -13 -78q0 -78 54 -78q74 1 178 60v-9q-55 -61 -135 -116t-142 -56q-115 0 -114 140q0 51 12 123
q-78 -100 -191 -182t-200 -81z" />
    <glyph glyph-name="Uhungarumlaut" unicode="&#x170;" horiz-adv-x="1562" 
d="M1071 1532h-18q57 141 71 250h156q-74 -131 -209 -250zM827 1532h-18q57 141 72 250h155q-74 -131 -209 -250zM1364 1237q0 72 -26 108t-89 60v4l2 4h391v-4l-2 -4q-104 -33 -147 -109t-86 -309l-113 -606q-37 -197 -184 -305q-146 -108 -386 -107q-240 0 -374 88
q-133 88 -133 254q0 29 2 43v27l17 92q25 123 65 352q41 229 56 309t15 131q0 50 -30 84q-31 34 -106 56l2 4v4h512v-4l-2 -4q-109 -27 -152 -79t-66 -181q-149 -801 -149 -848q0 -121 90 -187t274 -65q184 0 316 89q131 89 162 253l110 600q31 178 31 250z" />
    <glyph glyph-name="uhungarumlaut" unicode="&#x171;" 
d="M750 1163h-19q59 158 70 250h155q-75 -135 -206 -250zM506 1163h-19q59 158 70 250h156q-76 -135 -207 -250zM373 -27q-190 0 -191 238q0 75 101 580q10 61 10 94q-2 66 -57 65q-61 0 -173 -59v8q55 61 135 115t142 55q115 0 115 -151q0 -47 -19 -154l-86 -445
q-8 -45 -8 -106q0 -131 102 -131q70 0 160 61t168 152l135 747h162l-145 -792q-12 -57 -13 -78q0 -78 54 -78q74 1 178 60v-9q-55 -61 -135 -116t-142 -56q-115 0 -114 140q0 51 12 123q-78 -100 -191 -182t-200 -81z" />
    <glyph glyph-name="Uogonek" unicode="&#x172;" horiz-adv-x="1562" 
d="M633 -428q-73 0 -109 36q-35 36 -35 83q0 75 81 143t210 139q-41 -4 -65 -4q-240 0 -370 92t-130 271q0 31 4 49l141 764q12 66 12 118t-30 86q-31 34 -106 56l2 8h512l-2 -8q-109 -27 -152 -79t-66 -181l-143 -764q-8 -27 -8 -70q0 -266 360 -266q190 0 322 89
q131 89 162 253l110 600q31 160 31 241t-26 117t-89 60l2 8h391l-2 -8q-104 -33 -147 -109t-86 -309l-113 -606q-33 -176 -155 -281q-123 -104 -326 -125q-176 -172 -176 -264q0 -70 82 -69q16 0 57 8v-8q-70 -70 -143 -70z" />
    <glyph glyph-name="uogonek" unicode="&#x173;" 
d="M983 -428q-73 0 -107 34t-34 83t42 125t81 127t114 141q-125 -109 -213 -109q-115 0 -114 140q0 51 12 123q-78 -100 -191 -182t-200 -81q-190 0 -191 238q0 51 13 117l88 463q10 61 10 94q-2 66 -57 65q-61 0 -173 -59v8q55 61 135 115t142 55q115 0 115 -151
q0 -47 -19 -154l-86 -445q-8 -45 -8 -106q0 -131 102 -131q70 0 160 61t168 152l135 747h162l-145 -792q-12 -57 -13 -78q0 -78 54 -78q74 0 178 60v-9q-158 -258 -158 -413q0 -88 86 -88q32 0 57 8v-8q-72 -72 -145 -72z" />
    <glyph glyph-name="Wcircumflex" unicode="&#x174;" horiz-adv-x="2004" 
d="M1399 1532h-17q-168 117 -186 131q-172 -90 -254 -131h-16l225 250h109q119 -213 139 -250zM639 1413v-8q-90 -25 -119 -70q-28 -45 -28 -186t69 -997l348 718q154 319 154 414q0 47 -29 74t-92 47v4l2 4h457v-4l-2 -4q-88 -25 -118 -69t-30 -152t21 -318l69 -700
l347 704q160 322 161 424q0 45 -25 69q-26 24 -85 42l2 4v4h424l-2 -4v-4q-68 -25 -112 -68t-104 -144t-178 -331l-444 -876h-115l-106 1118l-555 -1118h-125l-80 874q-30 318 -55 399q-26 80 -52 104t-73 42v4l2 4h473z" />
    <glyph glyph-name="wcircumflex" unicode="&#x175;" horiz-adv-x="1613" 
d="M1147 1163h-17l-186 131l-254 -131h-16l225 250h109zM172 170q0 43 10 109l90 512q8 45 9 86q0 72 -52 71q-61 0 -178 -61v8q164 174 283 174q109 0 108 -149q0 -68 -16 -156l-86 -485q-8 -41 -8 -82q0 -109 100 -109q164 0 256 240q75 191 121 444l41 219h154l-125 -712
q-35 -197 116 -197q119 0 227 128t164 293q57 165 58 296q0 57 -14 92q-36 -37 -90 -37t-87 30t-33 74t31 78q31 33 91 33t113 -68q54 -69 54 -193t-45 -267q-103 -327 -310 -483q-114 -85 -236 -85q-84 1 -142 51t-57 158q0 48 10 105h-8q-150 -313 -375 -314
q-74 0 -124 46t-50 151z" />
    <glyph glyph-name="Ycircumflex" unicode="&#x176;" horiz-adv-x="1280" 
d="M1044 1532h-16l-188 131l-252 -131h-17l226 250h108zM514 1280q0 -60 82 -281l117 -317l229 330q174 248 174 313q0 31 -23 48q-24 17 -75 32l2 8h403l-2 -8q-73 -10 -155 -92t-246 -307l-275 -383l-63 -344q-14 -77 -14 -129t30 -87t105 -55l-2 -8h-510l2 8
q106 27 151 84t68 187l63 339l-135 375q-90 242 -143 319t-125 93l2 8h459l-2 -8q-61 -12 -89 -38q-28 -27 -28 -87z" />
    <glyph glyph-name="ycircumflex" unicode="&#x177;" horiz-adv-x="974" 
d="M821 1163h-16l-187 131l-253 -131h-17l225 250h109zM831 864v17q-25 -29 -69 -29t-76 32q-33 32 -33 77t30 77t75 31q143 0 143 -176q0 -113 -101 -353t-210 -436q-334 -596 -570 -596q-70 0 -108 37t-39 82q0 45 30 76q31 31 75 31t76 -36t34 -104q152 51 338 340
q-25 275 -73 529q-91 481 -201 481q-51 0 -156 -55v8q145 172 274 172q72 0 113 -98q41 -99 90 -359t72 -487q286 553 286 739z" />
    <glyph glyph-name="Ydieresis" unicode="&#x178;" horiz-adv-x="1280" 
d="M956 1595q-44 0 -74 31t-30 73t31 73q31 30 73 30t73 -30q30 -30 30 -73q0 -42 -30 -73t-73 -31zM764 1699q0 -42 -30 -73t-73 -31q-42 0 -73 31t-31 73t31 73q31 30 73 30q43 0 73 -30t30 -73zM514 1280q0 -60 82 -281l117 -317l229 330q174 248 174 313q0 31 -23 48
q-24 17 -75 32l2 8h403l-2 -8q-73 -10 -155 -92t-246 -307l-275 -383l-63 -344q-14 -77 -14 -129t30 -87t105 -55l-2 -8h-510l2 8q106 27 151 84t68 187l63 339l-135 375q-90 242 -143 319t-125 93l2 8h459l-2 -8q-61 -12 -89 -38q-28 -27 -28 -87z" />
    <glyph glyph-name="Zacute" unicode="&#x179;" horiz-adv-x="1148" 
d="M608 1532h-10q135 113 154 250h186q-84 -160 -330 -250zM520 1358q-68 0 -124 -42t-201 -192h-9l95 289h952l-2 -8l-1030 -1350h508q67 1 133 53t200 214h9l-99 -322h-999l2 8l1038 1350h-473z" />
    <glyph glyph-name="zacute" unicode="&#x17a;" horiz-adv-x="851" 
d="M410 1163h-11q137 115 154 250h188q-87 -162 -331 -250zM596 -20q-38 0 -255 10q-216 10 -366 10v8l707 903h-317q-101 0 -139 -9t-85 -56h-16l57 198h678v-8l-710 -909q258 0 368 9t163 34q52 25 99 86l15 -2q-9 -18 -27 -68t-31 -76q-38 -89 -71 -110q-32 -20 -70 -20z
" />
    <glyph glyph-name="Zdotaccent" unicode="&#x17b;" horiz-adv-x="1148" 
d="M729 1575q-45 0 -78 32t-33 78q0 47 33 79t78 32t78 -33t33 -77t-33 -78q-33 -33 -78 -33zM520 1358q-68 0 -124 -42t-201 -192h-9l95 289h952l-2 -8l-1030 -1350h508q67 1 133 53t200 214h9l-99 -322h-999l2 8l1038 1350h-473z" />
    <glyph glyph-name="zdotaccent" unicode="&#x17c;" horiz-adv-x="851" 
d="M520 1206q-45 0 -78 33t-32 78q0 45 32 78q33 33 78 33t78 -34q33 -32 33 -78t-33 -78t-78 -32zM596 -20q-38 0 -255 10q-216 10 -366 10v8l707 903h-317q-101 0 -139 -9t-85 -56h-16l57 198h678v-8l-710 -909q258 0 368 9t163 34q52 25 99 86l15 -2q-9 -18 -27 -68
t-31 -76q-38 -89 -71 -110q-32 -20 -70 -20z" />
    <glyph glyph-name="Zcaron" unicode="&#x17d;" horiz-adv-x="1148" 
d="M768 1532h-109l-135 250h17l184 -131l256 131h16zM520 1358q-68 0 -124 -42t-201 -192h-9l95 289h952l-2 -8l-1030 -1350h508q67 1 133 53t200 214h9l-99 -322h-999l2 8l1038 1350h-473z" />
    <glyph glyph-name="zcaron" unicode="&#x17e;" horiz-adv-x="851" 
d="M573 1163h-108l-135 250h16l184 -131l256 131h17zM596 -20q-38 0 -255 10q-216 10 -366 10v8l707 903h-317q-101 0 -139 -9t-85 -56h-16l57 198h678v-8l-710 -909q258 0 368 9t163 34q52 25 99 86l15 -2q-9 -18 -27 -68t-31 -76q-38 -89 -71 -110q-32 -20 -70 -20z" />
    <glyph glyph-name="longs" unicode="&#x17f;" horiz-adv-x="638" 
d="M684 1544q116 0 172 -46t55 -104q1 -58 -29 -84q-30 -28 -74 -28t-76 27t-32 75q0 80 93 113q-23 8 -56 8q-88 -2 -150 -81t-95 -271l-199 -1159q-62 -353 -414 -486l-2 11q80 47 143 155t89 240l186 1061h-197l31 69h176l14 80q41 228 145 324t220 96z" />
    <glyph glyph-name="uni0180" unicode="&#x180;" horiz-adv-x="1146" 
d="M442 29q199 0 331 179t132 417q0 166 -67 260q-68 94 -172 94t-234 -94l-145 -807q74 -49 155 -49zM319 1194h-147l14 70h144v20q0 63 -34 96t-122 64v8q164 8 367 92h8l-51 -280h303l-15 -70h-301l-49 -276q54 61 140 106t176 45q141 0 237 -113q96 -112 96 -284
t-94 -333t-249 -262t-318 -102q-68 0 -165 19t-148 39l204 1132q4 20 4 29z" />
    <glyph glyph-name="uni0181" unicode="&#x181;" horiz-adv-x="1335" 
d="M608 55q184 0 306 91t122 268q0 133 -99 209t-253 75h-166l-117 -643h207zM676 754q180 0 296 98t115 262q-1 112 -79 178t-234 66h-135q-17 -104 -55 -306t-54 -298h146zM604 0h-553q0 2 2 8q109 27 152 81t67 190l162 874q12 59 12 111t-38 76t-120 24t-110 -14v-9
q57 -33 58 -108q0 -41 -33 -68t-78 -27t-75 30q-30 28 -30 79q0 78 82 122t242 44h412q500 0 499 -307q0 -281 -356 -361l-2 -4v-4q131 -20 226 -107t95 -212q1 -323 -391 -399q-102 -19 -223 -19z" />
    <glyph glyph-name="uni0182" unicode="&#x182;" horiz-adv-x="1224" 
d="M522 55q194 0 306 112t112 282q0 119 -81 191t-238 73h-181l-121 -658h203zM514 0h-539v4q2 2 2 4q106 27 151 83q44 56 69 192q115 631 141 775t26 201q0 58 -29 91q-30 33 -106 55v4l2 4h938q-16 -96 -53 -289h-8q-57 158 -89 196t-132 38h-328q-35 -197 -108 -590h202
q229 0 351 -86t120 -236q0 -226 -172 -336t-438 -110z" />
    <glyph glyph-name="uni0183" unicode="&#x183;" horiz-adv-x="1146" 
d="M442 29q199 0 331 179t132 417q0 166 -67 260q-68 94 -172 94t-234 -94q-109 -598 -145 -807q74 -49 155 -49zM188 1413h897q-16 -96 -53 -289h-8q-57 158 -89 196t-132 38h-289l-78 -440q54 61 140 106t176 45q141 0 237 -113q96 -112 96 -284t-94 -333t-249 -262
t-318 -102q-68 0 -165 19t-148 39l198 1102q13 86 13 134t-30 81t-106 55l2 4v4z" />
    <glyph glyph-name="uni0184" unicode="&#x184;" horiz-adv-x="1224" 
d="M514 0h-539v4q2 2 2 4q106 27 151 83q44 56 69 192l129 702l-185 199l4 37l404 221h29l-127 -674h202q229 0 351 -86t120 -236q0 -226 -172 -336t-438 -110zM522 55q194 0 306 112t112 282q0 119 -81 191t-238 73h-181l-121 -658h203z" />
    <glyph glyph-name="uni0185" unicode="&#x185;" horiz-adv-x="1146" 
d="M442 29q199 0 331 179t132 417q0 166 -67 260q-68 94 -172 94t-234 -94l-145 -807q74 -49 155 -49zM752 1069q141 0 237 -113q96 -112 96 -284t-94 -333t-249 -262t-318 -102q-68 0 -165 19t-148 39l170 952l-183 199l2 37l400 221h28l-92 -524q54 61 140 106t176 45z
" />
    <glyph glyph-name="uni0186" unicode="&#x186;" horiz-adv-x="1421" 
d="M1153 866q0 234 -123 382t-328 149q-289 0 -495 -322h-8l65 283q72 32 199 58t237 26q274 0 462 -175t188 -448q0 -190 -82 -354q-152 -304 -511 -436q-271 -98 -558 -34q-117 25 -176 56l38 281h9q82 -318 366 -318t501 251q216 251 216 601z" />
    <glyph glyph-name="uni0187" unicode="&#x187;" horiz-adv-x="1409" 
d="M768 -31q-279 0 -468 173t-189 444q0 158 55 297q99 251 343 405t505 154q180 0 352 -62q37 164 99 239t177 75q74 0 113 -27t39 -68t-26 -69t-62 -29q-36 0 -84 44q-49 44 -82 44q-33 1 -73 -65t-56 -168v-6q-35 -190 -47 -263h-8q-72 309 -364 309t-488 -243
q-196 -244 -197 -575q0 -248 128 -406t343 -158q273 0 486 330h8q-12 -47 -39 -143t-39 -146q-70 -35 -192 -61t-234 -25z" />
    <glyph glyph-name="uni0188" unicode="&#x188;" horiz-adv-x="860" 
d="M1098 1209q0 -41 -26 -69t-62 -28t-82 44q-45 44 -70 44q-63 0 -106 -143q100 -31 100 -119q0 -53 -33 -88t-78 -35t-75 25t-29 70q0 60 35 91q8 8 12 15l6 4q0 4 -8 4q-164 0 -285 -162t-121 -424q0 -176 65 -260t169 -84q148 0 295 164l12 -14q-55 -100 -157 -184
t-238 -85q-135 0 -227 111t-93 297q0 279 178 483t386 203l34 -2q36 123 94 180t142 57t123 -27q39 -28 39 -68z" />
    <glyph glyph-name="uni0189" unicode="&#x189;" horiz-adv-x="1521" 
d="M586 55q322 -1 526 225t205 562q0 231 -133 373t-357 143h-262q-18 -100 -54 -301t-54 -301h280l-12 -60h-281l-116 -641h258zM829 1413q299 0 494 -162t195 -426t-132 -452q-132 -189 -346 -281q-213 -92 -471 -92h-589v4q2 2 2 4q110 29 150 79t67 192l75 417h-174
l13 60h174q82 424 83 493q1 70 -30 102t-107 54v4l3 4h593z" />
    <glyph glyph-name="uni018A" unicode="&#x18a;" horiz-adv-x="1617" 
d="M659 55q322 -1 527 225t205 562q1 231 -133 373t-357 143h-262l-238 -1303h258zM643 0h-592q0 2 2 8q111 29 152 79t77 240t152 826q12 78 12 98q0 65 -38 89t-117 24q-80 0 -113 -14v-9q57 -33 58 -108q0 -41 -33 -68t-77 -27t-74 30q-30 28 -29 79q0 78 80 122
q81 44 241 44h559q297 0 493 -161t196 -424t-132 -452q-131 -188 -344 -282t-473 -94z" />
    <glyph glyph-name="uni018B" unicode="&#x18b;" horiz-adv-x="1226" 
d="M653 713q-207 0 -319 -109t-113 -287q0 -119 74 -191t221 -71h203l121 658h-187zM1055 0h-559q-219 0 -339 82t-120 246q0 212 159 326t445 114h209l111 590h-351q-122 0 -195 -82q-32 -37 -118 -152h-8l55 289h973l-2 -4v-4q-111 -27 -155 -81t-70 -189l-156 -852
q-14 -47 -14 -117t30 -104t105 -54v-8z" />
    <glyph glyph-name="uni018C" unicode="&#x18c;" horiz-adv-x="1185" 
d="M264 356q0 -126 42 -192t114 -66q160 0 334 221l110 642q-27 20 -84 38t-106 19q-156 0 -283 -205t-127 -457zM838 -27q-109 0 -109 146q0 45 14 135q-85 -111 -193 -195t-207 -84q-99 1 -176 93t-77 261t89 342t239 285t305 113q59 0 158 -20l55 309h-279
q-122 0 -195 -82q-32 -37 -118 -152h-8l55 289h893v-8q-111 -27 -156 -81t-69 -189l-160 -885q-10 -43 -10 -86q0 -70 53 -70q65 1 178 62v-9q-158 -174 -282 -174z" />
    <glyph glyph-name="uni018D" unicode="&#x18d;" horiz-adv-x="1077" 
d="M823 727q0 141 -60 218t-149 77q-88 0 -176 -109t-132 -239t-44 -228q0 -190 162 -352q186 64 292 236t107 397zM676 -215q0 -125 -104 -201t-254 -76q-312 0 -312 142q0 45 32 82t74 37q73 0 127 -102q49 -101 159 -101q64 0 117 48q52 48 52 100t-50 104
q-50 51 -121 108q-72 57 -142 127t-120 175t-50 211q0 204 148 411q68 94 174 156t225 63q158 0 260 -94t102 -279q-1 -250 -165 -418t-377 -210q18 -18 76 -70t80 -74q21 -22 45 -62t24 -77z" />
    <glyph glyph-name="uni018E" unicode="&#x18e;" horiz-adv-x="1167" 
d="M303 55h346l123 643h-276q-72 0 -115 -26t-109 -103h-8l62 316h8q34 -78 68 -105t106 -26h276l117 604h-289q-102 0 -156 -41t-167 -193h-8l57 289h922l-3 -8q-111 -27 -155 -81t-72 -189l-166 -856q-27 -141 -3 -191t124 -80l-2 -8h-979l23 322h6q90 -178 131 -222
t139 -45z" />
    <glyph glyph-name="uni018F" unicode="&#x18f;" horiz-adv-x="1544" 
d="M1278 686l-950 -29q-18 -98 -19 -182q-1 -215 103 -334t263 -119t332 135q89 69 166 208t103 307q2 12 2 14zM1288 819q0 244 -146 371t-392 127t-506 -156l-11 10q324 270 652 271q239 0 411 -157t172 -421q0 -74 -14 -145q-35 -181 -123 -329q-157 -263 -441 -374
q-124 -47 -243 -47q-201 -1 -347 139t-146 394q-1 137 30 229h1098q6 47 6 88z" />
    <glyph glyph-name="uni0190" unicode="&#x190;" horiz-adv-x="1222" 
d="M817 1397q-143 0 -249 -89t-115 -241q-13 -137 63 -214t213 -77h88l-12 -57h-125q-186 1 -294 -101t-118 -262q-16 -164 77 -253t273 -89t296 81t155 177q-51 -45 -103 -45t-82 30t-25 86t49 94t104 38t95 -42q34 -42 28 -105q-12 -133 -162 -246q-151 -113 -397 -113
t-383 109t-123 286t150 280t317 116l2 12q-295 78 -275 313q16 173 173 265t394 92q127 0 244 -25t172 -55l-51 -270h-8q-80 305 -371 305z" />
    <glyph glyph-name="uni0191" unicode="&#x191;" horiz-adv-x="1124" 
d="M-276 -406q0 36 27 64q28 27 62 27q33 -1 79 -53t86 -52t72 54t61 206l241 1295q12 70 12 126t-30 90q-31 34 -105 54v4l2 4h949q-16 -96 -54 -289h-8q-57 158 -89 196t-132 38h-338l-113 -615h326q74 0 115 27t106 107h6q-41 -234 -57 -322h-8q-35 80 -67 107t-105 26
h-326l-135 -727q-41 -215 -160 -331t-272 -115q-61 -1 -103 21t-42 58z" />
    <glyph glyph-name="florin" unicode="&#x192;" horiz-adv-x="1167" 
d="M989 1442q78 0 138 -43q61 -43 61 -97t-30 -80q-30 -28 -73 -28t-73 26t-31 68q0 68 72 111q-20 6 -58 6q-98 0 -158 -77t-102 -294l-57 -303h283l-13 -72h-284l-132 -708q-82 -442 -430 -443q-78 0 -135 43t-57 97t29 81t71 27t73 -26q32 -26 32 -70q0 -66 -72 -109
q27 -8 57 -8q88 0 152 70q63 70 98 256l150 790h-250l22 72h242l51 279q80 432 424 432z" />
    <glyph glyph-name="uni0193" unicode="&#x193;" horiz-adv-x="1505" 
d="M734 -31q-263 0 -442 175t-179 452q0 182 78 344q149 305 485 435t719 7q37 162 100 237t176 75q74 0 113 -27t39 -68t-26 -69q-25 -28 -61 -29q-36 0 -85 44t-74 44q-43 1 -81 -65t-58 -183l-47 -251h-9q-100 305 -393 305q-264 0 -473 -243t-209 -570q0 -250 129 -401
t340 -150q84 -1 176 19t131 38l64 340q12 66 12 122t-31 90q-31 36 -104 58l2 9h467l-2 -9q-82 -29 -119 -80t-61 -190l-68 -373q-246 -86 -509 -86z" />
    <glyph glyph-name="uni0194" unicode="&#x194;" horiz-adv-x="1394" 
d="M471 -330q0 -70 64 -71q47 0 75 51t27 119q0 12 -4 24l-39 168l-90 -162q-33 -59 -33 -129zM168 1413h473l-2 -4v-4q-78 -16 -111 -53q-32 -37 -32 -117t59 -367l135 -645l369 647q193 338 192 430q0 74 -106 105l2 4v4h409v-8q-92 -35 -160 -125t-263 -422l-418 -713
q5 -23 35 -130t30 -185q0 -137 -70 -224t-182 -87q-63 0 -98 44q-78 98 23 283l20 37q12 23 45 77t49 85l-176 813q-70 324 -106 419q-37 95 -117 128v8z" />
    <glyph glyph-name="uni0195" unicode="&#x195;" horiz-adv-x="1677" 
d="M831 1069q89 0 141 -61t52 -172q0 -45 -14 -121l-84 -426q-12 -67 -12 -125q-1 -127 176 -127q143 0 186 63t61 162l105 547q4 20 10 100q0 55 -26 80t-89 47q0 2 2 8h312l-148 -759q-31 -156 -132 -232t-281 -76q-180 -1 -256 55t-76 177q0 33 10 88l86 424q12 55 12 98
q0 145 -114 146q-141 0 -318 -170q-90 -481 -145 -795h-164q209 1146 221 1231l6 55q0 78 -29 108q-30 30 -122 50l2 8q203 16 358 92h8l-125 -686q84 86 190 148t197 63z" />
    <glyph glyph-name="uni0196" unicode="&#x196;" horiz-adv-x="604" 
d="M131 129q0 35 10 96l183 973q12 58 12 114t-32 85t-120 47v8q199 16 361 92h8l-238 -1268q-18 -125 -18 -153q0 -70 57 -70q41 0 80 40t62 106h20q-61 -227 -242 -228q-143 0 -143 158z" />
    <glyph glyph-name="uni0197" unicode="&#x197;" horiz-adv-x="673" 
d="M487 0h-505l2 8q106 29 148 78t67 182l77 424h-243l10 66h246l71 387q12 67 12 121t-30 86q-31 32 -106 53l2 8h510l-3 -8q-111 -29 -153 -78t-66 -182l-71 -387h247l-10 -66h-250l-77 -424q-13 -68 -13 -122t31 -86t106 -52z" />
    <glyph glyph-name="uni0198" unicode="&#x198;" horiz-adv-x="1441" 
d="M1382 0h-516q0 2 2 8q63 12 94 35q30 23 30 81t-89 232l-209 410l-286 -248l-52 -280q-8 -47 -8 -97q0 -51 32 -83t107 -50v-4l-2 -4h-510v4q2 2 2 4q109 29 150 78t66 182l139 748q36 198 148 312t265 114q73 0 131 -35t58 -78t-28 -73t-62 -30t-58 26q-23 24 -29 55
q-7 31 -29 55t-58 24q-57 0 -93 -72t-75 -282l-80 -430l514 457q203 182 203 258q0 55 -103 88v4l2 4h514v-4l-2 -4q-119 -33 -209 -93t-299 -243l-219 -190l269 -523q104 -205 152 -262t138 -86v-8z" />
    <glyph glyph-name="uni0199" unicode="&#x199;" horiz-adv-x="1036" 
d="M762 1544q76 0 134 -37t58 -94q0 -33 -26 -63t-61 -29q-37 0 -63 25q-26 26 -35 56t-33 54t-60 25q-72 0 -117 -82t-82 -293l-201 -1106h-161l194 1100q33 192 165 318t288 126zM776 964q0 40 34 72t81 33q47 0 82 -34t35 -85q0 -88 -168 -202q-61 -41 -248 -152
l172 -338q72 -170 154 -170q51 0 143 49v-2q2 -4 2 -6q-43 -61 -116 -109t-141 -47q-68 0 -112 49q-42 49 -108 201l-150 344q242 111 432 281q-40 8 -66 42t-26 74z" />
    <glyph glyph-name="uni019A" unicode="&#x19a;" horiz-adv-x="604" 
d="M141 117q0 51 19 162l73 413h-233l10 66h234l80 440q12 62 12 116t-32 82t-120 48v8q199 16 361 92h8l-143 -786h260l-11 -66h-262l-80 -442q-12 -57 -12 -78q0 -82 57 -82q66 1 175 62v-9q-55 -61 -135 -115t-144 -55q-117 0 -117 144z" />
    <glyph glyph-name="uni019B" unicode="&#x19b;" horiz-adv-x="999" 
d="M975 72h41q0 -33 -76 -63q-76 -29 -111 -29t-57 16t-45 75q-22 59 -30 170q-9 111 -20 281t-28 336q-39 -63 -191 -311q-152 -249 -228 -367q-75 -118 -103 -180h-195l674 1018q-6 59 -16 125l-330 -217v86l315 207q-23 84 -45 139q-76 -23 -123 -23t-73 28
q-26 29 -25 71q0 42 39 76q38 34 106 34t107 -47t57 -160l13 -80l250 164v-86l-236 -155l66 -389q88 -537 92 -553q18 -90 55 -128t117 -38z" />
    <glyph glyph-name="uni019C" unicode="&#x19c;" horiz-adv-x="1867" 
d="M997 -25q-195 0 -227 172q-254 -172 -400 -172t-207 88q-62 88 -26 275l158 817q25 127 5 174t-105 76l2 8h460l-2 -8q-96 -29 -134 -76t-64 -174l-160 -829q-50 -246 172 -246q109 0 297 92q-6 78 10 166l158 817q26 127 6 174t-106 76l2 8h460l-2 -8q-96 -29 -134 -76
t-64 -174l-160 -829q-50 -246 173 -246q110 0 282 86l192 993q25 129 5 173t-105 73l2 8h461l-2 -8q-98 -29 -136 -74t-63 -172l-164 -846q-23 -135 -1 -175t128 -72l-2 -9q-158 -14 -342 -82h-8l33 162q-240 -162 -392 -162z" />
    <glyph glyph-name="uni019D" unicode="&#x19d;" horiz-adv-x="1595" 
d="M-141 -485q-68 -1 -109 25t-41 65t28 65q29 26 63 27q34 0 83 -46t76 -46q96 0 145 260l252 1341q2 8 2 27q0 55 -42 103t-123 69v4l2 4h342l731 -1171l137 745q31 168 31 248t-26 114t-89 56l2 4v4h395l-2 -4v-4q-106 -33 -149 -107t-86 -311l-187 -1007h-75l-781 1255
l-248 -1333q-40 -207 -110 -297t-221 -90z" />
    <glyph glyph-name="uni019E" unicode="&#x19e;" horiz-adv-x="1157" 
d="M344 1069q115 0 115 -154q0 -39 -8 -73q223 227 393 227q100 0 147 -62t47 -161q0 -51 -14 -131l-233 -1186h-162l245 1225q4 45 5 63q0 147 -117 148q-141 0 -318 -172l-143 -793h-160l144 791q10 39 8 99t-53 58q-63 0 -174 -59v8q61 66 138 119t140 53z" />
    <glyph glyph-name="uni019F" unicode="&#x19f;" horiz-adv-x="1597" 
d="M1370 852q0 238 -110 392t-323 153q-211 -1 -389 -185t-233 -456h1049q6 49 6 96zM293 569q1 -243 109 -399t327 -156t399 198t230 484h-1053q-12 -66 -12 -127zM1563 815q0 -176 -77 -337q-146 -305 -474 -444q-152 -65 -301 -65q-254 0 -432 169t-179 440q0 145 53 281
q95 249 329 416q233 167 475 167q241 0 423 -176t183 -451z" />
    <glyph glyph-name="Ohorn" unicode="&#x1a0;" horiz-adv-x="1597" 
d="M260 531q0 -225 110 -371t298 -146t341 124t238 322q86 198 86 420t-112 370q-113 146 -301 146t-338 -120q-150 -121 -236 -320t-86 -425zM1526 824q0 -184 -77 -346q-146 -306 -475 -444q-153 -65 -304 -65q-248 0 -427 170t-180 441q0 180 80 344q152 312 481 452
q152 66 270 66t247 -16t199 -17q70 0 120 22q51 22 51 56q0 20 -37 54q-38 34 -38 73q0 38 28 66t69 28q42 0 79 -33t37 -90q0 -111 -86 -165t-238 -54q-51 0 -137 10q150 -76 244 -222t94 -330z" />
    <glyph glyph-name="ohorn" unicode="&#x1a1;" horiz-adv-x="1089" 
d="M260 352q0 -154 56 -244t148 -90q91 0 162 68q120 115 178 406t-37 444q-57 90 -157 90t-183 -106t-125 -260t-42 -308zM455 -25q-158 0 -267 129t-108 324q0 242 174 442t379 199q76 0 179 -17q102 -18 156 -18t82 22t27 53t-48 56q-48 25 -48 72t29 76q28 29 72 29
t84 -34t40 -96q0 -106 -61 -163t-159 -57t-169 20q86 -58 137 -160t52 -231q0 -248 -170 -447t-381 -199z" />
    <glyph glyph-name="uni01A2" unicode="&#x1a2;" horiz-adv-x="1906" 
d="M977 1393q-231 1 -413 -191t-239 -498t63 -498q120 -191 364 -192q174 1 280 64l236 1268q-150 47 -291 47zM1675 -467h-512l2 8q109 29 151 77t64 177l244 1309q26 123 10 180t-80 57h-122l-238 -1278q-205 -67 -283 -79t-243 -13q-293 0 -448 205q-154 205 -96 513
q58 309 298 531t547 222q84 0 254 -27t227 -26q182 0 377 53h31l-306 -1647q-23 -129 1 -177t122 -77v-8z" />
    <glyph glyph-name="uni01A3" unicode="&#x1a3;" horiz-adv-x="1593" 
d="M742 1026q-168 0 -298 -195t-131 -471q1 -154 61 -248t179 -96q152 0 259 131t144 327t88 480q-134 72 -302 72zM946 -471v4l2 4q104 27 147 79q42 52 66 183l193 1047q4 29 4 41q0 70 -64 69h-96l-86 -471q-45 -250 -199 -380t-351 -130t-316 114q-119 115 -119 315
t98 358q97 158 239 232t296 75q66 0 244 -43t210 -43q178 0 320 86h27q-156 -848 -203 -1095t-47 -302q1 -55 25 -85t85 -50v-4l-2 -4h-473z" />
    <glyph glyph-name="uni01A4" unicode="&#x1a4;" horiz-adv-x="1290" 
d="M51 0q0 2 2 8q111 29 152 79t69 199q28 150 80 436q50 286 68 380t18 156t-36 84t-117 22t-109 -14v-9q57 -33 58 -108q0 -41 -33 -68t-78 -27t-75 30q-30 28 -30 79q0 78 82 122t242 44h545q201 0 315 -89q114 -88 113 -230q0 -142 -49 -232q-84 -154 -316 -205
q-94 -20 -204 -20h-240q-4 -27 -41 -206t-37 -259t37 -112t131 -52l-2 -8h-545zM725 690q193 0 301 110t109 287q0 123 -74 197t-217 74h-205l-123 -668h209z" />
    <glyph glyph-name="uni01A5" unicode="&#x1a5;" horiz-adv-x="1169" 
d="M479 27q188 0 320 190q131 190 131 416q0 156 -69 249t-172 93t-232 -90l-148 -809q94 -49 170 -49zM-88 -471v8q86 29 120 75t58 171l229 1255q45 222 168 364t295 142q59 0 90 -37q41 -7 72 -33t31 -59t-25 -63q-26 -30 -62 -31q-36 0 -62 25q-26 26 -34 56t-33 54
q-24 24 -63 25q-70 0 -116 -83t-82 -292l-31 -176q152 139 300 139q147 0 245 -115q98 -116 98 -286t-92 -331t-244 -261t-313 -101q-59 0 -166 17q-47 -231 -47 -306t26 -102t99 -47v-4l-2 -4h-459z" />
    <glyph glyph-name="uni01A6" unicode="&#x1a6;" horiz-adv-x="1333" 
d="M618 489q150 0 275 81q66 42 105 122q40 80 40 189t-69 170q-70 61 -197 61h-231q-17 -109 -57 -317t-58 -306h192zM1298 -319h-112q-168 -1 -213 25t-105 161l-254 569h-198l-29 -157q-12 -65 -12 -129q-1 -64 29 -94t106 -48v-8h-518v4l2 4q110 29 152 80t69 191
l158 856q12 63 12 127t-30 94t-105 49v4l2 4h520l-2 -4v-4q-106 -27 -149 -73t-70 -165h262q195 1 303 -73t107 -217q0 -84 -28 -149q-28 -64 -65 -102q-38 -38 -106 -71t-114 -47t-130 -35l269 -555q63 -131 109 -169t142 -60l-2 -4v-4z" />
    <glyph glyph-name="uni01A7" unicode="&#x1a7;" horiz-adv-x="1032" 
d="M432 -31q-196 0 -306 110t-75 283q23 119 112 212q89 92 201 154t224 120t196 137q86 78 106 177t-40 166q-59 67 -166 67q-229 0 -424 -316h-8l53 281q215 82 350 82q175 0 281 -102t76 -263q-23 -113 -110 -203t-199 -150q-113 -60 -223 -120t-194 -141
q-84 -83 -107 -191q-22 -108 49 -183t184 -75q254 0 460 377h9l-66 -340q-188 -82 -383 -82z" />
    <glyph glyph-name="uni01A8" unicode="&#x1a8;" horiz-adv-x="870" 
d="M361 -25q-165 0 -249 85t-57 219q20 102 91 175q71 74 161 114t178 76t155 86t81 124t-33 124t-121 50q-172 0 -340 -266h-10l49 248q154 59 286 59t215 -77t58 -208q-18 -98 -89 -171q-70 -73 -158 -115t-176 -79q-211 -91 -236 -214q-14 -78 36 -133t138 -56
q201 0 399 314h9l-52 -271q-170 -84 -335 -84z" />
    <glyph glyph-name="uni01A9" unicode="&#x1a9;" horiz-adv-x="1148" 
d="M885 1358h-453l399 -584l-2 -14l-688 -643h518q111 0 175 42q63 42 208 214h9l-121 -373h-998l2 8l734 694l-471 701l2 10h1009l-53 -289h-8q-57 158 -99 196t-163 38z" />
    <glyph glyph-name="uni01AA" unicode="&#x1aa;" horiz-adv-x="925" 
d="M377 1479q-53 0 -95 -35t-52 -87t20 -90q31 -38 82 -38t94 36t53 89t-19 89q-30 36 -83 36zM315 1163q-73 1 -120 59t-31 138t78 132t151 52q127 0 186 -113q58 -114 27 -280l-256 -1307q-20 -104 -20 -162t13 -78q26 -39 91 1q35 20 68 43q32 22 46 28t42 6t46 -22
q17 -24 10 -60t-60 -62t-119 -25q-159 -1 -231 115t-31 331l244 1247q-61 -43 -134 -43z" />
    <glyph glyph-name="uni01AB" unicode="&#x1ab;" horiz-adv-x="636" 
d="M109 967q0 6 -3 18l82 27q86 29 130 80t94 198h98l-47 -246h252q-4 -25 -8 -73h-254l-129 -721q-8 -53 -9 -70q0 -82 66 -82q74 0 197 66v-2l-33 -168q-47 -238 -159 -359t-275 -120q-61 0 -104 22q-42 23 -42 59t27 62q26 27 56 27q30 -1 42 -7t57 -48t80 -43t65 53
t60 206l6 29q13 90 23 129q-80 -31 -111 -31q-119 0 -118 152q0 47 18 154l123 688h-184z" />
    <glyph glyph-name="uni01AC" unicode="&#x1ac;" horiz-adv-x="1314" 
d="M809 0h-510l2 8q111 29 153 80t68 191l197 1079h-244q-98 0 -135 -25v-8q24 -14 46 -47t22 -75q0 -41 -33 -69t-78 -28t-75 33t-29 84q0 86 80 138q81 52 243 52h834l-15 -305h-8q-77 161 -115 205q-37 45 -84 45h-243l-197 -1079q-25 -141 -2 -191t123 -80v-8z" />
    <glyph glyph-name="uni01AD" unicode="&#x1ad;" horiz-adv-x="636" 
d="M109 967q0 6 -3 18q16 6 74 26q93 32 131 70q33 201 163 332t292 131q76 0 134 -37t58 -94q0 -33 -26 -63t-60 -29q-36 0 -63 25q-27 26 -37 54t-36 52t-66 25q-70 0 -117 -87t-80 -284l-10 -62h252q-4 -25 -8 -73h-254l-129 -721q-8 -53 -9 -70q0 -82 66 -82
q74 0 197 66v-8q-52 -62 -146 -122t-162 -61q-119 0 -118 152q0 47 18 154l123 688h-184z" />
    <glyph glyph-name="uni01AE" unicode="&#x1ae;" horiz-adv-x="1314" 
d="M496 1358q-47 0 -90 -35q-42 -35 -106 -101t-72 -72q-8 -8 -18 -20q-11 -12 -22 -22h-8l96 305h1074q-6 -106 -15 -305h-8q-77 161 -115 205q-37 45 -84 45h-243q-47 -252 -139 -757t-126 -687t-34 -240q0 -90 55 -90q25 0 88 44q61 44 75 48q14 6 40 6t44 -16
q17 -18 17 -45q0 -49 -54 -79t-128 -29q-127 1 -200 79t-72 224q0 69 14 143l254 1399h-223z" />
    <glyph glyph-name="Uhorn" unicode="&#x1af;" horiz-adv-x="1562" 
d="M1364 1237q0 72 -26 108t-89 60v8h287q72 1 119 21t47 46t-39 61q-39 34 -39 73q0 38 28 66t70 28t80 -33q37 -33 37 -90q0 -188 -264 -209q-67 -36 -99 -114t-69 -275l-113 -606q-37 -197 -184 -305q-146 -108 -386 -107q-240 0 -374 88q-133 88 -133 254q0 61 6 99
l137 735q12 70 12 120t-30 84q-31 34 -106 56v8h512v-8q-109 -27 -152 -79t-66 -181l-143 -764q-8 -41 -8 -70q0 -266 360 -266q190 0 322 89q131 89 162 253l110 600q31 178 31 250z" />
    <glyph glyph-name="uhorn" unicode="&#x1b0;" 
d="M373 -27q-190 0 -191 238q0 75 101 580q10 55 10 86q0 76 -49 75q-63 0 -181 -61v8q55 61 135 115t142 55q115 0 115 -151q0 -47 -19 -154l-86 -445q-12 -59 -10 -100q0 -141 106 -141q70 0 159 61t167 156l133 729l129 14q78 8 114 24t36 44t-38 62t-38 68t29 67t69 33
t78 -34q37 -32 37 -90q0 -201 -260 -200l-137 -762q-10 -55 -11 -84q0 -72 50 -72q67 1 180 60v-9q-55 -61 -135 -116t-142 -56q-115 0 -114 150q0 49 12 113q-78 -100 -191 -182t-200 -81z" />
    <glyph glyph-name="uni01B1" unicode="&#x1b1;" horiz-adv-x="1615" 
d="M1556 629q0 -154 -86 -284t-216 -209t-271 -122t-273 -43t-272 65q-140 66 -240 190t-100 262t60 250t133 184q75 72 191 182t182 186h-160q-88 0 -125 -22t-137 -129h-9l89 274h489v-4l-2 -4q-520 -575 -520 -942q0 -195 123 -321t313 -126q270 0 457 205
q186 205 186 508q-6 283 -217 676v8h489l-8 -274h-8q-61 106 -91 129t-118 22h-158q33 -70 117 -202t133 -241q49 -110 49 -218z" />
    <glyph glyph-name="uni01B2" unicode="&#x1b2;" horiz-adv-x="1533" 
d="M221 1413h508v-10q-109 -29 -149 -76t-66 -176l-143 -778q-31 -152 48 -238t249 -86t300 90t211 279t167 665q22 121 -20 188t-101 66q-12 0 -82 -38q-118 -64 -155 -14q-17 24 -11 58q19 99 189 99t233 -85t24 -284q-94 -509 -194 -709t-257 -297q-158 -97 -362 -97
t-327 104q-123 106 -84 311l143 766q23 131 0 177t-121 75v10z" />
    <glyph glyph-name="uni01B3" unicode="&#x1b3;" horiz-adv-x="1380" 
d="M375 0q0 2 2 8q109 27 155 84t70 187q45 248 64 339q-48 127 -142 377t-133 326t-96 76t-57 -23q55 -41 55 -94t-38 -82t-78 -29q-39 0 -67 28t-28 67q0 68 70 122t188 56q118 0 174 -67q55 -67 152 -326l141 -367l233 330q174 248 174 311q0 55 -100 82v4l2 4h408v-4
l-2 -4q-72 -10 -155 -92t-249 -307l-280 -383q-6 -35 -42 -202t-36 -244t31 -113t106 -56l-2 -8h-520z" />
    <glyph glyph-name="uni01B4" unicode="&#x1b4;" horiz-adv-x="1075" 
d="M1141 1069q47 0 83 -38t36 -91t-39 -89t-97 -36q-20 -1 -38 17t-17 42q-25 2 -45 22t-25 42q-39 -25 -188 -366t-221 -468q-334 -596 -570 -596q-70 0 -108 37t-37 83q0 46 29 76q28 30 74 30t77 -35t33 -102q154 53 338 337q-25 275 -73 529q-91 481 -201 481
q-51 0 -156 -55v8q145 172 274 172q74 0 109 -90l12 -33q80 -217 148 -768q68 102 125 213q29 63 116 261t127 255q40 56 74 93q64 69 160 69z" />
    <glyph glyph-name="uni01B5" unicode="&#x1b5;" horiz-adv-x="1148" 
d="M520 1358q-68 0 -124 -42t-201 -192h-9l95 289h952l-2 -8l-494 -647h355l-11 -66h-395l-485 -637h508q67 1 133 53t200 214h9l-99 -322h-999l2 8l526 684h-366l10 66h405l463 600h-473z" />
    <glyph glyph-name="uni01B6" unicode="&#x1b6;" horiz-adv-x="851" 
d="M596 -20q-38 0 -255 10q-216 10 -366 10v8l390 498h-299l14 65h336l266 340h-317q-101 0 -139 -9t-85 -56h-16l57 198h678v-8l-364 -465h327l-14 -65h-365l-294 -379q258 0 368 9t163 34q52 25 99 86l15 -2q-9 -18 -27 -68t-31 -76q-38 -89 -71 -110q-32 -20 -70 -20z
" />
    <glyph glyph-name="uni01B7" unicode="&#x1b7;" horiz-adv-x="1120" 
d="M315 -31q-151 0 -247 74t-80 164q10 55 51 87t95 32t87 -37t24 -88t-49 -85t-90 -46q70 -52 212 -52t275 106q132 106 164 279q33 171 -75 261t-301 84l-4 6l444 503h-594l29 156h774l-2 -8l-459 -516q178 -20 297 -139t86 -295q-39 -213 -223 -349t-414 -137z" />
    <glyph glyph-name="uni01B8" unicode="&#x1b8;" horiz-adv-x="1052" 
d="M530 18q119 0 207 52q-45 12 -71 50t-19 89q8 51 50 84q41 33 95 33t87 -36t22 -91q-16 -90 -133 -160t-268 -70q-228 -1 -366 141t-101 355q31 174 190 289q160 115 348 135l-274 516l2 8h774l-29 -156h-593l262 -503l-6 -6q-189 6 -329 -83t-171 -261t68 -278
q99 -108 255 -108z" />
    <glyph glyph-name="uni01B9" unicode="&#x1b9;" horiz-adv-x="1013" 
d="M524 -350q121 0 209 51q-45 10 -71 48t-16 90q9 52 50 85q42 33 96 33t86 -36t21 -91q-16 -90 -133 -160t-270 -69q-233 0 -367 140q-133 140 -94 355q33 174 192 289q160 115 346 135l-268 516l2 8h774l-28 -155h-594l256 -504l-4 -6q-189 6 -331 -83t-174 -261
q-32 -173 62 -279t256 -106z" />
    <glyph glyph-name="uni01BA" unicode="&#x1ba;" horiz-adv-x="1005" 
d="M752 436q0 68 -90 92t-300 25l9 41l438 340h-608l20 110h846l-6 -32l-490 -398q324 -29 324 -174q0 -106 -90 -156t-340 -75q-143 -14 -241 -96t-99 -211q0 -98 72 -154t189 -55q117 -1 240 75t201 201h15q-70 -180 -218 -296q-148 -115 -308 -115t-252 78t-93 208
q0 344 494 412q287 37 287 180z" />
    <glyph glyph-name="uni01BB" unicode="&#x1bb;" horiz-adv-x="1167" 
d="M610 1358q-168 0 -295 -135q162 -8 162 -123q0 -57 -38 -89t-89 -32t-87 38t-36 91q0 110 133 222q132 112 314 112t290 -88t107 -234q0 -178 -188 -362h270l-10 -66h-330q-33 -31 -97 -88t-180 -165t-323 -292h676l-27 -147h-846l4 33l504 481q104 102 168 178h-454
l10 66h497q141 188 142 350q0 118 -78 184t-199 66z" />
    <glyph glyph-name="uni01BC" unicode="&#x1bc;" horiz-adv-x="1167" 
d="M362 1266q0 54 -30 86q-31 31 -109 53l2 8h881l-29 -156h-647l-84 -452q24 4 136 11t169 7q147 0 249 -94q102 -95 104 -239q0 -144 -60 -249t-158 -161q-189 -110 -399 -111q-131 -1 -216 61t-85 138t46 118t100 42t84 -29t30 -79t-39 -90t-92 -60q78 -57 176 -58
q178 0 306 127t128 332q-1 125 -81 185t-195 61l-279 2l80 426q12 67 12 121z" />
    <glyph glyph-name="uni01BD" unicode="&#x1bd;" horiz-adv-x="964" 
d="M526 618q133 0 220 -70q88 -70 88 -176q1 -192 -120 -289q-141 -114 -399 -114q-121 0 -205 51t-85 122q0 71 38 108q39 37 91 37t89 -31q36 -31 36 -76q0 -92 -132 -137q59 -33 160 -33q147 0 247 89q99 89 99 245q0 94 -63 142t-164 49h-238l48 241q14 82 14 130
t-31 79t-106 51l2 8h786l-31 -155h-548l-58 -293q20 8 112 15t150 7z" />
    <glyph glyph-name="uni01BE" unicode="&#x1be;" horiz-adv-x="808" 
d="M23 967q0 6 -3 18q20 7 70 25t62 24q14 6 46 28t47 48q55 97 81 180h98l-47 -246h252q-4 -24 -8 -73h-254l-25 -133q-2 -4 -2 -42t38 -87t91 -91t106 -88q130 -110 130 -245t-110 -223t-242 -87q-132 -1 -222 63t-90 144q0 47 32 82t78 35q47 0 77 -29q30 -30 30 -74
t-27 -80t-65 -40q18 -20 66 -38t120 -20q72 0 141 52t69 147q0 94 -102 179q-61 50 -189 158q-44 38 -72 90q-29 52 -29 108q0 10 5 38t15 86q10 60 17 91h-184z" />
    <glyph glyph-name="uni01BF" unicode="&#x1bf;" horiz-adv-x="1144" 
d="M895 1069q135 0 206 -71t71 -212t-76 -279q-74 -139 -201 -243q-261 -215 -610 -309l-62 -315l-350 -121l2 16l31 12q90 37 128 97t62 182q24 123 108 557q83 434 84 478t-27 69t-107 49l2 10q172 14 346 80l-45 -238q84 98 215 168t223 70zM989 762q0 96 -44 139
t-132 43q-164 0 -367 -156l-151 -788q141 37 281 124t256 228q158 194 157 410z" />
    <glyph glyph-name="clickdental" unicode="&#x1c0;" horiz-adv-x="409" 
d="M102 -236h-77l325 1780h80z" />
    <glyph glyph-name="clicklateral" unicode="&#x1c1;" horiz-adv-x="819" 
d="M512 -236h-78l326 1780h80zM102 -236h-77l325 1780h80z" />
    <glyph glyph-name="uni01C2" unicode="&#x1c2;" horiz-adv-x="571" 
d="M205 0h-109l90 467h-209l23 111h209l37 196h-211l20 109h211l99 503h108l-98 -503h213l-21 -109h-213l-37 -196h213l-22 -111h-213z" />
    <glyph glyph-name="uni01C3" unicode="&#x1c3;" horiz-adv-x="512" 
d="M167 -29q-50 0 -86 36t-36 86t36 86t86 36t86 -36t36 -86t-36 -86t-86 -36zM221 373h-14q6 63 32 444t64 596h201q-39 -215 -152 -593t-131 -447z" />
    <glyph glyph-name="uni01C4" unicode="&#x1c4;" horiz-adv-x="2623" 
d="M2257 1532h-109l-135 250h17q61 -45 184 -131l256 131h16zM1427 0q0 2 3 8q205 264 587 764q383 500 449 586h-473q-68 0 -122 -41t-202 -193h-8q61 193 94 289h952v-4l-1034 -1354h510q69 1 133 53t201 214h8l-98 -322h-1000zM586 55q322 -1 526 225t205 562
q0 231 -133 373t-357 143h-262l-237 -1303h258zM569 0h-589v4q2 2 2 4q110 29 150 79q40 51 67 193t79 428t71 394t19 166t-29 88q-30 30 -106 49v4l3 4h593q297 0 491 -161t193 -435q0 -96 -14 -168q-63 -307 -319 -478t-611 -171z" />
    <glyph glyph-name="uni01C5" unicode="&#x1c5;" horiz-adv-x="2396" 
d="M2099 1163h-108l-136 250h17q61 -45 184 -131l256 131h17zM1520 0v8l706 903h-317q-101 0 -139 -9t-84 -56h-17l57 198h678v-8q-236 -303 -710 -909q258 0 370 9t162 34q51 25 98 86q2 0 8 -1t7 -1q-9 -18 -27 -68q-31 -82 -66 -144q-36 -62 -90 -62t-270 10t-366 10z
M586 55q322 -1 526 225t205 562q0 231 -133 373t-357 143h-262l-237 -1303h258zM569 0h-589v4q2 2 2 4q110 29 150 79q40 51 67 193t79 428t71 394t19 166t-29 88q-30 30 -106 49v4l3 4h593q297 0 491 -161t193 -435q0 -96 -14 -168q-63 -307 -319 -478t-611 -171z" />
    <glyph glyph-name="uni01C6" unicode="&#x1c6;" horiz-adv-x="2027" 
d="M1743 1163h-109l-135 250h17q61 -45 184 -131l256 131h16zM1151 0v8l707 903h-318q-102 0 -139 -9t-84 -56h-17l58 198h678v-8q-475 -606 -711 -909q258 0 369 9t163 34t99 86q2 0 7 -1t7 -1q-8 -18 -26 -68q-57 -157 -109 -190q-25 -16 -63 -16t-255 10q-216 10 -366 10
zM264 356q0 -126 42 -192t114 -66q160 0 334 221l110 642q-27 20 -84 38t-106 19q-156 0 -283 -205t-127 -457zM838 -27q-109 0 -109 146q0 45 14 135q-85 -111 -193 -195t-207 -84q-99 1 -176 93t-77 261t89 342t239 285t305 113q59 0 158 -20l26 149q11 58 11 116t-34 84
t-126 46v8q207 16 366 92h9l-234 -1294q-10 -43 -10 -86q0 -70 53 -70q65 1 178 62v-9q-158 -174 -282 -174z" />
    <glyph glyph-name="uni01C7" unicode="&#x1c7;" horiz-adv-x="1734" 
d="M991 -428l-2 6q197 123 246 399l211 1158q27 143 3 192t-124 78l2 8h508l-2 -8q-111 -29 -153 -79t-68 -191l-199 -1088q-44 -240 -219 -365q-59 -42 -98 -62t-105 -48zM664 55q70 1 140 55t206 212h8l-98 -322h-947l2 8q109 27 152 80t66 180l161 877q23 127 -2 180
t-123 80l2 8h510l-2 -8q-109 -27 -153 -80t-66 -180l-201 -1090h345z" />
    <glyph glyph-name="uni01C8" unicode="&#x1c8;" horiz-adv-x="1671" 
d="M1331 948q-63 0 -176 -59v8q59 66 141 117t148 51q102 0 102 -141q0 -53 -18 -160l-135 -770q-66 -362 -394 -486l-2 11q76 45 133 151t84 244l162 877l8 75q0 82 -53 82zM1645 1339q0 -45 -32 -77t-77 -31q-45 0 -77 32q-32 31 -32 77t32 78t77 32t77 -33t32 -78zM-25 0
v4q2 2 2 4q106 27 150 80q43 53 66 180l161 877q12 63 12 117t-30 88q-31 33 -107 55v4l2 4h510v-4l-2 -4q-109 -27 -153 -80t-66 -180l-201 -1090h345q70 1 140 55t206 212h8l-98 -322h-945z" />
    <glyph glyph-name="uni01C9" unicode="&#x1c9;" horiz-adv-x="1185" 
d="M958 1065q104 0 105 -141q0 -53 -19 -160l-135 -770q-63 -360 -393 -486l-2 11q76 45 134 151t83 244l160 877q10 39 8 99t-53 58q-63 0 -174 -59v8q55 66 139 117t147 51zM1161 1339q0 -45 -33 -77q-34 -32 -78 -31q-44 0 -76 32q-32 33 -32 77t32 77t78 33t78 -33
t31 -78zM141 117q0 51 19 162l164 919q12 62 12 116t-32 82t-120 48v8q199 16 361 92h8q-49 -254 -149 -802t-99 -570q0 -82 57 -82q66 1 175 62v-9q-55 -61 -135 -115t-144 -55q-117 0 -117 144z" />
    <glyph glyph-name="uni01CA" unicode="&#x1ca;" horiz-adv-x="2260" 
d="M1520 -428l-2 6q193 123 245 399l211 1158q25 143 1 192t-124 78l2 8h510l-2 -8q-111 -29 -153 -79t-68 -191l-198 -1088q-39 -218 -174 -329q-66 -54 -116 -82t-132 -64zM1294 -20h-75l-781 1255l-149 -809q-41 -238 -26 -312t110 -106l-2 -8h-394l3 8q104 33 147 107
t86 311l143 780q12 61 -29 119q-42 57 -134 80l2 8h342l731 -1171l137 745q29 162 31 242t-24 117t-91 59l2 8h395l-2 -8q-106 -33 -149 -107t-86 -311z" />
    <glyph glyph-name="uni01CB" unicode="&#x1cb;" horiz-adv-x="2187" 
d="M1960 1065q104 0 104 -141q0 -53 -18 -160l-135 -770q-63 -360 -393 -486l-2 11q76 45 134 151t83 244l159 877q10 39 11 92q-4 66 -56 65q-63 0 -174 -59v8q55 66 139 117t148 51zM2163 1339q0 -45 -33 -77t-78 -31q-45 0 -77 32q-31 33 -31 77t31 77q32 33 77 33
t78 -33t33 -78zM258 180q0 -80 26 -116t89 -56v-4l-2 -4h-394q0 2 3 8q104 33 147 107q43 75 89 323q142 767 142 808q0 42 -42 90t-123 69v4l2 4h342l731 -1171l137 745q31 168 31 248t-26 114t-89 56l2 4v4h395l-2 -4v-4q-106 -33 -149 -107t-86 -311l-187 -1007h-75
l-781 1255q-116 -639 -148 -807t-32 -248z" />
    <glyph glyph-name="uni01CC" unicode="&#x1cc;" horiz-adv-x="1779" 
d="M1552 1065q104 0 105 -141q0 -53 -19 -160l-135 -770q-63 -360 -393 -486l-2 11q76 45 134 151t83 244l160 877q10 39 8 99t-53 58q-63 0 -174 -59v8q55 66 139 117t147 51zM1755 1339q0 -45 -33 -77q-34 -32 -78 -31q-44 0 -76 32q-32 33 -32 77t32 77t78 33t78 -33
t31 -78zM295 877q0 72 -55 71q-63 0 -174 -59v8q158 172 280 172q113 0 113 -143q0 -43 -8 -84q227 227 397 227q96 0 142 -62q46 -63 46 -147t-12 -145l-90 -465q-10 -57 -10 -88q0 -72 53 -72q63 0 174 62v-5l2 -4q-158 -170 -285 -170q-109 0 -108 142q0 113 26 231
t60 262q33 145 35 209q0 147 -119 148q-141 0 -318 -172l-143 -793h-160l144 791q10 57 10 86z" />
    <glyph glyph-name="uni01CD" unicode="&#x1cd;" horiz-adv-x="1400" 
d="M928 1532h-109q-113 211 -133 250h16q61 -45 189 -131q168 86 252 131h16q-225 -244 -231 -250zM915 569l-118 699l-373 -699h491zM819 0v4l2 4q82 18 115 53t33 116t-43 333h-533q-176 -332 -176 -414q0 -37 26 -56t83 -32q0 -2 -2 -8h-420q0 2 2 8q68 25 114 68
q95 90 306 475l485 876h123l149 -874q55 -324 91 -418t122 -127q0 -2 -2 -8h-475z" />
    <glyph glyph-name="uni01CE" unicode="&#x1ce;" horiz-adv-x="1173" 
d="M768 1163h-109q-113 211 -133 250h17q61 -45 188 -131q168 86 252 131h16q-225 -244 -231 -250zM655 1018q-145 0 -265 -205t-120 -460t150 -255q135 0 311 207l111 643q-86 70 -187 70zM341 -25q-99 1 -171 93t-72 263t87 342t233 283t303 113q86 0 197 -33l98 33h8
l-147 -819l-5 -23q-6 -31 -6 -53q0 -80 54 -80q72 1 178 62v-9q-58 -69 -140 -119t-143 -50t-84 37q-36 60 -12 221q-80 -104 -180 -182t-198 -79z" />
    <glyph glyph-name="uni01CF" unicode="&#x1cf;" horiz-adv-x="673" 
d="M547 1532h-109q-20 39 -133 250h17l188 -131q168 86 252 131h16q-6 -6 -231 -250zM-18 0q0 2 2 8q106 29 148 78t67 182l161 877q12 67 12 121t-30 86q-31 32 -106 53l2 4v4h510l-3 -4v-4q-111 -29 -153 -78t-66 -182l-161 -877q-13 -68 -13 -122t31 -86t106 -52
q0 -2 -2 -8h-505z" />
    <glyph glyph-name="uni01D0" unicode="&#x1d0;" horiz-adv-x="618" 
d="M438 1163h-108q-20 39 -133 250h16l188 -131q168 86 252 131h17q-7 -6 -232 -250zM164 117q0 72 18 162l105 512q10 57 10 86q0 72 -53 71q-66 0 -176 -59v8q57 63 136 117t140 55q115 0 115 -145q0 -76 -19 -160l-104 -514q-10 -57 -10 -88q0 -72 55 -72q57 1 174 62v-9
q-55 -61 -133 -115t-141 -55q-117 0 -117 144z" />
    <glyph glyph-name="uni01D1" unicode="&#x1d1;" horiz-adv-x="1597" 
d="M1014 1532h-109l-133 250h16l189 -131l252 131h16zM934 1397q-232 0 -417 -223t-214 -535q-31 -266 80 -445t332 -180q250 0 434 226t215 534q29 266 -84 444q-114 178 -346 179zM104 653q16 166 101 317q158 283 472 412q144 59 281 60q258 0 444 -199t157 -502
q-21 -217 -153 -397t-318 -277t-381 -98q-266 1 -449 193t-154 491z" />
    <glyph glyph-name="uni01D2" unicode="&#x1d2;" horiz-adv-x="1089" 
d="M688 1163h-108q-113 211 -134 250h17q61 -45 188 -131q168 86 252 131h17q-226 -244 -232 -250zM1006 621v-25q-12 -236 -178 -428t-373 -193q-158 0 -267 129t-108 324v25q0 225 175 421t378 195q157 1 265 -127t108 -321zM260 352q0 -154 56 -244t148 -90q91 0 162 68
q120 115 178 406t-37 444q-57 90 -157 90t-183 -106t-125 -260t-42 -308z" />
    <glyph glyph-name="uni01D3" unicode="&#x1d3;" horiz-adv-x="1562" 
d="M1030 1532h-108q-20 39 -134 250h17l188 -131q168 86 252 131h17q-7 -6 -232 -250zM1364 1237q0 72 -26 108t-89 60v4l2 4h391v-4l-2 -4q-104 -33 -147 -109t-86 -309l-113 -606q-37 -197 -184 -305q-146 -108 -386 -107q-240 0 -374 88q-133 88 -133 254q0 29 2 43v27
l17 92q25 123 65 352q41 229 56 309t15 131q0 50 -30 84q-31 34 -106 56l2 4v4h512v-4l-2 -4q-109 -27 -152 -79t-66 -181q-149 -801 -149 -848q0 -121 90 -187t274 -65q184 0 316 89q131 89 162 253l110 600q31 178 31 250z" />
    <glyph glyph-name="uni01D4" unicode="&#x1d4;" 
d="M725 1163h-109q-20 39 -133 250h17l188 -131q168 86 252 131h16q-6 -6 -231 -250zM373 -27q-190 0 -191 238q0 75 101 580q10 61 10 94q-2 66 -57 65q-61 0 -173 -59v8q55 61 135 115t142 55q115 0 115 -151q0 -47 -19 -154l-86 -445q-8 -45 -8 -106q0 -131 102 -131
q70 0 160 61t168 152l135 747h162l-145 -792q-12 -57 -13 -78q0 -78 54 -78q74 1 178 60v-9q-55 -61 -135 -116t-142 -56q-115 0 -114 140q0 51 12 123q-78 -100 -191 -182t-200 -81z" />
    <glyph glyph-name="uni01D5" unicode="&#x1d5;" horiz-adv-x="1562" 
d="M1262 1817h-535l14 88h537q-14 -70 -16 -88zM930 1627q0 -42 -31 -73q-31 -30 -74 -30t-73 30t-29 73q0 42 30 73q31 31 73 31t73 -31t31 -73zM1225 1627q0 -42 -31 -73q-31 -30 -73 -30q-43 0 -73 30t-30 73q0 42 31 73t73 31t72 -31q31 -31 31 -73zM1364 1237
q0 72 -26 108t-89 60v4l2 4h391v-4l-2 -4q-104 -33 -147 -109t-86 -309l-113 -606q-37 -197 -184 -305q-146 -108 -386 -107q-240 0 -374 88q-133 88 -133 254q0 29 2 43v27l17 92q25 123 65 352q41 229 56 309t15 131q0 50 -30 84q-31 34 -106 56l2 4v4h512v-4l-2 -4
q-109 -27 -152 -79t-66 -181q-149 -801 -149 -848q0 -121 90 -187t274 -65q184 0 316 89q131 89 162 253l110 600q31 178 31 250z" />
    <glyph glyph-name="uni01D6" unicode="&#x1d6;" 
d="M973 1489h-535l15 88h536q-14 -70 -16 -88zM635 1299q0 -43 -31 -73t-74 -30q-42 0 -72 31t-30 73t30 72q30 31 72 31t74 -31q31 -31 31 -73zM930 1299q0 -43 -31 -73t-73 -30t-72 31t-31 73q0 42 31 72q30 31 72 31t73 -31t31 -73zM373 -27q-190 0 -191 238
q0 75 101 580q10 61 10 94q-2 66 -57 65q-61 0 -173 -59v8q55 61 135 115t142 55q115 0 115 -151q0 -47 -19 -154l-86 -445q-8 -45 -8 -106q0 -131 102 -131q70 0 160 61t168 152l135 747h162l-145 -792q-12 -57 -13 -78q0 -78 54 -78q74 1 178 60v-9q-55 -61 -135 -116
t-142 -56q-115 0 -114 140q0 51 12 123q-78 -100 -191 -182t-200 -81z" />
    <glyph glyph-name="uni01D7" unicode="&#x1d7;" horiz-adv-x="1562" 
d="M877 1757h-11q137 115 154 250h188q-87 -162 -331 -250zM930 1627q0 -42 -31 -73q-31 -30 -74 -30t-73 30t-29 73q0 42 30 73q31 31 73 31t73 -31t31 -73zM1225 1627q0 -42 -31 -73q-31 -30 -73 -30q-43 0 -73 30t-30 73q0 42 31 73t73 31t72 -31q31 -31 31 -73z
M1364 1237q0 72 -26 108t-89 60v4l2 4h391v-4l-2 -4q-104 -33 -147 -109t-86 -309l-113 -606q-37 -197 -184 -305q-146 -108 -386 -107q-240 0 -374 88q-133 88 -133 254q0 29 2 43v27l17 92q25 123 65 352q41 229 56 309t15 131q0 50 -30 84q-31 34 -106 56l2 4v4h512v-4
l-2 -4q-109 -27 -152 -79t-66 -181q-149 -801 -149 -848q0 -121 90 -187t274 -65q184 0 316 89q131 89 162 253l110 600q31 178 31 250z" />
    <glyph glyph-name="uni01D8" unicode="&#x1d8;" 
d="M625 1440h-11q135 113 154 250h186q-83 -160 -329 -250zM635 1299q0 -43 -31 -73t-74 -30q-42 0 -72 31t-30 73t30 72q30 31 72 31t74 -31q31 -31 31 -73zM930 1299q0 -43 -31 -73t-73 -30t-72 31t-31 73q0 42 31 72q30 31 72 31t73 -31t31 -73zM373 -27q-190 0 -191 238
q0 75 101 580q10 61 10 94q-2 66 -57 65q-61 0 -173 -59v8q55 61 135 115t142 55q115 0 115 -151q0 -47 -19 -154l-86 -445q-8 -45 -8 -106q0 -131 102 -131q70 0 160 61t168 152l135 747h162l-145 -792q-12 -57 -13 -78q0 -78 54 -78q74 1 178 60v-9q-55 -61 -135 -116
t-142 -56q-115 0 -114 140q0 51 12 123q-78 -100 -191 -182t-200 -81z" />
    <glyph glyph-name="uni01D9" unicode="&#x1d9;" horiz-adv-x="1562" 
d="M1053 1767h-109q-113 211 -133 250h16q61 -45 189 -131q168 86 252 131h16q-225 -244 -231 -250zM930 1627q0 -42 -31 -73q-31 -30 -74 -30t-73 30t-29 73q0 42 30 73q31 31 73 31t73 -31t31 -73zM1225 1627q0 -42 -31 -73q-31 -30 -73 -30q-43 0 -73 30t-30 73
q0 42 31 73t73 31t72 -31q31 -31 31 -73zM1364 1237q0 72 -26 108t-89 60v4l2 4h391v-4l-2 -4q-104 -33 -147 -109t-86 -309l-113 -606q-37 -197 -184 -305q-146 -108 -386 -107q-240 0 -374 88q-133 88 -133 254q0 29 2 43v27l17 92q25 123 65 352q41 229 56 309t15 131
q0 50 -30 84q-31 34 -106 56l2 4v4h512v-4l-2 -4q-109 -27 -152 -79t-66 -181q-149 -801 -149 -848q0 -121 90 -187t274 -65q184 0 316 89q131 89 162 253l110 600q31 178 31 250z" />
    <glyph glyph-name="uni01DA" unicode="&#x1da;" 
d="M750 1450h-109q-113 211 -133 250h16q61 -45 189 -131q168 86 252 131h16q-225 -244 -231 -250zM635 1299q0 -43 -31 -73t-74 -30q-42 0 -72 31t-30 73t30 72q30 31 72 31t74 -31q31 -31 31 -73zM930 1299q0 -43 -31 -73t-73 -30t-72 31t-31 73q0 42 31 72q30 31 72 31
t73 -31t31 -73zM373 -27q-190 0 -191 238q0 75 101 580q10 61 10 94q-2 66 -57 65q-61 0 -173 -59v8q55 61 135 115t142 55q115 0 115 -151q0 -47 -19 -154l-86 -445q-8 -45 -8 -106q0 -131 102 -131q70 0 160 61t168 152l135 747h162l-145 -792q-12 -57 -13 -78
q0 -78 54 -78q74 1 178 60v-9q-55 -61 -135 -116t-142 -56q-115 0 -114 140q0 51 12 123q-78 -100 -191 -182t-200 -81z" />
    <glyph glyph-name="uni01DB" unicode="&#x1db;" horiz-adv-x="1562" 
d="M1188 1757h-10q-252 88 -353 250h187q31 -137 176 -250zM836 1731q44 0 74 -31t30 -73t-31 -73q-31 -30 -73 -30t-73 30q-30 30 -30 73q0 42 30 73t73 31zM1235 1627q0 -42 -31 -73q-31 -30 -73 -30q-43 0 -73 30t-30 73q0 42 31 73t73 31t72 -31q31 -31 31 -73z
M1364 1237q0 72 -26 108t-89 60v4l2 4h391v-4l-2 -4q-104 -33 -147 -109t-86 -309l-113 -606q-37 -197 -184 -305q-146 -108 -386 -107q-240 0 -374 88q-133 88 -133 254q0 29 2 43v27l17 92q25 123 65 352q41 229 56 309t15 131q0 50 -30 84q-31 34 -106 56l2 4v4h512v-4
l-2 -4q-109 -27 -152 -79t-66 -181q-149 -801 -149 -848q0 -121 90 -187t274 -65q184 0 316 89q131 89 162 253l110 600q31 178 31 250z" />
    <glyph glyph-name="uni01DC" unicode="&#x1dc;" 
d="M895 1440h-10q-252 88 -355 250h189q29 -137 176 -250zM635 1299q0 -43 -31 -73t-74 -30q-42 0 -72 31t-30 73t30 72q30 31 72 31t74 -31q31 -31 31 -73zM930 1299q0 -43 -31 -73t-73 -30t-72 31t-31 73q0 42 31 72q30 31 72 31t73 -31t31 -73zM373 -27q-190 0 -191 238
q0 75 101 580q10 61 10 94q-2 66 -57 65q-61 0 -173 -59v8q55 61 135 115t142 55q115 0 115 -151q0 -47 -19 -154l-86 -445q-8 -45 -8 -106q0 -131 102 -131q70 0 160 61t168 152l135 747h162l-145 -792q-12 -57 -13 -78q0 -78 54 -78q74 1 178 60v-9q-55 -61 -135 -116
t-142 -56q-115 0 -114 140q0 51 12 123q-78 -100 -191 -182t-200 -81z" />
    <glyph glyph-name="uni01DD" unicode="&#x1dd;" horiz-adv-x="937" 
d="M215 170q0 -74 37 -111t100 -36q114 1 214 155t112 363q-233 -6 -348 -118t-115 -253zM518 1069q142 0 237 -120t95 -308q0 -256 -173 -461t-370 -205q-106 1 -177 55t-71 154q0 132 120 244q65 59 193 99t306 48q0 197 -73 285t-177 88q-170 0 -309 -164l-13 15
q51 98 160 184q110 86 252 86z" />
    <glyph glyph-name="uni01DE" unicode="&#x1de;" horiz-adv-x="1400" 
d="M1163 1786h-534l16 88h535q-3 -18 -17 -88zM727 1731q43 0 73 -31t31 -73q-1 -42 -31 -73q-30 -30 -73 -30t-73 30t-30 73q0 42 30 73t73 31zM1023 1731q43 0 73 -31t30 -73t-30 -73q-30 -30 -73 -30q-42 0 -73 30q-30 30 -30 73q0 42 30 73q31 31 73 31zM915 569
l-118 699l-373 -699h491zM819 0v4l2 4q82 18 115 53t33 116t-43 333h-533q-176 -332 -176 -414q0 -37 26 -56t83 -32q0 -2 -2 -8h-420q0 2 2 8q68 25 114 68q95 90 306 475l485 876h123l149 -874q55 -324 91 -418t122 -127q0 -2 -2 -8h-475z" />
    <glyph glyph-name="uni01DF" unicode="&#x1df;" horiz-adv-x="1173" 
d="M1030 1489h-534l14 88h537q-15 -70 -17 -88zM584 1403q44 0 74 -31t30 -73q0 -43 -31 -73t-73 -30t-73 31q-30 31 -30 73t30 72q30 31 73 31zM880 1403q42 0 72 -31t31 -73q0 -43 -31 -73q-30 -30 -72 -30t-73 31t-31 73t31 72q31 31 73 31zM655 1018q-145 0 -265 -205
t-120 -460t150 -255q135 0 311 207l111 643q-86 70 -187 70zM341 -25q-99 1 -171 93t-72 263t87 342t233 283t303 113q86 0 197 -33l98 33h8l-147 -819l-5 -23q-6 -31 -6 -53q0 -80 54 -80q72 1 178 62v-9q-58 -69 -140 -119t-143 -50t-84 37q-36 60 -12 221
q-80 -104 -180 -182t-198 -79z" />
    <glyph glyph-name="uni01E0" unicode="&#x1e0;" horiz-adv-x="1400" 
d="M1149 1817h-504l14 92h506q-12 -61 -16 -92zM995 1634q-1 -45 -33 -78q-32 -32 -77 -32t-78 32t-33 78q0 45 33 78t78 33t77 -33t33 -78zM915 569l-118 699l-373 -699h491zM819 0v4l2 4q82 18 115 53t33 116t-43 333h-533q-176 -332 -176 -414q0 -37 26 -56t83 -32
q0 -2 -2 -8h-420q0 2 2 8q68 25 114 68q95 90 306 475l485 876h123l149 -874q55 -324 91 -418t122 -127q0 -2 -2 -8h-475z" />
    <glyph glyph-name="uni01E1" unicode="&#x1e1;" horiz-adv-x="1173" 
d="M1004 1509h-504l16 93h504q-4 -32 -16 -93zM870 1317q0 -45 -32 -78t-79 -33q-46 0 -78 32t-32 78t33 79t78 33t78 -33q32 -33 32 -78zM655 1018q-145 0 -265 -205t-120 -460t150 -255q135 0 311 207l111 643q-86 70 -187 70zM341 -25q-99 1 -171 93t-72 263t87 342
t233 283t303 113q86 0 197 -33l98 33h8l-147 -819l-5 -23q-6 -31 -6 -53q0 -80 54 -80q72 1 178 62v-9q-58 -69 -140 -119t-143 -50t-84 37q-36 60 -12 221q-80 -104 -180 -182t-198 -79z" />
    <glyph glyph-name="uni01E2" unicode="&#x1e2;" horiz-adv-x="1878" 
d="M1495 1546h-534l14 88h536q-14 -70 -16 -88zM954 569l144 789h-13q-315 -434 -579 -789h448zM678 0q0 2 2 8q111 29 153 80t68 191l41 221h-485q-133 -176 -189 -268t-57 -142q0 -57 84 -82v-4l-2 -4h-414q0 2 2 8q95 36 199 142t326 401l436 584q76 102 76 146t-28 66
q-28 23 -56 31t-95 27l2 4v4h1104q-16 -96 -53 -289h-8q-45 142 -86 188t-125 46h-305q-86 -475 -109 -604h273q68 0 112 28t105 103h8q-16 -86 -58 -316h-8q-33 74 -69 102q-37 28 -103 27h-272q-19 -106 -59 -321t-60 -322h356q78 0 137 46q58 46 216 221h8
q-24 -74 -100 -322h-967z" />
    <glyph glyph-name="uni01E3" unicode="&#x1e3;" horiz-adv-x="1579" 
d="M1237 1253h-535l17 88h534q-2 -18 -16 -88zM1241 1022q-115 0 -215 -156t-111 -362q238 33 350 133q111 101 111 243t-135 142zM670 1018q-156 0 -278 -204t-122 -460t150 -256q82 0 175 87t165 223q-8 47 12 153l72 404q-78 53 -174 53zM1163 94q173 0 310 166l14 -14
q-53 -98 -162 -184t-241 -87t-216 91t-106 247q-90 -139 -202 -238t-214 -99t-176 92q-72 92 -72 263t87 342t233 283t303 113q86 0 197 -33l88 33h8l-29 -137q147 137 301 137q106 0 176 -54t70 -157q0 -307 -619 -391l2 -43q6 -158 75 -244t173 -86z" />
    <glyph glyph-name="uni01E4" unicode="&#x1e4;" horiz-adv-x="1505" 
d="M734 -31q-263 0 -442 175t-179 446q0 184 78 347q150 309 493 442q160 63 296 63t270 -25q132 -25 192 -51l-51 -276h-9q-100 305 -384 305t-486 -250q-203 -250 -203 -582q0 -240 130 -386q129 -146 323 -146t321 57l47 256h-253l10 66h256q16 72 16 134t-31 96
q-31 36 -104 58l2 9h467l-2 -9q-82 -29 -119 -80t-61 -190l-4 -18h198l-10 -66h-201l-51 -289q-246 -86 -509 -86z" />
    <glyph glyph-name="uni01E5" unicode="&#x1e5;" horiz-adv-x="919" 
d="M430 375q114 0 180 138t66 312q0 89 -40 145t-101 56q-109 0 -178 -141t-68 -293q-1 -100 35 -158t106 -59zM334 -444q122 0 226 47t124 133h-309l10 65h299q-8 49 -48 78t-124 55l-272 86q-221 -92 -222 -247q0 -97 98 -157t218 -60zM-145 -240q0 174 348 277
q-88 45 -88 113q0 111 196 204q-186 66 -186 252t118 324t289 139q50 0 130 -35t116 -35q84 0 129 24t90 79q39 -47 39 -89t-26 -70t-68 -28q-41 0 -170 41q70 -80 70 -200q0 -164 -123 -291t-295 -127q-41 0 -76 8q-94 -66 -94 -121t68 -75l215 -64q149 -45 215 -101
t65 -145q0 -14 -4 -39h191l-11 -65h-200q-51 -109 -195 -168q-144 -60 -306 -60q-161 0 -299 74t-138 178z" />
    <glyph glyph-name="Gcaron" unicode="&#x1e6;" horiz-adv-x="1505" 
d="M1036 1532h-108q-20 39 -133 250h16l188 -131q168 86 252 131h17q-7 -6 -232 -250zM734 -31q-263 0 -442 175t-179 446q0 184 78 347q150 309 493 442q160 63 296 63t270 -25q132 -25 192 -51q-33 -184 -51 -276h-9q-100 305 -384 305t-486 -250q-203 -250 -203 -582
q0 -240 130 -386q129 -146 323 -146t321 57l64 340q12 49 12 113q0 63 -31 99t-104 58l2 9h467l-2 -9q-82 -29 -119 -80t-61 -190l-68 -373q-246 -86 -509 -86z" />
    <glyph glyph-name="gcaron" unicode="&#x1e7;" horiz-adv-x="919" 
d="M608 1163h-108l-133 250h16l188 -131l252 131h17zM676 825q0 89 -40 145t-101 56q-109 0 -178 -141t-68 -293q0 -100 36 -158t105 -59q114 0 180 138t66 312zM340 -444q127 0 238 55t110 160q0 66 -40 99t-136 64l-272 86q-221 -92 -222 -247q0 -97 98 -157t224 -60z
M274 -492q-144 0 -281 74q-138 74 -138 178q0 174 348 277q-88 45 -88 113q0 111 196 204q-186 66 -186 252t118 324t289 139q111 0 195 -68q11 -2 73 -2t107 24t90 79q39 -47 39 -89t-26 -70t-68 -28q-41 0 -170 41q70 -80 70 -200q0 -164 -123 -291t-295 -127q-41 0 -76 8
q-94 -66 -94 -122t68 -74l215 -64q149 -45 215 -101q66 -55 66 -153t-84 -176t-200 -113t-260 -35z" />
    <glyph glyph-name="uni01E8" unicode="&#x1e8;" horiz-adv-x="1441" 
d="M913 1532h-108q-20 39 -133 250h16l189 -131q168 86 251 131h17q-7 -6 -232 -250zM1382 0h-516q0 2 2 8q49 10 72 18q57 19 57 81q0 63 -94 249l-209 410l-286 -248l-46 -250q-14 -70 -10 -118q0 -64 30 -94t105 -48v-4l-2 -4h-510v4q2 2 2 4q109 29 150 78t66 182
l161 877q12 72 12 126t-31 84q-30 30 -106 50v4l2 4h512l-2 -4v-4q-111 -29 -153 -78t-66 -182l-100 -543l514 457q203 182 203 258q0 55 -103 88v4l2 4h514v-4l-2 -4q-119 -33 -209 -93t-299 -243l-219 -190l269 -523q104 -205 152 -262t138 -86v-8z" />
    <glyph glyph-name="uni01E9" unicode="&#x1e9;" horiz-adv-x="1036" 
d="M727 1573h-109q-113 211 -133 250h17q61 -45 188 -131q168 86 252 131h16q-225 -244 -231 -250zM338 1308q0 60 -32 88t-118 48l2 8q203 16 359 92h8q-109 -608 -281 -1544h-161l213 1198q10 50 10 110zM776 964q0 40 34 72t81 33q47 0 82 -34t35 -85q0 -88 -168 -202
q-61 -41 -248 -152l172 -338q72 -170 154 -170q51 0 143 49v-2q2 -4 2 -6q-43 -61 -116 -109t-141 -47q-68 0 -112 49q-42 49 -108 201l-150 344q242 111 432 281q-40 8 -66 42t-26 74z" />
    <glyph glyph-name="uni01EA" unicode="&#x1ea;" horiz-adv-x="1597" 
d="M297 531q-1 -225 109 -371t298 -146t342 124q153 124 238 322q86 198 86 420t-113 370q-113 146 -300 146t-337 -120q-150 -121 -237 -320q-86 -199 -86 -425zM647 -428q-80 0 -121 40t-41 95q0 111 238 262h-16q-248 0 -427 170t-180 441q0 180 80 344q152 312 480 452
q153 66 298 66q240 0 422 -176t183 -451q0 -225 -121 -418t-304 -303t-382 -123q-125 -145 -125 -243q1 -37 25 -62q41 -41 126 -16v-8q-55 -70 -135 -70z" />
    <glyph glyph-name="uni01EB" unicode="&#x1eb;" horiz-adv-x="1089" 
d="M260 352q0 -154 56 -244t148 -90q91 0 162 68q120 115 178 406t-37 444q-57 90 -157 90t-183 -106t-125 -260t-42 -308zM406 -428q-80 0 -122 40q-40 40 -40 95q0 113 248 273q-25 -4 -37 -5q-160 -1 -268 133q-107 134 -107 353t175 413t378 195q157 0 265 -128
q108 -129 108 -339t-144 -398t-340 -222q-135 -154 -135 -252q0 -39 26 -64q27 -24 57 -24t71 8v-8q-55 -70 -135 -70z" />
    <glyph glyph-name="uni01EC" unicode="&#x1ec;" horiz-adv-x="1597" 
d="M934 1397q-232 0 -417 -223t-214 -535q-31 -266 80 -445t332 -180q250 0 434 226t215 534q29 266 -84 444q-114 178 -346 179zM647 -428q-80 0 -121 40t-41 95q0 111 238 262h-16q-266 0 -449 193q-182 193 -154 491q16 166 101 317q158 283 472 412q144 59 281 60
q258 0 444 -199t157 -502q-21 -209 -143 -383t-297 -273t-363 -114q-125 -145 -125 -243q1 -37 25 -62q41 -41 126 -16v-8q-55 -70 -135 -70zM1194 1577h-504l15 92h505z" />
    <glyph glyph-name="uni01ED" unicode="&#x1ed;" horiz-adv-x="1097" 
d="M903 1243h-504l17 92h504q-5 -31 -17 -92zM260 352q0 -154 56 -244t148 -90q91 0 162 68q120 115 178 406t-37 444q-57 90 -157 90t-183 -106t-125 -260t-42 -308zM406 -428q-80 0 -122 40q-40 40 -40 95q0 113 248 273q-25 -4 -37 -5q-158 0 -267 129t-108 324v25
q0 227 175 421t378 195q157 0 265 -128t108 -320v-25q-16 -217 -156 -400t-328 -214q-135 -154 -135 -252q0 -39 26 -64q27 -24 57 -24t71 8v-8q-55 -70 -135 -70z" />
    <glyph glyph-name="uni01EE" unicode="&#x1ee;" horiz-adv-x="1052" 
d="M653 1532h-108l-135 250h16q61 -45 184 -131q172 86 256 131h17zM946 492q0 -223 -183 -373t-413 -150q-147 0 -246 69q-98 69 -98 152v13q4 57 41 90t91 33t89 -35t35 -85t-40 -86t-97 -50q71 -54 221 -54t279 120t129 300q0 137 -82 214t-209 91q-30 1 -60 5t-30 8
l438 503h-586l27 156h762l-2 -4v-4l-451 -516q157 -20 271 -130t114 -267z" />
    <glyph glyph-name="uni01EF" unicode="&#x1ef;" horiz-adv-x="1013" 
d="M569 1163h-108l-135 250h16q61 -45 184 -131l256 131h17zM905 1044v-4l-2 -4l-450 -516q157 -20 271 -130t114 -267q0 -223 -184 -373t-412 -149q-147 0 -246 68q-98 69 -98 153v12q4 57 41 91t91 34t89 -35t35 -85t-41 -87t-97 -49q74 -55 222 -55t278 121
q129 121 129 299q0 137 -82 214t-209 91q-17 0 -53 4q-37 4 -37 8l438 504h-585l26 155h762z" />
    <glyph glyph-name="jcaron" unicode="&#x1f0;" horiz-adv-x="591" 
d="M305 877q0 72 -51 71q-66 0 -176 -59v8q57 63 136 117t140 55q113 0 113 -137q0 -70 -16 -168l-136 -770q-63 -360 -393 -486l-2 11q76 45 134 151t83 244l150 821l16 101q2 16 2 41zM426 1163h-109q-20 39 -133 250h17l188 -131q168 86 252 131h16q-6 -6 -231 -250z" />
    <glyph glyph-name="uni01F1" unicode="&#x1f1;" horiz-adv-x="2623" 
d="M1427 0q0 2 3 8q205 264 587 764q383 500 449 586h-473q-68 0 -122 -41t-202 -193h-8q61 193 94 289h952v-4l-1034 -1354h510q69 1 133 53t201 214h8l-98 -322h-1000zM586 55q322 -1 526 225t205 562q0 231 -133 373t-357 143h-262l-237 -1303h258zM569 0h-589v4q2 2 2 4
q110 29 150 79q40 51 67 193t79 428t71 394t19 166t-29 88q-30 30 -106 49v4l3 4h593q297 0 491 -161t193 -435q0 -96 -14 -168q-63 -307 -319 -478t-611 -171z" />
    <glyph glyph-name="uni01F2" unicode="&#x1f2;" horiz-adv-x="2396" 
d="M1520 0v8l706 903h-317q-101 0 -139 -9t-84 -56h-17l57 198h678v-8q-236 -303 -710 -909q258 0 370 9t162 34q51 25 98 86q2 0 8 -1t7 -1q-9 -18 -27 -68q-31 -82 -66 -144q-36 -62 -90 -62t-270 10t-366 10zM586 55q322 -1 526 225t205 562q0 231 -133 373t-357 143
h-262l-237 -1303h258zM569 0h-589v4q2 2 2 4q110 29 150 79q40 51 67 193t79 428t71 394t19 166t-29 88q-30 30 -106 49v4l3 4h593q297 0 491 -161t193 -435q0 -96 -14 -168q-63 -307 -319 -478t-611 -171z" />
    <glyph glyph-name="uni01F3" unicode="&#x1f3;" horiz-adv-x="2027" 
d="M1151 0v8l707 903h-318q-102 0 -139 -9t-84 -56h-17l58 198h678v-8q-475 -606 -711 -909q258 0 369 9t163 34t99 86q2 0 7 -1t7 -1q-8 -18 -26 -68q-57 -157 -109 -190q-25 -16 -63 -16t-255 10q-216 10 -366 10zM264 356q0 -126 42 -192t114 -66q160 0 334 221l110 642
q-27 20 -84 38t-106 19q-156 0 -283 -205t-127 -457zM838 -27q-109 0 -109 146q0 45 14 135q-85 -111 -193 -195t-207 -84q-99 1 -176 93t-77 261t89 342t239 285t305 113q59 0 158 -20l26 149q11 58 11 116t-34 84t-126 46v8q207 16 366 92h9l-234 -1294q-10 -43 -10 -86
q0 -70 53 -70q65 1 178 62v-9q-158 -174 -282 -174z" />
    <glyph glyph-name="uni01F4" unicode="&#x1f4;" horiz-adv-x="1505" 
d="M887 1532h-10q135 113 153 250h187q-84 -160 -330 -250zM734 -31q-263 0 -442 175t-179 446q0 184 78 347q150 309 493 442q160 63 296 63t270 -25q132 -25 192 -51q-33 -184 -51 -276h-9q-100 305 -384 305t-486 -250q-203 -250 -203 -582q0 -240 130 -386
q129 -146 323 -146t321 57l64 340q12 49 12 113q0 63 -31 99t-104 58l2 9h467l-2 -9q-82 -29 -119 -80t-61 -190l-68 -373q-246 -86 -509 -86z" />
    <glyph glyph-name="uni01F5" unicode="&#x1f5;" horiz-adv-x="919" 
d="M471 1163h-10q135 113 153 250h187q-84 -160 -330 -250zM676 825q0 89 -40 145t-101 56q-109 0 -178 -141t-68 -293q0 -100 36 -158t105 -59q114 0 180 138t66 312zM340 -444q127 0 238 55t110 160q0 66 -40 99t-136 64l-272 86q-221 -92 -222 -247q0 -97 98 -157
t224 -60zM274 -492q-144 0 -281 74q-138 74 -138 178q0 174 348 277q-88 45 -88 113q0 111 196 204q-186 66 -186 252t118 324t289 139q111 0 195 -68q11 -2 73 -2t107 24t90 79q39 -47 39 -89t-26 -70t-68 -28q-41 0 -170 41q70 -80 70 -200q0 -164 -123 -291t-295 -127
q-41 0 -76 8q-94 -66 -94 -122t68 -74l215 -64q149 -45 215 -101q66 -55 66 -153t-84 -176t-200 -113t-260 -35z" />
    <glyph glyph-name="uni01F6" unicode="&#x1f6;" horiz-adv-x="2267" 
d="M1882 1044h311l-141 -759q-29 -150 -162 -229q-132 -79 -330 -79t-310 68t-111 199q0 14 4 55l74 395h-791l-78 -426q-14 -74 -12 -104q0 -74 29 -105t108 -51v-8h-514v8q111 29 153 78t66 182l162 877q12 59 12 117t-29 89q-30 32 -108 54l2 4v4h516v-8
q-113 -29 -155 -78t-68 -182l-72 -385h789l71 385q31 154 -17 206q-30 32 -107 54l2 4v4h518l-2 -4v-4q-113 -29 -156 -78t-68 -182q-119 -637 -141 -755t-22 -165q-1 -88 65 -136t198 -48t216 62t102 159q61 336 94 504l7 43q12 80 10 100q0 55 -27 80t-90 47v4q2 2 2 4z
" />
    <glyph glyph-name="uni01F7" unicode="&#x1f7;" horiz-adv-x="1335" 
d="M1020 1444q200 0 280 -130t37 -366q-33 -172 -138 -335t-253 -287q-294 -247 -633 -371l-59 -315l-363 -121l7 28l28 13q96 41 128 79t46 115l250 1348q26 127 6 166t-120 75l4 13q170 16 348 88l-43 -238q82 96 230 167t245 71zM537 1163l-215 -1163q306 143 542 391
t293 545q33 176 -27 279t-204 104q-66 0 -184 -44t-205 -112z" />
    <glyph glyph-name="uni01F8" unicode="&#x1f8;" horiz-adv-x="1595" 
d="M1161 1532h-10q-252 88 -352 250h186q31 -137 176 -250zM1294 -20h-75l-781 1255l-149 -809q-41 -238 -26 -312t110 -106l-2 -8h-394l3 8q104 33 147 107t86 311l143 780q12 61 -29 119q-42 57 -134 80l2 8h342l731 -1171l137 745q29 162 31 242t-24 117t-91 59l2 8h395
l-2 -8q-106 -33 -149 -107t-86 -311z" />
    <glyph glyph-name="uni01F9" unicode="&#x1f9;" horiz-adv-x="1187" 
d="M854 1163h-10q-252 88 -355 250h189q29 -137 176 -250zM295 877q0 72 -55 71q-63 0 -174 -59v8q158 172 280 172q113 0 113 -143q0 -43 -8 -84q227 227 397 227q96 0 142 -62q46 -63 46 -147t-12 -145l-90 -465q-10 -57 -10 -88q0 -72 53 -72q63 0 174 62v-5l2 -4
q-158 -170 -285 -170q-109 0 -108 142q0 113 26 231t60 262q33 145 35 209q0 147 -119 148q-141 0 -318 -172l-143 -793h-160l144 791q10 57 10 86z" />
    <glyph glyph-name="Aringacute" unicode="&#x1fa;" horiz-adv-x="1400" 
d="M784 1741h-10q135 113 154 250h186q-84 -160 -330 -250zM870 1360q59 0 101 43q41 43 41 102t-41 103t-101 43q-60 0 -100 -43q-41 -42 -41 -102t41 -103t100 -43zM915 569l-118 699l-373 -699h491zM819 0v4l2 4q82 18 115 53t33 116t-43 333h-533q-176 -332 -176 -414
q0 -37 26 -56t83 -32q0 -2 -2 -8h-420q0 2 2 8q68 25 114 68q95 90 306 475l430 780q-98 61 -98 161t62 160q64 62 150 62t150 -61t63 -136t-37 -127t-94 -75l131 -762q57 -326 93 -419t120 -126q0 -2 -2 -8h-475z" />
    <glyph glyph-name="aringacute" unicode="&#x1fb;" horiz-adv-x="1173" 
d="M690 1616h-10q135 113 154 250h186q-84 -160 -330 -250zM745 1219q59 0 101 43q41 43 41 102t-41 102q-40 43 -100 43t-101 -43t-41 -102t41 -102t100 -43zM958 1364q0 -86 -63 -147t-149 -61t-150 60q-63 62 -64 148q0 86 64 147t149 61t149 -60q64 -62 64 -148z
M655 1018q-145 0 -265 -205t-120 -460t150 -255q135 0 311 207l111 643q-86 70 -187 70zM341 -25q-99 1 -171 93t-72 263t87 342t233 283t303 113q86 0 197 -33l98 33h8l-147 -819l-5 -23q-6 -31 -6 -53q0 -80 54 -80q72 1 178 62v-9q-58 -69 -140 -119t-143 -50t-84 37
q-36 60 -12 221q-80 -104 -180 -182t-198 -79z" />
    <glyph glyph-name="AEacute" unicode="&#x1fc;" horiz-adv-x="1878" 
d="M1167 1532h-10q137 115 154 250h188q-88 -162 -332 -250zM954 569l144 789h-13q-315 -434 -579 -789h448zM678 0q0 2 2 8q111 29 153 80t68 191l41 221h-485q-133 -176 -189 -268t-57 -142q0 -57 84 -82v-4l-2 -4h-414q0 2 2 8q95 36 199 142t326 401l436 584
q76 102 76 146t-28 66q-28 23 -56 31t-95 27l2 4v4h1104q-16 -96 -53 -289h-8q-45 142 -86 188t-125 46h-305q-86 -475 -109 -604h273q68 0 112 28t105 103h8q-16 -86 -58 -316h-8q-33 74 -69 102q-37 28 -103 27h-272q-19 -106 -59 -321t-60 -322h356q78 0 137 46
q58 46 216 221h8q-24 -74 -100 -322h-967z" />
    <glyph glyph-name="aeacute" unicode="&#x1fd;" horiz-adv-x="1579" 
d="M862 1163h-10q135 113 154 250h186q-84 -160 -330 -250zM1241 1022q-115 0 -215 -156t-111 -362q238 33 350 133q111 101 111 243t-135 142zM670 1018q-156 0 -278 -204t-122 -460t150 -256q82 0 175 87t165 223q-8 47 12 153l72 404q-78 53 -174 53zM1163 94
q173 0 310 166l14 -14q-53 -98 -162 -184t-241 -87t-216 91t-106 247q-90 -139 -202 -238t-214 -99t-176 92q-72 92 -72 263t87 342t233 283t303 113q86 0 197 -33l88 33h8l-29 -137q147 137 301 137q106 0 176 -54t70 -157q0 -307 -619 -391l2 -43q6 -158 75 -244t173 -86z
" />
    <glyph glyph-name="Oslashacute" unicode="&#x1fe;" horiz-adv-x="1597" 
d="M1282 1210l-866 -1056q111 -139 303 -140q246 0 430 226t215 532q29 264 -82 438zM946 1397q-244 0 -429 -223t-214 -533q-28 -258 74 -434l866 1059q-115 131 -297 131zM227 -72l-49 39l127 150q-233 203 -201 536q16 166 101 317q157 283 471 412q143 59 278 60
q186 0 342 -111l123 148l54 -35l-125 -150q243 -206 209 -575q-17 -195 -151 -375t-320 -277t-378 -97q-194 0 -354 110zM870 1532h-10q135 113 154 250h186q-84 -160 -330 -250z" />
    <glyph glyph-name="oslashacute" unicode="&#x1ff;" horiz-adv-x="1089" 
d="M539 1163h-11q137 115 154 250h188q-87 -162 -331 -250zM614 1026q-102 0 -184 -103t-124 -254t-42 -309v-45q0 -30 8 -75l521 641q-55 145 -179 145zM825 654q0 106 -14 155q-453 -561 -520 -643q55 -148 173 -148t201 114t121 266q38 150 39 256zM82 428q0 240 170 440
t381 201q131 0 233 -98l117 145l47 -37l-123 -151q101 -131 101 -307v-25q-18 -240 -180 -430t-369 -191q-137 0 -242 101q-74 -94 -113 -139l-51 32q26 28 125 152q-96 125 -96 307z" />
    <glyph glyph-name="uni0200" unicode="&#x200;" horiz-adv-x="1400" 
d="M819 1532h-18q-129 109 -197 250h156q6 -123 59 -250zM1063 1532h-19q-129 109 -196 250h156q6 -123 59 -250zM915 569l-118 699l-373 -699h491zM819 0v4l2 4q82 18 115 53t33 116t-43 333h-533q-176 -332 -176 -414q0 -37 26 -56t83 -32q0 -2 -2 -8h-420q0 2 2 8
q68 25 114 68q95 90 306 475l485 876h123l149 -874q55 -324 91 -418t122 -127q0 -2 -2 -8h-475z" />
    <glyph glyph-name="uni0201" unicode="&#x201;" horiz-adv-x="1173" 
d="M700 1163h-18q-129 109 -197 250h156q6 -123 59 -250zM944 1163h-18q-129 109 -197 250h156q6 -123 59 -250zM655 1018q-145 0 -265 -205t-120 -460t150 -255q135 0 311 207l111 643q-86 70 -187 70zM341 -25q-99 1 -171 93t-72 263t87 342t233 283t303 113q86 0 197 -33
l98 33h8l-147 -819l-5 -23q-6 -31 -6 -53q0 -80 54 -80q72 1 178 62v-9q-58 -69 -140 -119t-143 -50t-84 37q-36 60 -12 221q-80 -104 -180 -182t-198 -79z" />
    <glyph glyph-name="uni0202" unicode="&#x202;" horiz-adv-x="1400" 
d="M1098 1536h-8q-18 59 -78 94t-128 35q-67 0 -142 -35t-115 -94h-9q37 98 113 172t176 74q99 0 145 -73t46 -173zM915 569l-118 699l-373 -699h491zM819 0v4l2 4q82 18 115 53t33 116t-43 333h-533q-176 -332 -176 -414q0 -37 26 -56t83 -32q0 -2 -2 -8h-420q0 2 2 8
q68 25 114 68q95 90 306 475l485 876h123l149 -874q55 -324 91 -418t122 -127q0 -2 -2 -8h-475z" />
    <glyph glyph-name="uni0203" unicode="&#x203;" horiz-adv-x="1173" 
d="M958 1167h-8q-18 59 -78 95q-118 69 -269 0q-75 -35 -116 -95h-8q37 98 113 172t176 74t145 -73t45 -173zM655 1018q-145 0 -265 -205t-120 -460t150 -255q135 0 311 207l111 643q-86 70 -187 70zM341 -25q-99 1 -171 93t-72 263t87 342t233 283t303 113q86 0 197 -33
l98 33h8l-147 -819l-5 -23q-6 -31 -6 -53q0 -80 54 -80q72 1 178 62v-9q-58 -69 -140 -119t-143 -50t-84 37q-36 60 -12 221q-80 -104 -180 -182t-198 -79z" />
    <glyph glyph-name="uni0204" unicode="&#x204;" horiz-adv-x="1157" 
d="M717 1532h-19q-129 109 -196 250h155q7 -123 60 -250zM961 1532h-19q-129 109 -197 250h156q7 -123 60 -250zM-18 0q0 2 2 8q106 29 148 80t69 191q96 518 157 856q28 165 -19 217q-30 33 -103 53l2 4v4h907q-16 -96 -53 -289h-9q-51 154 -88 194t-143 40h-287l-110 -604
h276q70 0 113 26t104 105h8q-41 -229 -57 -316h-8q-33 76 -67 103t-105 26h-277l-116 -643h344q94 0 149 43t217 224h8l-100 -322h-962z" />
    <glyph glyph-name="uni0205" unicode="&#x205;" horiz-adv-x="937" 
d="M807 1163h-19q-129 109 -196 250h156q6 -123 59 -250zM563 1163h-18q-129 109 -197 250h156q6 -123 59 -250zM733 874q0 72 -37 110t-96 38q-119 0 -218 -155t-110 -363q231 4 346 114t115 256zM524 94q166 0 307 166l13 -14q-53 -100 -162 -186q-110 -86 -252 -85
q-142 0 -236 119t-94 307q0 258 173 463t376 205q100 0 170 -54t70 -155q0 -178 -183 -289q-152 -88 -436 -104l2 -43q8 -164 77 -247t175 -83z" />
    <glyph glyph-name="uni0206" unicode="&#x206;" horiz-adv-x="1157" 
d="M991 1536h-8q-19 59 -79 94t-127 35t-141 -35t-116 -94h-8q37 98 113 172t176 74t145 -73t45 -173zM-18 0q0 2 2 8q106 29 148 80t69 191q96 518 157 856q28 165 -19 217q-30 33 -103 53l2 4v4h907q-16 -96 -53 -289h-9q-51 154 -88 194t-143 40h-287l-110 -604h276
q70 0 113 26t104 105h8q-41 -229 -57 -316h-8q-33 76 -67 103t-105 26h-277l-116 -643h344q94 0 149 43t217 224h8l-100 -322h-962z" />
    <glyph glyph-name="uni0207" unicode="&#x207;" horiz-adv-x="937" 
d="M860 1167h-8q-18 59 -78 95q-118 69 -269 0q-75 -35 -116 -95h-8q37 98 113 172t176 74t145 -73t45 -173zM733 874q0 72 -37 110t-96 38q-119 0 -218 -155t-110 -363q231 4 346 114t115 256zM524 94q166 0 307 166l13 -14q-53 -100 -162 -186q-110 -86 -252 -85
q-142 0 -236 119t-94 307q0 258 173 463t376 205q100 0 170 -54t70 -155q0 -178 -183 -289q-152 -88 -436 -104l2 -43q8 -164 77 -247t175 -83z" />
    <glyph glyph-name="uni0208" unicode="&#x208;" horiz-adv-x="673" 
d="M457 1532h-19q-129 109 -196 250h155q7 -123 60 -250zM700 1532h-18q-129 109 -197 250h156q6 -123 59 -250zM-18 0q0 2 2 8q106 29 148 78t67 182l161 877q12 67 12 121t-30 86q-31 32 -106 53l2 4v4h510l-3 -4v-4q-111 -29 -153 -78t-66 -182l-161 -877
q-13 -68 -13 -122t31 -86t106 -52q0 -2 -2 -8h-505z" />
    <glyph glyph-name="uni0209" unicode="&#x209;" horiz-adv-x="618" 
d="M360 1163h-18q-129 109 -197 250h156q6 -123 59 -250zM604 1163h-18q-129 109 -197 250h156q6 -123 59 -250zM164 117q0 72 18 162l105 512q10 57 10 86q0 72 -53 71q-66 0 -176 -59v8q57 63 136 117t140 55q115 0 115 -145q0 -76 -19 -160l-104 -514q-10 -57 -10 -88
q0 -72 55 -72q57 1 174 62v-9q-55 -61 -133 -115t-141 -55q-117 0 -117 144z" />
    <glyph glyph-name="uni020A" unicode="&#x20a;" horiz-adv-x="673" 
d="M739 1536h-8q-19 59 -79 94t-127 35t-141 -35t-116 -94h-8q37 98 113 172t176 74t145 -73t45 -173zM-18 0q0 2 2 8q106 29 148 78t67 182l161 877q12 67 12 121t-30 86q-31 32 -106 53l2 4v4h510l-3 -4v-4q-111 -29 -153 -78t-66 -182l-161 -877q-13 -68 -13 -122t31 -86
t106 -52q0 -2 -2 -8h-505z" />
    <glyph glyph-name="uni020B" unicode="&#x20b;" horiz-adv-x="618" 
d="M164 117q0 72 18 162l105 512q10 57 10 86q0 72 -53 71q-66 0 -176 -59v8q57 63 136 117t140 55q115 0 115 -145q0 -76 -19 -160l-104 -514q-10 -43 -10 -88q0 -72 55 -72q57 1 174 62v-9q-55 -61 -133 -115t-141 -55q-117 0 -117 144zM610 1167h-8q-18 59 -78 95
q-118 69 -269 0q-75 -35 -116 -95h-8q37 98 113 172t176 74t145 -73t45 -173z" />
    <glyph glyph-name="uni020C" unicode="&#x20c;" horiz-adv-x="1597" 
d="M1151 1532h-18q-129 109 -197 250h156q6 -123 59 -250zM907 1532h-18q-129 109 -197 250h156q6 -123 59 -250zM934 1397q-232 0 -417 -223t-214 -535q-31 -266 80 -445t332 -180q250 0 434 226t215 534q29 266 -84 444q-114 178 -346 179zM104 653q16 166 101 317
q158 283 472 412q144 59 281 60q258 0 444 -199t157 -502q-21 -217 -153 -397t-318 -277t-381 -98q-266 1 -449 193t-154 491z" />
    <glyph glyph-name="uni020D" unicode="&#x20d;" horiz-adv-x="1089" 
d="M610 1163h-18q-129 109 -197 250h156q6 -123 59 -250zM854 1163h-18q-129 109 -197 250h156q6 -123 59 -250zM1006 621v-25q-12 -236 -178 -428t-373 -193q-158 0 -267 129t-108 324v25q0 225 175 421t378 195q157 1 265 -127t108 -321zM260 352q0 -154 56 -244t148 -90
q91 0 162 68q120 115 178 406t-37 444q-57 90 -157 90t-183 -106t-125 -260t-42 -308z" />
    <glyph glyph-name="uni020E" unicode="&#x20e;" horiz-adv-x="1597" 
d="M1200 1536h-8q-18 59 -78 94t-129 35q-67 0 -141 -35t-115 -94h-8q37 98 113 172t176 74t145 -73t45 -173zM934 1397q-232 0 -417 -223t-214 -535q-31 -266 80 -445t332 -180q250 0 434 226t215 534q29 266 -84 444q-114 178 -346 179zM104 653q16 166 101 317
q158 283 472 412q144 59 281 60q258 0 444 -199t157 -502q-21 -217 -153 -397t-318 -277t-381 -98q-266 1 -449 193t-154 491z" />
    </font>
</defs>
</svg>
