<svg xmlns="http://www.w3.org/2000/svg" width="29.5" height="29.5" viewBox="0 0 29.5 29.5">
  <metadata><?xpacket begin="﻿" id="W5M0MpCehiHzreSzNTczkc9d"?>
<x:xmpmeta xmlns:x="adobe:ns:meta/" x:xmptk="Adobe XMP Core 5.6-c142 79.160924, 2017/07/13-01:06:39        ">
   <rdf:RDF xmlns:rdf="http://www.w3.org/1999/02/22-rdf-syntax-ns#">
      <rdf:Description rdf:about=""/>
   </rdf:RDF>
</x:xmpmeta>
                                                                                                    
                                                                                                    
                                                                                                    
                                                                                                    
                                                                                                    
                                                                                                    
                                                                                                    
                                                                                                    
                                                                                                    
                                                                                                    
                                                                                                    
                                                                                                    
                                                                                                    
                                                                                                    
                                                                                                    
                                                                                                    
                                                                                                    
                                                                                                    
                                                                                                    
                                                                                                    
                           
<?xpacket end="w"?></metadata>
<defs>
    <style>
      .cls-1 {
        fill: #a7a6a4;
        fill-rule: evenodd;
      }
    </style>
  </defs>
  <path id="icon" class="cls-1" d="M124.987,675.253a2.542,2.542,0,1,0-2.558-2.517A2.525,2.525,0,0,0,124.987,675.253Zm-0.014-12.224a14.75,14.75,0,1,0,14.749,14.75A14.749,14.749,0,0,0,124.973,663.029Zm0.021,4.486a5.2,5.2,0,1,1-5.212,5.183A5.2,5.2,0,0,1,124.994,667.515Zm5.819,12.431a6.249,6.249,0,0,1-2.249,1.453,10.571,10.571,0,0,1-2.554.573c0.132,0.142.194,0.213,0.276,0.3,1.182,1.188,2.369,2.37,3.547,3.562a1.173,1.173,0,0,1,.264,1.381,1.4,1.4,0,0,1-1.313.818,1.275,1.275,0,0,1-.831-0.424c-0.892-.9-1.8-1.779-2.674-2.693-0.255-.266-0.377-0.215-0.6.015-0.9.924-1.809,1.833-2.726,2.738a1.142,1.142,0,0,1-1.38.247,1.394,1.394,0,0,1-.806-1.286,1.286,1.286,0,0,1,.433-0.862q1.755-1.75,3.5-3.509c0.077-.077.149-0.16,0.262-0.281a7.983,7.983,0,0,1-4.255-1.518,5.5,5.5,0,0,1-.449-0.369,1.275,1.275,0,0,1,1.444-2.079,2.453,2.453,0,0,1,.352.209,6.973,6.973,0,0,0,7.732.07,2.093,2.093,0,0,1,.754-0.389,1.182,1.182,0,0,1,1.354.541A1.147,1.147,0,0,1,130.813,679.946Z" transform="translate(-110.219 -663.031)"/>
</svg>
