<svg xmlns="http://www.w3.org/2000/svg" width="29" height="29" viewBox="0 0 29 29">
  <metadata><?xpacket begin="﻿" id="W5M0MpCehiHzreSzNTczkc9d"?>
<x:xmpmeta xmlns:x="adobe:ns:meta/" x:xmptk="Adobe XMP Core 5.6-c142 79.160924, 2017/07/13-01:06:39        ">
   <rdf:RDF xmlns:rdf="http://www.w3.org/1999/02/22-rdf-syntax-ns#">
      <rdf:Description rdf:about=""/>
   </rdf:RDF>
</x:xmpmeta>
                                                                                                    
                                                                                                    
                                                                                                    
                                                                                                    
                                                                                                    
                                                                                                    
                                                                                                    
                                                                                                    
                                                                                                    
                                                                                                    
                                                                                                    
                                                                                                    
                                                                                                    
                                                                                                    
                                                                                                    
                                                                                                    
                                                                                                    
                                                                                                    
                                                                                                    
                                                                                                    
                           
<?xpacket end="w"?></metadata>
<defs>
    <style>
      .cls-1 {
        fill: #a7a6a4;
        fill-rule: evenodd;
      }
    </style>
  </defs>
  <path id="icon" class="cls-1" d="M204.721,680.931a2.9,2.9,0,1,0-2.9-2.9A2.909,2.909,0,0,0,204.721,680.931Zm6.342-6.456v-2.8H210.7l-2.433.008,0.01,2.8Zm-6.341-10.954a14.506,14.506,0,1,0,14.506,14.506A14.523,14.523,0,0,0,204.722,663.521Zm8.25,12.814v6.754a3.193,3.193,0,0,1-3.189,3.189H199.661a3.192,3.192,0,0,1-3.189-3.189V672.967a3.192,3.192,0,0,1,3.189-3.189h10.122a3.193,3.193,0,0,1,3.189,3.189v3.368Zm-3.738,1.692a4.512,4.512,0,1,1-9.024,0,4.472,4.472,0,0,1,.332-1.692h-2.463v6.754a1.581,1.581,0,0,0,1.581,1.58h10.122a1.581,1.581,0,0,0,1.581-1.58v-6.754H208.9A4.473,4.473,0,0,1,209.234,678.027Z" transform="translate(-190.219 -663.531)"/>
</svg>
