<svg xmlns="http://www.w3.org/2000/svg" width="29" height="29" viewBox="0 0 29 29">
  <metadata><?xpacket begin="﻿" id="W5M0MpCehiHzreSzNTczkc9d"?>
<x:xmpmeta xmlns:x="adobe:ns:meta/" x:xmptk="Adobe XMP Core 5.6-c142 79.160924, 2017/07/13-01:06:39        ">
   <rdf:RDF xmlns:rdf="http://www.w3.org/1999/02/22-rdf-syntax-ns#">
      <rdf:Description rdf:about=""/>
   </rdf:RDF>
</x:xmpmeta>
                                                                                                    
                                                                                                    
                                                                                                    
                                                                                                    
                                                                                                    
                                                                                                    
                                                                                                    
                                                                                                    
                                                                                                    
                                                                                                    
                                                                                                    
                                                                                                    
                                                                                                    
                                                                                                    
                                                                                                    
                                                                                                    
                                                                                                    
                                                                                                    
                                                                                                    
                                                                                                    
                           
<?xpacket end="w"?></metadata>
<defs>
    <style>
      .cls-1 {
        fill: #a7a6a4;
        fill-rule: evenodd;
      }
    </style>
  </defs>
  <path id="icon" class="cls-1" d="M164.723,663.529a14.5,14.5,0,1,0,14.5,14.5A14.5,14.5,0,0,0,164.723,663.529Zm7.355,16.068a27.441,27.441,0,0,1,2,2.01,5.7,5.7,0,0,1,.715,1.029,0.738,0.738,0,0,1-.451,1.152h-2.971a2.3,2.3,0,0,1-1.892-.771c-0.411-.418-0.792-0.864-1.188-1.3a2.752,2.752,0,0,0-.535-0.476,0.62,0.62,0,0,0-.988.24,3.094,3.094,0,0,0-.313,1.387,0.789,0.789,0,0,1-.947.916,7.613,7.613,0,0,1-4.251-.915,9.375,9.375,0,0,1-2.86-2.677,36.16,36.16,0,0,1-3.765-6.712c-0.238-.529-0.064-0.813.52-0.823,0.969-.019,1.939-0.016,2.908,0a0.854,0.854,0,0,1,.807.6,18.063,18.063,0,0,0,1.971,3.653,3.148,3.148,0,0,0,.746.819,0.452,0.452,0,0,0,.768-0.226,2.48,2.48,0,0,0,.171-0.767,11.376,11.376,0,0,0-.047-2.685,1.119,1.119,0,0,0-.954-1.025c-0.284-.054-0.242-0.159-0.1-0.321a1.069,1.069,0,0,1,.912-0.454h3.356a0.8,0.8,0,0,1,.719.875l0,3.729a1.088,1.088,0,0,0,.474.952,0.656,0.656,0,0,0,.67-0.327,11.634,11.634,0,0,0,1.892-2.906c0.226-.46.422-0.936,0.612-1.414a0.72,0.72,0,0,1,.759-0.519l3.231,0a1.71,1.71,0,0,1,.286.017,0.561,0.561,0,0,1,.526.859,8.081,8.081,0,0,1-1.285,2.228c-0.54.746-1.115,1.466-1.65,2.216A1.012,1.012,0,0,0,172.078,679.6Z" transform="translate(-150.219 -663.531)"/>
</svg>
